<svg width="25" height="24" viewBox="0 0 25 24" fill="none" xmlns="http://www.w3.org/2000/svg">
<path d="M20.776 11.3638V23.2603H1V5.0293H12.8965" stroke="#16194F"/>
<path d="M21.8009 3.19931C21.6954 3.09382 21.5369 3.0582 21.3449 3.08969L14.8338 3.99608C14.6363 4.03317 14.4853 4.11671 14.3568 4.24518C14.0775 4.52445 14.0172 4.88862 14.2282 5.09965C14.3253 5.19671 14.4769 5.24774 14.6338 5.22589L16.8416 4.9426L20.0252 4.35042L18.6004 5.64014L11.5403 12.7002C11.2499 12.9906 11.2092 13.3521 11.4287 13.5715C11.6481 13.791 12.0054 13.7461 12.2958 13.4556L19.3559 6.39563L20.6442 4.98062L20.0576 8.15861L19.7701 10.3622C19.7469 10.5289 19.7993 10.6707 19.9005 10.772C20.1074 10.9788 20.4758 10.9227 20.755 10.6434C20.8835 10.5149 20.9684 10.3541 21.0027 10.1426L21.9105 3.65524C21.9378 3.45912 21.9022 3.30061 21.8009 3.19931Z" fill="#16194F"/>
</svg>
