<svg width="49" height="49" viewBox="0 0 49 49" fill="none" xmlns="http://www.w3.org/2000/svg">
<path d="M19.6683 17.8804H17.2545C16.5457 17.8434 15.8444 18.0394 15.2576 18.4385C14.6707 18.8376 14.2306 19.4177 14.0045 20.0904L11.502 27.6304H6.62695C5.76499 27.6304 4.93835 27.9728 4.32886 28.5823C3.71936 29.1918 3.37695 30.0185 3.37695 30.8804V37.3805C3.37695 38.2424 3.71936 39.0689 4.32886 39.6786C4.93835 40.2879 5.76499 40.6305 6.62695 40.6305H8.25195" stroke="#554DDE" stroke-width="3.5" stroke-linecap="round" stroke-linejoin="round"/>
<path d="M40.75 27.6309H42.375C43.2369 27.6309 44.0637 27.9733 44.6731 28.5828C45.2824 29.1923 45.625 30.0189 45.625 30.8809V37.3809C45.625 38.2428 45.2824 39.0693 44.6731 39.679C44.0637 40.2884 43.2369 40.6309 42.375 40.6309H40.75" stroke="#554DDE" stroke-width="3.5" stroke-linecap="round" stroke-linejoin="round"/>
<path d="M35.8724 45.5049C33.1783 45.5049 30.9941 43.3205 30.9941 40.6263C30.9941 37.932 33.1783 35.748 35.8724 35.748C38.567 35.748 40.751 37.932 40.751 40.6263C40.751 43.3205 38.567 45.5049 35.8724 45.5049Z" stroke="#554DDE" stroke-width="3.5" stroke-linecap="round" stroke-linejoin="round"/>
<path d="M13.1226 45.5049C10.4283 45.5049 8.24414 43.3209 8.24414 40.6263C8.24414 37.932 10.4283 35.748 13.1226 35.748C15.8169 35.748 18.001 37.932 18.001 40.6263C18.001 43.3209 15.8169 45.5049 13.1226 45.5049Z" stroke="#554DDE" stroke-width="3.5" stroke-linecap="round" stroke-linejoin="round"/>
<path d="M30.999 40.6289H18.0059" stroke="#554DDE" stroke-width="3.5" stroke-linecap="round" stroke-linejoin="round"/>
<path d="M25.8554 14.6535C24.7149 14.4551 24.7149 12.8178 25.8554 12.6194C29.9873 11.9005 33.2736 8.75337 34.1705 4.65641L34.2393 4.34236C34.486 3.21515 36.0911 3.20814 36.3476 4.33315L36.4311 4.69913C37.3612 8.77677 40.6483 11.8974 44.7686 12.6142C45.9152 12.8136 45.9152 14.4593 44.7686 14.6587C40.6483 15.3755 37.3612 18.4961 36.4311 22.5738L36.3476 22.9398C36.0911 24.0647 34.486 24.0577 34.2393 22.9305L34.1705 22.6165C33.2736 18.5195 29.9873 15.3724 25.8554 14.6535Z" stroke="#554DDE" stroke-width="3.5" stroke-linecap="round" stroke-linejoin="round"/>
</svg>
