<svg width="1440" height="1542" viewBox="0 0 1440 1542" fill="none" xmlns="http://www.w3.org/2000/svg">
<path opacity="0.111111" d="M-50.922 1317.34C-24.5083 1356.54 75.7371 1381.28 265.409 1166.66C502.498 898.395 281.138 315.759 937.452 397.749C1462.5 463.34 1448.19 466.054 1375.4 459.212" stroke="black" stroke-width="1.05537"/>
<path opacity="0.222222" d="M-76.6618 1327.92C-54.1138 1369.03 43.1966 1401.66 252.054 1203.3C513.126 955.346 348.214 357.952 992.881 492.012C1508.61 599.26 1494.13 600.816 1422.42 588.188" stroke="black" stroke-width="1.05537"/>
<path opacity="0.333333" d="M-103.848 1336.65C-85.3346 1379.36 8.28027 1419.61 234.633 1238.88C517.575 1012.97 410.284 405.253 1038.25 590.17C1540.62 738.104 1526.07 738.495 1456.01 720.199" stroke="black" stroke-width="1.05537"/>
<path opacity="0.444444" d="M-132.294 1343.41C-117.955 1387.41 -28.765 1434.94 213.273 1273.08C515.821 1070.76 466.896 457.235 1073.24 691.398C1558.32 878.728 1543.84 877.957 1475.96 854.156" stroke="black" stroke-width="1.05537"/>
<path opacity="0.555556" d="M-161.806 1348.13C-151.747 1393.08 -67.6764 1447.5 188.131 1305.6C507.89 1128.22 517.641 513.442 1097.65 794.854C1561.66 1019.98 1547.34 1018.06 1482.18 988.963" stroke="black" stroke-width="1.05537"/>
<path opacity="0.666667" d="M-192.183 1350.71C-186.479 1396.27 -108.179 1457.15 159.39 1336.13C493.851 1184.87 562.155 573.391 1111.32 899.689C1550.65 1160.73 1536.62 1157.68 1474.69 1123.52" stroke="black" stroke-width="1.05537"/>
<path opacity="0.777778" d="M-223.215 1351.11C-221.909 1396.94 -149.985 1463.77 127.265 1364.41C473.827 1240.22 600.126 636.571 1114.2 1005.04C1525.46 1299.82 1511.82 1295.67 1453.59 1256.75" stroke="black" stroke-width="1.05537"/>
<path opacity="0.888889" d="M-254.687 1349.27C-257.788 1395.03 -192.792 1467.28 91.9969 1390.18C447.983 1293.81 631.291 702.45 1106.32 1110.06C1486.34 1436.15 1473.19 1430.94 1419.12 1387.58" stroke="black" stroke-width="1.05537"/>
<path d="M-286.383 1345.17C-293.867 1390.52 -236.298 1467.6 53.8477 1413.19C416.53 1345.17 655.44 770.48 1087.78 1213.89C1433.65 1568.62 1421.1 1562.4 1371.59 1514.95" stroke="black" stroke-width="1.05537"/>
</svg>
