<svg width="116" height="116" viewBox="0 0 116 116" fill="none" xmlns="http://www.w3.org/2000/svg">
<circle cx="8" cy="8" r="8" fill="#6A6D9E" fill-opacity="0.1"/>
<circle cx="8" cy="28" r="8" fill="#6A6D9E" fill-opacity="0.1"/>
<circle cx="8" cy="48" r="8" fill="#6A6D9E" fill-opacity="0.1"/>
<circle cx="8" cy="68" r="8" fill="#6A6D9E" fill-opacity="0.1"/>
<circle cx="8" cy="88" r="8" fill="#6A6D9E" fill-opacity="0.1"/>
<circle cx="8" cy="108" r="8" fill="#6A6D9E" fill-opacity="0.1"/>
<circle cx="28" cy="8" r="8" fill="#6A6D9E" fill-opacity="0.1"/>
<circle cx="28" cy="28" r="8" fill="#6A6D9E" fill-opacity="0.1"/>
<circle cx="28" cy="48" r="8" fill="#6A6D9E" fill-opacity="0.1"/>
<circle cx="28" cy="68" r="8" fill="#6A6D9E" fill-opacity="0.1"/>
<circle cx="28" cy="88" r="8" fill="#6A6D9E" fill-opacity="0.1"/>
<circle cx="28" cy="108" r="8" fill="#6A6D9E" fill-opacity="0.1"/>
<circle cx="48" cy="8" r="8" fill="#6A6D9E" fill-opacity="0.1"/>
<circle cx="48" cy="28" r="8" fill="#6A6D9E" fill-opacity="0.1"/>
<circle cx="48" cy="48" r="8" fill="#6A6D9E" fill-opacity="0.1"/>
<circle cx="48" cy="68" r="8" fill="#6A6D9E" fill-opacity="0.1"/>
<circle cx="48" cy="88" r="8" fill="#6A6D9E" fill-opacity="0.1"/>
<circle cx="48" cy="108" r="8" fill="#6A6D9E" fill-opacity="0.1"/>
<circle cx="68" cy="8" r="8" fill="#6A6D9E" fill-opacity="0.1"/>
<circle cx="68" cy="28" r="8" fill="#6A6D9E" fill-opacity="0.1"/>
<circle cx="68" cy="48" r="8" fill="#6A6D9E" fill-opacity="0.1"/>
<circle cx="68" cy="68" r="8" fill="#6A6D9E" fill-opacity="0.1"/>
<circle cx="68" cy="88" r="8" fill="#6A6D9E" fill-opacity="0.1"/>
<circle cx="68" cy="108" r="8" fill="#6A6D9E" fill-opacity="0.1"/>
<circle cx="88" cy="8" r="8" fill="#6A6D9E" fill-opacity="0.1"/>
<circle cx="88" cy="28" r="8" fill="#6A6D9E" fill-opacity="0.1"/>
<circle cx="88" cy="48" r="8" fill="#6A6D9E" fill-opacity="0.1"/>
<circle cx="88" cy="68" r="8" fill="#6A6D9E" fill-opacity="0.1"/>
<circle cx="88" cy="88" r="8" fill="#6A6D9E" fill-opacity="0.1"/>
<circle cx="88" cy="108" r="8" fill="#6A6D9E" fill-opacity="0.1"/>
<circle cx="108" cy="8" r="8" fill="#6A6D9E" fill-opacity="0.1"/>
<circle cx="108" cy="28" r="8" fill="#6A6D9E" fill-opacity="0.1"/>
<circle cx="108" cy="48" r="8" fill="#6A6D9E" fill-opacity="0.1"/>
<circle cx="108" cy="68" r="8" fill="#6A6D9E" fill-opacity="0.1"/>
<circle cx="108" cy="88" r="8" fill="#6A6D9E" fill-opacity="0.1"/>
<circle cx="108" cy="108" r="8" fill="#6A6D9E" fill-opacity="0.1"/>
</svg>
