<svg width="49" height="49" viewBox="0 0 49 49" fill="none" xmlns="http://www.w3.org/2000/svg">
<path d="M43.6133 42.0155C43.6647 42.4715 43.6185 42.933 43.4784 43.3701C43.3384 43.8069 43.1076 44.2093 42.8008 44.5505C42.4934 44.8911 42.117 45.1632 41.6971 45.3478C41.2769 45.5327 40.8222 45.6266 40.3633 45.623H8.64333C8.18433 45.6266 7.72982 45.5327 7.3097 45.3478C6.88957 45.1632 6.51335 44.8911 6.20583 44.5505C5.89913 44.2093 5.66818 43.8069 5.52814 43.3701C5.3881 42.933 5.34214 42.4715 5.39333 42.0155L8.25333 16.373H40.7533L43.6133 42.0155Z" stroke="#554DDE" stroke-width="3.5" stroke-linecap="round" stroke-linejoin="round"/>
<path d="M16.3789 16.374V11.499C16.3789 9.34414 17.2349 7.2775 18.7587 5.75377C20.2824 4.23005 22.349 3.37402 24.5039 3.37402C26.6588 3.37402 28.7254 4.23005 30.2492 5.75377C31.7729 7.2775 32.6289 9.34414 32.6289 11.499V16.374" stroke="#554DDE" stroke-width="3.5" stroke-linecap="round" stroke-linejoin="round"/>
</svg>
