<svg width="42" height="42" viewBox="0 0 42 42" fill="none" xmlns="http://www.w3.org/2000/svg">
<path d="M21.0006 5.02734C21.9838 5.02761 22.9559 5.23521 23.8534 5.63659C24.7509 6.03798 25.5536 6.62413 26.2093 7.35678C26.8649 8.08943 27.3586 8.95211 27.6583 9.88851C27.9579 10.8249 28.0567 11.814 27.9482 12.7911C28.8155 12.3458 29.7664 12.0868 30.7397 12.0307C31.7131 11.9746 32.6874 12.1227 33.6001 12.4655C34.5128 12.8082 35.3438 13.338 36.0396 14.0209C36.7354 14.7039 37.2807 15.5247 37.6405 16.4309C38.0003 17.337 38.1667 18.3084 38.1288 19.2826C38.091 20.2568 37.8499 21.2123 37.4209 22.0878C36.9919 22.9634 36.3845 23.7395 35.6379 24.3664C34.8912 24.9932 34.0216 25.457 33.0851 25.728C33.6974 26.5246 34.1307 27.4439 34.3557 28.4231C34.5807 29.4024 34.592 30.4186 34.3889 31.4026C34.1857 32.3866 33.7729 33.3153 33.1785 34.1253C32.5841 34.9354 31.8221 35.6079 30.9444 36.0969C30.0667 36.5859 29.0939 36.8801 28.0922 36.9593C27.0906 37.0384 26.0837 36.9008 25.14 36.5558C24.1964 36.2108 23.3381 35.6664 22.6238 34.9598C21.9095 34.2532 21.3559 33.4009 21.0006 32.4611C20.6454 33.4009 20.0918 34.2532 19.3775 34.9598C18.6631 35.6664 17.8049 36.2108 16.8613 36.5558C15.9176 36.9008 14.9107 37.0384 13.9091 36.9593C12.9074 36.8801 11.9346 36.5859 11.0569 36.0969C10.1792 35.6079 9.4172 34.9354 8.82279 34.1253C8.22839 33.3153 7.81555 32.3866 7.6124 31.4026C7.40925 30.4186 7.42056 29.4024 7.64555 28.4231C7.87054 27.4439 8.30394 26.5246 8.91622 25.728C7.97967 25.457 7.11013 24.9932 6.36344 24.3664C5.61674 23.7395 5.00941 22.9634 4.58042 22.0878C4.15144 21.2123 3.91029 20.2568 3.87245 19.2826C3.83462 18.3084 4.00095 17.337 4.36075 16.4309C4.72055 15.5247 5.26587 14.7039 5.9617 14.0209C6.65753 13.338 7.48848 12.8082 8.4012 12.4655C9.31392 12.1227 10.2882 11.9746 11.2616 12.0307C12.2349 12.0868 13.1858 12.3458 14.0531 12.7911C13.9446 11.814 14.0434 10.8249 14.343 9.88851C14.6426 8.95211 15.1364 8.08943 15.792 7.35678C16.4476 6.62413 17.2504 6.03798 18.1479 5.63659C19.0454 5.23521 20.0175 5.02761 21.0006 5.02734Z" stroke="black" stroke-width="3" stroke-linecap="round" stroke-linejoin="round"/>
<path d="M21.0008 26.1433C23.6751 26.1433 25.1794 24.639 25.1794 21.9647C25.1794 19.2904 23.6751 17.7861 21.0008 17.7861C18.3266 17.7861 16.8223 19.2904 16.8223 21.9647C16.8223 24.639 18.3266 26.1433 21.0008 26.1433Z" stroke="black" stroke-width="3" stroke-linecap="round" stroke-linejoin="round"/>
</svg>
