<svg width="34" height="33" viewBox="0 0 34 33" fill="none" xmlns="http://www.w3.org/2000/svg">
<path d="M16.5245 1.08156C16.6741 0.620904 17.3259 0.620904 17.4755 1.08156L20.7902 11.2832C20.9911 11.9012 21.567 12.3197 22.2168 12.3197H32.9434C33.4278 12.3197 33.6292 12.9395 33.2373 13.2242L24.5593 19.5291C24.0336 19.9111 23.8136 20.5881 24.0144 21.2062L27.3291 31.4078C27.4788 31.8685 26.9516 32.2515 26.5597 31.9668L17.8817 25.6619C17.3559 25.2799 16.6441 25.2799 16.1183 25.6619L7.4403 31.9668C7.04844 32.2515 6.5212 31.8685 6.67088 31.4078L9.98559 21.2062C10.1864 20.5881 9.96641 19.9111 9.44068 19.5291L0.762661 13.2242C0.370804 12.9395 0.572192 12.3197 1.05655 12.3197H11.7832C12.433 12.3197 13.009 11.9012 13.2098 11.2832L16.5245 1.08156Z" fill="white" stroke="black"/>
</svg>
