<svg width="48" height="48" viewBox="0 0 48 48" fill="none" xmlns="http://www.w3.org/2000/svg">
<path d="M24.0002 11.2555C24.0002 7.69327 32.9223 4.76752 43.5208 4.43264C43.7832 4.42424 44.0446 4.46869 44.2895 4.56333C44.5344 4.65798 44.7577 4.8009 44.9463 4.98359C45.1348 5.16628 45.2847 5.38502 45.387 5.62679C45.4893 5.86857 45.542 6.12845 45.5418 6.39098V34.7868C45.5421 35.2962 45.3438 35.7856 44.9892 36.1512C44.6345 36.5168 44.1514 36.7299 43.6422 36.7451C32.9909 37.0585 24.0002 39.9921 24.0002 43.568C24.0002 39.9921 15.0095 37.0585 4.35808 36.7412C3.84895 36.7259 3.3658 36.5129 3.01115 36.1473C2.65651 35.7817 2.45827 35.2923 2.4585 34.7829V6.39098C2.45836 6.12845 2.51102 5.86857 2.61333 5.62679C2.71564 5.38502 2.86552 5.16628 3.05405 4.98359C3.24259 4.8009 3.46594 4.65798 3.71082 4.56333C3.95569 4.46869 4.2171 4.42424 4.4795 4.43264C15.076 4.76752 24.0002 7.69327 24.0002 11.2555Z" stroke="black" stroke-linecap="round" stroke-linejoin="round"/>
<path d="M24 11.2549V43.3226" stroke="black" stroke-linecap="round" stroke-linejoin="round"/>
</svg>
