<svg width="48" height="48" viewBox="0 0 48 48" fill="none" xmlns="http://www.w3.org/2000/svg">
<path d="M9.3125 27.1059C9.31261 27.6253 9.51901 28.1233 9.88629 28.4905L15.1875 33.7917V38.7697C15.1875 39.2891 15.3938 39.7872 15.7611 40.1545C16.1283 40.5218 16.6265 40.7281 17.1458 40.7281H30.8542C31.1113 40.7281 31.366 40.6774 31.6036 40.579C31.8412 40.4806 32.0571 40.3363 32.2389 40.1545C32.4208 39.9727 32.565 39.7568 32.6634 39.5192C32.7618 39.2816 32.8125 39.0269 32.8125 38.7697V33.7917L38.1137 28.4905C38.481 28.1233 38.6874 27.6253 38.6875 27.1059V19.1042C38.6875 18.0654 38.2749 17.0692 37.5403 16.3347C36.8058 15.6001 35.8096 15.1875 34.7708 15.1875H13.2292C12.1904 15.1875 11.1942 15.6001 10.4597 16.3347C9.72515 17.0692 9.3125 18.0654 9.3125 19.1042V27.1059Z" stroke="black" stroke-linecap="round" stroke-linejoin="round"/>
<path d="M32.8125 3.43783C32.8125 2.91844 32.6062 2.42033 32.2389 2.05307C31.8717 1.68582 31.3735 1.47949 30.8542 1.47949H17.1458C16.6265 1.47949 16.1283 1.68582 15.7611 2.05307C15.3938 2.42033 15.1875 2.91844 15.1875 3.43783V15.1878H32.8125V3.43783Z" stroke="black" stroke-linecap="round" stroke-linejoin="round"/>
<path d="M19.104 5.39551H28.8957V11.2705H19.104V5.39551Z" stroke="black" stroke-linecap="round" stroke-linejoin="round"/>
<path d="M24 40.7285V46.5213" stroke="black" stroke-linecap="round" stroke-linejoin="round"/>
<path d="M18.125 26.9372H29.875L24 20.083L18.125 26.9372Z" stroke="black" stroke-linecap="round" stroke-linejoin="round"/>
</svg>
