<svg width="385" height="470" viewBox="0 0 385 470" fill="none" xmlns="http://www.w3.org/2000/svg">
<g clip-path="url(#clip0_46_651)">
<path d="M100.228 284.366C99.6703 283.404 97.2584 284.434 96.815 283.561C96.3732 282.691 98.6141 281.365 99.8943 278.337C100.125 277.791 101.58 274.349 100.503 273.287C98.4615 271.274 89.1192 279.581 85.8498 276.863C85.1323 276.266 84.6311 275.075 82.4595 273.142C81.5956 272.372 81.0732 272.025 80.5677 272.154C79.8503 272.338 79.7935 273.32 79.0242 275.252C77.8706 278.15 77.1883 277.975 76.5162 280.287C76.0172 282.003 76.1312 283 75.5441 283.195C74.7132 283.47 73.9485 281.65 72.8955 281.813C71.821 281.979 71.1714 284.098 70.9662 285.685C70.5811 288.663 71.6496 290.628 72.2419 292.694C72.8854 294.939 73.2674 298.354 71.7811 303.188L57.0708 345.607C60.3184 336.903 69.7217 313.042 73.673 304.175C74.8137 301.616 76.0731 299.019 78.6591 297.995C81.1489 297.008 84.5682 297.597 88.9275 296.522C89.4366 296.397 90.8494 296.029 91.0272 295.178C91.1742 294.475 90.3432 294.083 90.4709 293.424C90.6422 292.541 92.2763 292.53 94.2845 291.511C95.7006 290.792 96.5828 289.938 97.3414 289.203C97.5702 288.981 100.97 285.647 100.228 284.366Z" fill="#F2F2F2"/>
<path d="M42.3527 306.698C41.7305 306.7 41.5286 308.209 40.9819 308.18C40.4372 308.151 40.4481 306.642 39.3652 305.125C39.17 304.852 37.9394 303.128 37.1194 303.363C35.565 303.807 36.8529 310.897 34.606 311.755C34.1129 311.943 33.3972 311.852 31.8434 312.384C31.2253 312.597 30.908 312.759 30.8241 313.05C30.705 313.463 31.1598 313.775 31.8644 314.719C32.921 316.135 32.6403 316.427 33.5549 317.432C34.2339 318.177 34.7452 318.408 34.669 318.759C34.5612 319.256 33.4677 319.115 33.242 319.691C33.0118 320.278 33.8407 321.216 34.5424 321.777C35.8593 322.83 37.1099 322.86 38.2715 323.159C39.534 323.483 41.2817 324.276 43.171 326.418L59.2688 346.047C56.0317 341.904 47.3024 330.296 44.1903 325.752C43.292 324.441 42.4103 323.059 42.6651 321.464C42.9104 319.929 44.1794 318.381 44.9218 315.881C45.0085 315.589 45.2397 314.774 44.8831 314.439C44.5884 314.162 44.1604 314.466 43.8814 314.212C43.5073 313.871 43.9736 313.047 44.0643 311.745C44.1282 310.826 43.973 310.136 43.8394 309.543C43.7991 309.364 43.1811 306.694 42.3527 306.698Z" fill="#F2F2F2"/>
<path d="M54.7665 309.55L54.3916 306.125L54.5629 305.865C55.3555 304.664 55.7595 303.492 55.7644 302.378C55.7652 302.202 55.7571 302.025 55.749 301.844C55.7167 301.13 55.6763 300.242 56.1288 299.206C56.3825 298.629 57.0951 297.293 58.1665 297.458C58.455 297.5 58.6731 297.635 58.8388 297.794C58.863 297.754 58.888 297.714 58.9147 297.671C59.2484 297.151 59.5126 296.927 59.7671 296.712C59.9627 296.547 60.1647 296.377 60.4814 295.973C60.6204 295.796 60.7286 295.641 60.8199 295.51C61.0971 295.115 61.459 294.643 62.0974 294.651C62.7793 294.685 63.1364 295.262 63.3732 295.644C63.7957 296.325 63.9872 296.816 64.1141 297.142C64.1601 297.261 64.2127 297.395 64.2393 297.437C64.4591 297.767 66.2456 297.458 66.9186 297.346C68.4303 297.088 69.7385 296.864 70.2774 297.84C70.6636 298.538 70.3768 299.461 69.3991 300.657C69.0945 301.029 68.7705 301.312 68.4829 301.533C68.7212 301.679 68.9345 301.902 69.021 302.253C69.2246 303.083 68.5273 303.915 66.9493 304.729C66.5574 304.932 66.0298 305.203 65.2905 305.334C64.9423 305.395 64.6288 305.41 64.3605 305.418C64.3549 305.577 64.3185 305.749 64.224 305.926C63.9468 306.447 63.37 306.695 62.5006 306.636C61.5439 306.584 60.7561 306.397 60.0612 306.234C59.4545 306.092 58.9317 305.971 58.5212 305.999C57.7601 306.062 57.1735 306.685 56.4851 307.494L54.7665 309.55Z" fill="#F2F2F2"/>
<path d="M56.5058 289.156L53.3636 290.396L53.0748 290.292C51.7389 289.812 50.5282 289.71 49.475 289.987C49.3075 290.031 49.1423 290.084 48.974 290.138C48.3069 290.351 47.4778 290.616 46.3845 290.431C45.7746 290.326 44.3308 289.96 44.2154 288.857C44.1813 288.561 44.2542 288.311 44.3622 288.106C44.3185 288.093 44.2747 288.078 44.2273 288.062C43.6502 287.864 43.3722 287.659 43.1044 287.462C42.8985 287.31 42.6863 287.153 42.2245 286.942C42.022 286.849 41.8476 286.782 41.701 286.724C41.2571 286.55 40.7198 286.312 40.5657 285.677C40.424 284.994 40.879 284.494 41.18 284.163C41.7168 283.572 42.1325 283.257 42.4082 283.049C42.5091 282.973 42.6224 282.887 42.6547 282.85C42.9116 282.549 42.1662 280.859 41.8892 280.221C41.2619 278.79 40.719 277.551 41.5046 276.77C42.0663 276.211 43.0112 276.261 44.3894 276.925C44.8183 277.133 45.1678 277.382 45.4502 277.61C45.5273 277.337 45.6842 277.07 45.9937 276.895C46.7267 276.483 47.6899 276.962 48.8592 278.318C49.1508 278.654 49.541 279.108 49.852 279.807C49.9982 280.136 50.0918 280.442 50.1677 280.706C50.3192 280.671 50.4909 280.664 50.6822 280.712C51.2448 280.855 51.6256 281.363 51.7899 282.239C51.9841 283.199 52.0073 284.026 52.0288 284.755C52.0483 285.392 52.0668 285.94 52.1975 286.34C52.4499 287.077 53.188 287.5 54.127 287.976L56.5058 289.156Z" fill="#F2F2F2"/>
<path d="M54.7665 279.065L54.3916 275.64L54.5629 275.381C55.3555 274.18 55.7595 273.007 55.7644 271.894C55.7652 271.717 55.7571 271.54 55.749 271.36C55.7167 270.645 55.6763 269.757 56.1288 268.722C56.3825 268.145 57.0951 266.808 58.1665 266.974C58.455 267.015 58.6731 267.151 58.8388 267.31C58.863 267.27 58.888 267.23 58.9147 267.187C59.2484 266.666 59.5126 266.443 59.7671 266.228C59.9627 266.062 60.1647 265.892 60.4814 265.489C60.6204 265.312 60.7286 265.156 60.8199 265.025C61.0971 264.63 61.459 264.159 62.0974 264.167C62.7793 264.2 63.1364 264.777 63.3732 265.159C63.7957 265.841 63.9872 266.332 64.1141 266.658C64.1601 266.777 64.2127 266.911 64.2393 266.952C64.4591 267.283 66.2456 266.974 66.9186 266.861C68.4303 266.603 69.7385 266.38 70.2774 267.356C70.6636 268.054 70.3768 268.977 69.3991 270.172C69.0945 270.545 68.7705 270.827 68.4829 271.049C68.7212 271.195 68.9345 271.418 69.021 271.768C69.2246 272.599 68.5273 273.431 66.9493 274.244C66.5574 274.448 66.0298 274.719 65.2905 274.85C64.9423 274.911 64.6288 274.926 64.3605 274.934C64.3549 275.093 64.3185 275.265 64.224 275.442C63.9468 275.963 63.37 276.211 62.5006 276.151C61.5439 276.1 60.7561 275.913 60.0612 275.749C59.4545 275.607 58.9317 275.486 58.5212 275.515C57.7601 275.577 57.1735 276.201 56.4851 277.01L54.7665 279.065Z" fill="#F2F2F2"/>
<path d="M58.1909 345.552L57.4896 345.102L56.6719 345.198C56.6589 345.12 56.6145 344.942 56.5475 344.662C56.1814 343.131 55.0656 338.47 54.1348 331.13C53.4852 326.006 53.1176 320.739 53.0416 315.471C52.9657 310.195 53.2097 306.201 53.4052 302.991C53.5531 300.569 53.7324 298.264 53.9086 296.018C54.3772 290.017 54.8192 284.349 54.4903 278.075C54.4176 276.674 54.2649 273.758 52.6004 270.655C51.6349 268.856 50.305 267.258 48.647 265.908L49.678 264.582C51.508 266.074 52.9794 267.844 54.0516 269.841C55.897 273.282 56.0635 276.459 56.1435 277.985C56.478 284.371 56.0312 290.093 55.5577 296.152C55.3831 298.389 55.2038 300.685 55.0567 303.096C54.8628 306.277 54.6212 310.236 54.6964 315.444C54.7707 320.649 55.1343 325.852 55.775 330.912C56.6945 338.159 57.7942 342.75 58.1553 344.259C58.3476 345.064 58.388 345.233 58.1909 345.552Z" fill="#F2F2F2"/>
<path d="M45.6125 268.599C45.5446 268.599 45.4759 268.598 45.4064 268.593C43.9973 268.515 42.6924 267.652 41.5273 266.027C40.9811 265.263 40.7016 264.392 40.144 262.653C40.0576 262.386 39.6374 261.026 39.3821 259.155C39.2148 257.933 39.2359 257.422 39.4726 256.971C39.7352 256.468 40.1602 256.117 40.6385 255.881C40.6175 255.719 40.6345 255.552 40.7032 255.381C40.9851 254.675 41.735 254.768 42.1406 254.812C42.3458 254.839 42.6019 254.873 42.8783 254.859C43.313 254.837 43.5465 254.705 43.9004 254.506C44.2389 254.316 44.6599 254.08 45.2844 253.949C46.5158 253.686 47.5476 254.043 47.8878 254.161C49.6774 254.771 50.5598 256.195 51.5811 257.844C51.7847 258.175 52.4836 259.379 52.9449 261.029C53.2778 262.22 53.231 262.749 53.1308 263.143C52.9271 263.952 52.4464 264.415 51.2255 265.437C49.9505 266.507 49.3106 267.043 48.7612 267.369C47.4822 268.125 46.679 268.599 45.6125 268.599Z" fill="#F2F2F2"/>
<path d="M222.069 345.354H116.21C100.332 345.354 87.4146 332.133 87.4146 315.883V29.4709C87.4146 13.2207 100.332 0 116.21 0H222.069C237.946 0 250.864 13.2207 250.864 29.4709C252.834 144.485 256.195 273.283 250.864 315.883C250.864 332.133 237.946 345.354 222.069 345.354Z" fill="#3F3D56"/>
<path d="M252.34 105.352C251.668 105.352 251.122 105.911 251.122 106.598V146.495C251.122 147.182 251.668 147.742 252.34 147.742C253.012 147.742 253.558 147.182 253.558 146.495V106.598C253.558 105.911 253.012 105.352 252.34 105.352Z" fill="#3F3D56"/>
<path d="M240.912 33.0667L248.123 315.878C248.123 330.022 237.367 341.592 223.766 342.49H223.76C223.559 342.502 223.358 342.515 223.151 342.521C222.791 342.54 222.432 342.546 222.066 342.546C222.066 342.546 220.726 342.446 218.278 342.259C215.805 342.072 212.205 341.792 207.716 341.424C206.37 341.318 204.951 341.2 203.453 341.075C200.468 340.826 197.191 340.551 193.677 340.24C192.276 340.121 190.826 339.99 189.346 339.859C181.781 339.192 173.309 338.413 164.374 337.528C162.863 337.384 161.341 337.235 159.806 337.079C159.404 337.035 90.1558 319.219 90.1558 315.878V29.471C90.1558 14.7405 101.82 2.80273 116.212 2.80273H131.768C134.254 2.80273 136.251 4.78508 136.465 7.32226C136.483 7.49058 136.501 7.65887 136.532 7.8272C136.982 10.3768 139.266 12.1535 141.8 12.1535H196.479C199.012 12.1535 201.297 10.3768 201.747 7.8272C201.778 7.65888 201.796 7.49059 201.814 7.32226C202.027 4.78509 204.025 2.80273 206.51 2.80273H222.066C236.459 2.80273 240.912 18.3362 240.912 33.0667Z" fill="white"/>
<path d="M86.8056 75.4297C86.1337 75.4297 85.5874 75.9888 85.5874 76.6765V86.6506C85.5874 87.3382 86.1337 87.8973 86.8056 87.8973C87.4774 87.8973 88.0237 87.3382 88.0237 86.6506V76.6765C88.0237 75.9889 87.4774 75.4297 86.8056 75.4297Z" fill="#3F3D56"/>
<path d="M86.8056 105.352C86.1337 105.352 85.5874 105.911 85.5874 106.598V125.923C85.5874 126.611 86.1337 127.17 86.8056 127.17C87.4774 127.17 88.0237 126.611 88.0237 125.923V106.598C88.0237 105.911 87.4774 105.352 86.8056 105.352Z" fill="#3F3D56"/>
<path d="M86.8056 132.78C86.1337 132.78 85.5874 133.339 85.5874 134.027V153.352C85.5874 154.039 86.1337 154.599 86.8056 154.599C87.4774 154.599 88.0237 154.039 88.0237 153.352V134.027C88.0237 133.339 87.4774 132.78 86.8056 132.78Z" fill="#3F3D56"/>
<path d="M131.368 7.16895H108.024C107.911 7.16895 107.819 7.26281 107.819 7.37859V10.0762C107.819 10.192 107.911 10.2859 108.024 10.2859H131.368C131.481 10.2859 131.573 10.192 131.573 10.0762V7.37859C131.573 7.26281 131.481 7.16895 131.368 7.16895Z" fill="#E6E6E6"/>
<path d="M210.36 10.2859C211.705 10.2859 212.796 9.16949 212.796 7.79236C212.796 6.41522 211.705 5.29883 210.36 5.29883C209.014 5.29883 207.923 6.41522 207.923 7.79236C207.923 9.16949 209.014 10.2859 210.36 10.2859Z" fill="#E6E6E6"/>
<path d="M217.059 10.2859C218.405 10.2859 219.496 9.16949 219.496 7.79236C219.496 6.41522 218.405 5.29883 217.059 5.29883C215.714 5.29883 214.623 6.41522 214.623 7.79236C214.623 9.16949 215.714 10.2859 217.059 10.2859Z" fill="#E6E6E6"/>
<path d="M223.76 10.2859C225.105 10.2859 226.196 9.16949 226.196 7.79236C226.196 6.41522 225.105 5.29883 223.76 5.29883C222.414 5.29883 221.323 6.41522 221.323 7.79236C221.323 9.16949 222.414 10.2859 223.76 10.2859Z" fill="#E6E6E6"/>
<path d="M385 345.458C385 345.772 384.752 346.026 384.445 346.026H0V344.891H384.445C384.752 344.891 385 345.145 385 345.458Z" fill="#E6E6E6"/>
<path d="M302.842 412.124L315.896 416.391L299.186 455.855L290.34 452.964L302.842 412.124Z" fill="#A0616A"/>
<path d="M305.046 443.604L299.835 443.934L298.81 446.688C298.81 446.688 298.933 443.083 293.45 440.134L291.764 442.533C291.764 442.533 288.556 444.275 287.164 449.159L283.876 462.409L288.246 464.007L292.251 455.461C292.251 455.461 294.195 453.928 296.127 465.596C296.127 465.596 301.597 469.535 312.178 469.997C313.633 470.061 314.989 469.181 315.494 467.783C315.772 467.012 315.745 466.187 314.9 465.564C312.748 463.976 310.103 463.88 309.29 461.318C308.476 458.755 305.046 443.604 305.046 443.604Z" fill="#2F2E41"/>
<path d="M212.341 405.237L199.066 408.713L213.485 449.113L222.481 446.758L212.341 405.237Z" fill="#A0616A"/>
<path d="M208.337 436.531L213.52 437.173L214.386 439.984C214.386 439.984 214.47 436.378 220.113 433.763L221.658 436.259C221.658 436.259 224.761 438.191 225.87 443.149L228.393 456.574L223.939 457.907L220.431 449.135C220.431 449.135 218.578 447.488 215.981 459.02C215.981 459.02 210.295 462.624 199.705 462.45C198.249 462.426 196.945 461.467 196.522 460.041C196.288 459.254 196.363 458.433 197.242 457.861C199.481 456.406 202.127 456.468 203.086 453.959C204.045 451.45 208.337 436.531 208.337 436.531Z" fill="#2F2E41"/>
<path d="M245.034 243.19H280.487V189.576H245.034V243.19Z" fill="#2F2E41"/>
<path d="M274.402 280.829L273.343 309.532L238.42 306.824L242.653 278.663L274.402 280.829Z" fill="#A0616A"/>
<path d="M235.774 296.534L286.043 298.159L298.589 316.33L292.769 348.282C292.769 348.282 267.523 340.942 225.721 349.607L228.366 319.821L236.437 311.562L235.774 296.534Z" fill="#2F2E41"/>
<path d="M290.276 318.197L304.034 324.154C304.034 324.154 329.962 336.069 331.549 352.316C333.137 368.563 314.25 429.218 314.25 429.218L293.521 430.487C293.521 430.487 299.682 434.874 299.682 404.774C299.682 383.824 308.796 363.689 308.796 363.689C308.796 363.689 295.568 338.777 261.702 344.734C261.702 344.734 224.697 343.506 207.235 366.252C207.235 366.252 216.48 386.527 217.14 398.692L219.874 425.024L202.412 426.649C202.412 426.649 177.039 357.19 188.151 343.109C199.263 329.029 223.075 320.905 223.075 320.905L290.276 318.197Z" fill="#2F2E41"/>
<path d="M272.529 226.842L271.288 211.486H254.779L251.12 227.756L272.529 226.842Z" fill="#A0616A"/>
<path opacity="0.1" d="M272.529 226.842L271.288 211.486H254.779L251.12 227.756L272.529 226.842Z" fill="black"/>
<path d="M278.479 197.904C278.479 208.104 270.4 216.373 260.434 216.373C250.468 216.373 242.389 208.104 242.389 197.904C242.389 187.704 250.468 179.436 260.434 179.436C270.4 179.436 278.479 187.704 278.479 197.904Z" fill="#A0616A"/>
<path d="M251.119 224.507H272.285L274.931 230.464L277.577 290.578C277.577 290.578 257.469 285.704 240.007 286.245L244.24 231.547L249.532 228.298L251.119 224.507Z" fill="#554DDE"/>
<path d="M271.227 346.9C271.227 346.9 281.81 322.53 286.043 321.989C290.276 321.447 299.828 321.989 299.828 321.989L297.684 318.198C297.684 318.198 297.155 310.616 291.864 310.616C286.572 310.616 288.689 232.63 288.689 232.63L273.867 228.068C273.867 228.068 265.406 254.835 265.406 280.288C265.406 305.742 264.348 333.903 264.348 333.903L271.227 346.9Z" fill="#2F2E41"/>
<path d="M250.141 226.843L231.541 232.089L233.658 306.825L221.487 321.988C221.487 321.988 237.362 321.988 241.066 335.527C241.066 335.527 245.459 342.93 250.141 342.207C254.823 341.485 251.649 326.321 251.649 326.321L246.886 307.366L247.415 275.414L250.141 226.843Z" fill="#2F2E41"/>
<path d="M255.882 178.474C255.882 178.474 255.882 170.892 262.761 172.516C269.64 174.141 271.756 176.849 271.756 176.849C271.756 176.849 274.402 181.181 278.635 181.723C282.868 182.264 286.572 194.72 286.043 197.428C285.514 200.136 282.868 207.176 286.572 210.426C290.276 213.675 295.568 218.549 293.98 223.423C292.393 228.297 287.63 240.753 287.63 240.753C287.63 240.753 300.913 242.741 299.828 251.224C299.828 251.224 293.451 246.169 284.985 246.169C276.518 246.169 277.577 230.449 277.577 230.449C277.577 230.449 277.048 220.716 275.46 218.008C273.873 215.3 275.989 200.136 268.052 192.013C260.115 183.889 255.882 178.474 255.882 178.474Z" fill="#2F2E41"/>
<path d="M257.999 176.849C257.999 176.849 247.945 179.015 244.241 189.305C240.537 199.594 242.408 201.509 242.408 201.509C242.408 201.509 241.589 207.705 237.094 209.878C232.6 212.05 236.304 221.257 236.304 221.257C236.304 221.257 235.245 230.463 220.959 233.713C206.672 236.962 209.846 255.917 209.846 255.917C209.846 255.917 221.488 239.129 236.304 238.587C251.12 238.045 248.474 221.257 248.474 221.257L246.887 203.385C246.887 203.385 250.061 182.806 259.586 180.098C269.111 177.39 257.999 176.849 257.999 176.849Z" fill="#2F2E41"/>
<path d="M272.353 348.212C271.933 353.25 274.133 357.556 277.266 357.829C280.399 358.101 283.278 354.238 283.697 349.198C283.891 347.187 283.612 345.157 282.883 343.279L284.396 321.909L274.583 321.396L274.133 342.518C273.103 344.243 272.493 346.196 272.353 348.212Z" fill="#A0616A"/>
<path d="M234.254 348.754C233.835 353.792 236.035 358.098 239.168 358.371C242.301 358.643 245.18 354.78 245.599 349.74C245.793 347.729 245.514 345.699 244.785 343.821L246.298 322.451L236.484 321.938L236.034 343.06C235.005 344.785 234.395 346.738 234.254 348.754Z" fill="#A0616A"/>
<path d="M284.72 232.901C284.72 232.901 297.949 229.11 300.594 237.775C303.24 246.44 295.038 294.098 295.038 294.098L287.366 343.921L270.962 340.672L281.545 274.06L284.72 232.901Z" fill="#2F2E41"/>
<path d="M244.878 232.191C244.878 232.191 232.059 227.138 228.625 235.509C225.192 243.88 228.959 292.117 228.959 292.117L231.999 342.46L248.629 340.811L244.241 273.473L244.878 232.191Z" fill="#2F2E41"/>
<path d="M163.669 201.349H55.3436C50.9827 201.349 47.4351 197.718 47.4351 193.255V109.42C47.4351 104.957 50.9827 101.326 55.3436 101.326H163.669C168.03 101.326 171.577 104.957 171.577 109.42V193.255C171.577 197.718 168.03 201.349 163.669 201.349Z" fill="white"/>
<path d="M163.669 201.349H55.3436C50.9827 201.349 47.4351 197.718 47.4351 193.255V109.42C47.4351 104.957 50.9827 101.326 55.3436 101.326H163.669C168.03 101.326 171.577 104.957 171.577 109.42V193.255C171.577 197.718 168.03 201.349 163.669 201.349ZM55.3436 102.678C51.7111 102.678 48.7557 105.703 48.7557 109.42V193.255C48.7557 196.973 51.7111 199.998 55.3436 199.998H163.669C167.301 199.998 170.257 196.973 170.257 193.255V109.42C170.257 105.703 167.301 102.678 163.669 102.678H55.3436Z" fill="#3F3D56"/>
<path d="M151.768 111.463C152.862 111.463 153.749 110.555 153.749 109.436C153.749 108.316 152.862 107.408 151.768 107.408C150.674 107.408 149.787 108.316 149.787 109.436C149.787 110.555 150.674 111.463 151.768 111.463Z" fill="#3F3D56"/>
<path d="M157.05 111.463C158.144 111.463 159.031 110.555 159.031 109.436C159.031 108.316 158.144 107.408 157.05 107.408C155.956 107.408 155.069 108.316 155.069 109.436C155.069 110.555 155.956 111.463 157.05 111.463Z" fill="#3F3D56"/>
<path d="M162.333 111.463C163.427 111.463 164.314 110.555 164.314 109.436C164.314 108.316 163.427 107.408 162.333 107.408C161.239 107.408 160.352 108.316 160.352 109.436C160.352 110.555 161.239 111.463 162.333 111.463Z" fill="#3F3D56"/>
<path d="M58.6609 142.214C58.1147 142.214 57.6704 142.669 57.6704 143.228C57.6704 143.5 57.7733 143.752 57.96 143.938C58.1483 144.136 58.3949 144.241 58.6609 144.241H161.012C161.559 144.241 162.003 143.787 162.003 143.228C162.003 142.955 161.9 142.703 161.713 142.517C161.525 142.319 161.278 142.214 161.012 142.214H58.6609Z" fill="#E6E6E6"/>
<path d="M142.523 141.876V144.579H58.6605C58.2973 144.579 57.9672 144.431 57.7295 144.181C57.4851 143.937 57.3398 143.599 57.3398 143.228C57.3398 142.484 57.9342 141.876 58.6605 141.876H142.523Z" fill="#554DDE"/>
<path d="M159.361 136.807H146.155C144.698 136.807 143.513 135.595 143.513 134.104C143.513 132.613 144.698 131.4 146.155 131.4H159.361C160.818 131.4 162.002 132.613 162.002 134.104C162.002 135.595 160.818 136.807 159.361 136.807Z" fill="#E6E6E6"/>
<path d="M72.8577 122.615H59.6511C58.1947 122.615 57.0098 121.402 57.0098 119.911C57.0098 118.42 58.1947 117.208 59.6511 117.208H72.8577C74.3141 117.208 75.4991 118.42 75.4991 119.911C75.4991 121.402 74.3141 122.615 72.8577 122.615Z" fill="#E6E6E6"/>
<path d="M58.6609 172.626C58.1147 172.626 57.6704 173.081 57.6704 173.64C57.6704 173.912 57.7733 174.164 57.96 174.351C58.1483 174.548 58.3949 174.653 58.6609 174.653H161.012C161.559 174.653 162.003 174.199 162.003 173.64C162.003 173.367 161.9 173.115 161.713 172.929C161.525 172.732 161.278 172.626 161.012 172.626H58.6609Z" fill="#E6E6E6"/>
<path d="M91.6771 172.288V174.991H58.6605C58.2973 174.991 57.9672 174.843 57.7295 174.593C57.4851 174.349 57.3398 174.011 57.3398 173.64C57.3398 172.896 57.9342 172.288 58.6605 172.288H91.6771Z" fill="#554DDE"/>
<path d="M159.361 167.22H146.155C144.698 167.22 143.513 166.008 143.513 164.517C143.513 163.026 144.698 161.813 146.155 161.813H159.361C160.818 161.813 162.002 163.026 162.002 164.517C162.002 166.008 160.818 167.22 159.361 167.22Z" fill="#E6E6E6"/>
</g>
<defs>
<clipPath id="clip0_46_651">
<rect width="385" height="470" fill="white"/>
</clipPath>
</defs>
</svg>
