<svg width="465" height="410" viewBox="0 0 465 410" fill="none" xmlns="http://www.w3.org/2000/svg">
<g clip-path="url(#clip0_46_710)">
<path d="M174.008 68.9132C187.689 82.4821 202.941 71.1219 217.558 70.2539C224.337 69.8514 231.102 71.7885 237.783 73.2336C244.125 74.6052 250.443 76.6001 256.24 80.0024C262.559 83.5807 267.934 89.1359 271.785 96.0688C272.55 97.4858 273.704 96.4395 273.695 94.7456C273.603 76.7582 267.042 78.2147 260.191 79.5413C253.678 80.8025 248.141 73.1418 241.714 71.4931C234.989 69.8891 228.192 68.741 221.356 68.0544C213.945 67.1823 206.516 66.5906 199.069 66.2794C190.718 65.9303 182.364 65.9343 174.008 66.2914C172.589 66.3512 172.582 68.9733 174.008 68.9132Z" fill="#3F3D56"/>
<path d="M127.862 213.617C128.058 213.866 128.164 214.195 128.159 214.534C128.154 214.874 128.038 215.198 127.835 215.438C127.633 215.678 127.359 215.816 127.073 215.822C126.786 215.828 126.509 215.702 126.299 215.47C117.259 206.285 108.22 197.106 99.1798 187.933C99.1694 187.919 99.157 187.907 99.143 187.898C98.5152 187.339 97.9214 186.729 97.366 186.072C88.9529 184.909 79.7067 181.064 70.947 179.395C63.2123 180.758 55.4998 182.384 47.7429 183.59C40.9846 184.703 34.1712 185.281 27.348 185.32C21.7958 185.285 23.4022 168.415 18.3661 165.304C13.131 162.07 2.63232 172.535 1.29035 165.998C0.627312 162.651 0.195764 159.246 0 155.816V134.502C0.715221 125.221 13.1826 128.084 19.1035 121.608C27.9884 111.89 31.0052 89.0928 42.375 88.8219C55.9245 88.4831 69.4783 89.1866 82.9509 90.928C93.9373 92.3612 105.491 93.7508 115.652 99.3001C120.01 101.686 124.117 115.485 127.118 119.968C130.543 125.205 132.481 131.593 132.655 138.216C133.193 152.277 127.796 165.141 124.839 178.416C122.273 189.908 120.828 203.838 127.862 213.617Z" fill="#F2F2F2"/>
<path d="M100.207 189.279C109.372 198.59 118.538 207.899 127.705 217.206C127.915 217.438 128.193 217.564 128.479 217.558C128.766 217.552 129.04 217.414 129.243 217.174C129.445 216.934 129.561 216.609 129.566 216.269C129.572 215.93 129.465 215.601 129.269 215.352C122.236 205.58 123.681 191.649 126.245 180.151C129.205 166.875 134.602 154.015 134.062 139.957C133.891 133.333 131.952 126.943 128.523 121.707C125.424 117.302 121.499 113.816 117.061 111.528C106.9 105.979 95.3485 104.583 84.3572 103.153C70.8862 101.41 57.334 100.706 43.7861 101.044C32.4129 101.321 19.1088 101.568 10.2244 111.288C2.13331 120.141 1.02819 134.063 1.10621 146.354C1.15141 153.476 1.26668 160.79 2.695 167.74C4.03766 174.273 6.94933 180.636 12.1861 183.869C17.2231 186.978 23.2073 187.027 28.7543 187.058C35.5774 187.024 42.3909 186.445 49.1482 185.324C62.6725 183.227 76.0678 179.84 89.7016 178.817C93.0379 178.566 96.3842 178.455 99.7269 178.538C101.151 178.573 101.151 175.951 99.7269 175.916C86.4705 175.588 73.3504 178.286 60.3075 180.743C47.6918 183.12 34.7953 185.36 21.99 184.158C19.1828 184.002 16.4226 183.245 13.843 181.924C11.3515 180.52 9.24342 178.315 7.75966 175.559C4.42595 169.405 3.79432 161.697 3.50635 154.518C3.17784 148.306 3.2265 142.073 3.65194 135.869C4.14325 129.853 5.32644 123.751 8.02918 118.557C14.1943 106.71 26.6593 101.781 37.2976 103.909C49.2775 106.305 58.4411 117.655 76.7216 104.9C82.46 100.897 89.9796 106.468 96.564 107.646C101.485 108.45 106.338 109.752 111.072 111.537C115.626 113.185 119.869 115.858 123.569 119.411C127.442 123.292 130.138 128.568 131.246 134.434C133.785 147.942 128.753 161.425 125.427 174.067C122.462 185.335 119.933 198.569 123.925 209.939C124.856 212.581 126.131 215.034 127.705 217.206L129.269 215.352C120.105 206.041 110.938 196.733 101.771 187.426C100.696 186.333 99.124 188.179 100.207 189.279Z" fill="#E6E6E6"/>
<path d="M61.1553 128.28H27.8123C27.5063 128.28 27.2129 128.136 26.9966 127.88C26.7802 127.624 26.6587 127.276 26.6587 126.913C26.6587 126.551 26.7802 126.203 26.9966 125.946C27.2129 125.69 27.5063 125.546 27.8123 125.546H61.1553C61.4613 125.546 61.7547 125.69 61.971 125.946C62.1874 126.203 62.3089 126.551 62.3089 126.913C62.3089 127.276 62.1874 127.624 61.971 127.88C61.7547 128.136 61.4613 128.28 61.1553 128.28Z" fill="white"/>
<path d="M61.1553 157.438H27.8123C27.6608 157.438 27.5108 157.402 27.3708 157.334C27.2309 157.265 27.1037 157.164 26.9966 157.037C26.8894 156.91 26.8045 156.76 26.7465 156.594C26.6885 156.428 26.6587 156.25 26.6587 156.07C26.6587 155.891 26.6885 155.713 26.7465 155.547C26.8045 155.381 26.8894 155.231 26.9966 155.104C27.1037 154.977 27.2309 154.876 27.3708 154.807C27.5108 154.738 27.6608 154.703 27.8123 154.703H61.1553C61.4613 154.703 61.7547 154.847 61.971 155.104C62.1874 155.36 62.3089 155.708 62.3089 156.07C62.3089 156.433 62.1874 156.781 61.971 157.037C61.7547 157.294 61.4613 157.438 61.1553 157.438Z" fill="white"/>
<path d="M88.2352 142.868H27.8123C27.5063 142.868 27.2129 142.724 26.9966 142.468C26.7802 142.211 26.6587 141.864 26.6587 141.501C26.6587 141.138 26.7802 140.791 26.9966 140.534C27.2129 140.278 27.5063 140.134 27.8123 140.134H88.2352C88.5411 140.134 88.8345 140.278 89.0509 140.534C89.2672 140.791 89.3888 141.138 89.3888 141.501C89.3888 141.864 89.2672 142.211 89.0509 142.468C88.8345 142.724 88.5411 142.868 88.2352 142.868Z" fill="white"/>
<path d="M164.729 280.035C164.925 280.283 165.031 280.612 165.026 280.951C165.021 281.291 164.905 281.615 164.702 281.855C164.5 282.095 164.226 282.233 163.94 282.239C163.653 282.245 163.376 282.119 163.166 281.887C154.126 272.703 145.087 263.523 136.047 254.35C136.036 254.336 136.024 254.324 136.01 254.315C135.382 253.757 134.788 253.146 134.233 252.489C125.82 251.327 116.574 247.481 107.814 245.812C100.079 247.175 90.8921 257.54 83.1352 258.746C76.3769 259.859 69.5635 260.438 62.7404 260.476C57.1882 260.442 58.7945 239.202 53.7585 236.091C48.5233 232.857 39.4993 238.952 38.1574 232.415C37.4716 229.085 34.0859 225.668 33.8647 222.234V200.919C34.58 191.638 39.7648 182.444 45.6856 175.968C54.5706 166.251 67.8722 165.997 79.242 165.726C92.7915 165.387 106.345 166.091 119.818 167.832C130.804 169.266 142.358 170.655 152.519 176.204C156.957 178.494 160.883 181.981 163.985 186.386C167.41 191.623 169.348 198.01 169.522 204.633C170.06 218.694 164.663 231.558 161.706 244.833C159.14 256.325 157.695 270.256 164.729 280.035Z" fill="#F2F2F2"/>
<path d="M137.074 255.697C146.239 265.008 155.405 274.317 164.572 283.624C164.782 283.856 165.06 283.982 165.347 283.976C165.633 283.97 165.907 283.832 166.11 283.592C166.312 283.352 166.429 283.027 166.434 282.687C166.439 282.348 166.332 282.019 166.137 281.77C159.103 271.998 160.548 258.067 163.112 246.569C166.073 233.293 171.47 220.433 170.929 206.375C170.758 199.751 168.819 193.361 165.39 188.125C162.291 183.72 158.366 180.234 153.928 177.946C143.768 172.397 132.216 171.001 121.224 169.571C107.753 167.828 94.2012 167.124 80.6533 167.462C69.2801 167.739 55.976 167.986 47.0916 177.706C39.0005 186.559 37.8954 200.481 37.9734 212.772C38.0186 219.894 38.1339 227.208 39.5622 234.158C40.9049 240.691 43.8165 247.054 49.0533 250.287C54.0903 253.396 60.0745 253.445 65.6215 253.476C72.4446 253.442 79.258 252.863 86.0154 251.742C99.5397 249.645 112.935 246.258 126.569 245.235C129.905 244.984 133.251 244.873 136.594 244.956C138.018 244.991 138.018 242.369 136.594 242.334C123.338 242.006 110.218 244.704 97.1747 247.161C84.559 249.537 71.6625 251.778 58.8572 250.576C56.05 250.42 53.2898 249.663 50.7101 248.342C48.2187 246.938 46.1106 244.733 44.6268 241.977C41.2931 235.823 40.6615 228.115 40.3735 220.936C40.045 214.724 40.0937 208.491 40.5191 202.286C41.0104 196.271 42.1936 190.169 44.8964 184.975C51.0615 173.128 65.1169 163.362 74.1648 170.327C84.5024 178.285 97.7236 178.629 113.589 171.318C119.795 168.459 126.847 172.886 133.431 174.064C138.352 174.868 143.206 176.17 147.939 177.955C152.493 179.603 156.737 182.276 160.437 185.829C164.309 189.71 167.005 194.986 168.113 200.852C170.652 214.36 165.62 227.843 162.294 240.485C159.33 251.753 156.801 264.987 160.792 276.357C161.723 278.999 162.999 281.452 164.572 283.624L166.137 281.77C156.972 272.459 147.806 263.151 138.638 253.843C137.563 252.751 135.991 254.597 137.074 255.697Z" fill="#E6E6E6"/>
<path d="M98.0225 194.698H64.6795C64.3735 194.698 64.0801 194.554 63.8637 194.298C63.6474 194.042 63.5259 193.694 63.5259 193.331C63.5259 192.969 63.6474 192.621 63.8637 192.364C64.0801 192.108 64.3735 191.964 64.6795 191.964H98.0225C98.3285 191.964 98.6219 192.108 98.8382 192.364C99.0546 192.621 99.1761 192.969 99.1761 193.331C99.1761 193.694 99.0546 194.042 98.8382 194.298C98.6219 194.554 98.3285 194.698 98.0225 194.698Z" fill="white"/>
<path d="M98.0225 223.856H64.6795C64.3735 223.856 64.0801 223.712 63.8637 223.455C63.6474 223.199 63.5259 222.851 63.5259 222.488C63.5259 222.126 63.6474 221.778 63.8637 221.522C64.0801 221.265 64.3735 221.121 64.6795 221.121H98.0225C98.3285 221.121 98.6219 221.265 98.8382 221.522C99.0546 221.778 99.1761 222.126 99.1761 222.488C99.1761 222.851 99.0546 223.199 98.8382 223.455C98.6219 223.712 98.3285 223.856 98.0225 223.856Z" fill="white"/>
<path d="M125.102 209.286H64.6795C64.3735 209.286 64.0801 209.142 63.8637 208.886C63.6474 208.629 63.5259 208.282 63.5259 207.919C63.5259 207.556 63.6474 207.209 63.8637 206.952C64.0801 206.696 64.3735 206.552 64.6795 206.552H125.102C125.408 206.552 125.702 206.696 125.918 206.952C126.134 207.209 126.256 207.556 126.256 207.919C126.256 208.282 126.134 208.629 125.918 208.886C125.702 209.142 125.408 209.286 125.102 209.286Z" fill="white"/>
<path d="M346.478 328.517H253.297C252.442 328.517 251.622 328.115 251.017 327.398C250.413 326.681 250.073 325.709 250.073 324.696C250.073 323.683 250.413 322.711 251.017 321.994C251.622 321.278 252.442 320.875 253.297 320.875H346.478C347.333 320.875 348.153 321.278 348.757 321.994C349.362 322.711 349.702 323.683 349.702 324.696C349.702 325.709 349.362 326.681 348.757 327.398C348.153 328.115 347.333 328.517 346.478 328.517Z" fill="#F2F2F2"/>
<path d="M346.478 410H253.297C252.442 410 251.622 409.598 251.017 408.881C250.413 408.165 250.073 407.193 250.073 406.179C250.073 405.166 250.413 404.194 251.017 403.478C251.622 402.761 252.442 402.358 253.297 402.358H346.478C347.333 402.358 348.153 402.761 348.757 403.478C349.362 404.194 349.702 405.166 349.702 406.179C349.702 407.193 349.362 408.165 348.757 408.881C348.153 409.598 347.333 410 346.478 410Z" fill="#F2F2F2"/>
<path d="M422.155 369.286H253.297C252.873 369.286 252.454 369.188 252.062 368.996C251.67 368.805 251.314 368.523 251.014 368.169C250.714 367.814 250.477 367.392 250.314 366.928C250.152 366.464 250.068 365.967 250.068 365.465C250.068 364.962 250.152 364.465 250.314 364.001C250.477 363.537 250.714 363.116 251.014 362.761C251.314 362.406 251.67 362.124 252.062 361.933C252.454 361.741 252.873 361.643 253.297 361.644H422.155C423.009 361.645 423.828 362.048 424.431 362.765C425.035 363.481 425.374 364.452 425.374 365.465C425.374 366.477 425.035 367.448 424.431 368.164C423.828 368.881 423.009 369.284 422.155 369.286Z" fill="#F2F2F2"/>
<path d="M200.704 364.995L205.998 370.9L228.162 348.971L220.349 340.256L200.704 364.995Z" fill="#FFB6B6"/>
<path d="M210.342 390.53L207.401 374.272L210.966 369.783L209.047 367.88L203.088 361.994L201.63 360.547L187.922 375.16L191.895 379.587L196.131 375.935L194.413 382.4L204.937 394.142C205.441 394.704 206.084 395.061 206.772 395.16C207.46 395.259 208.156 395.095 208.76 394.692C209.363 394.288 209.843 393.667 210.127 392.918C210.412 392.17 210.487 391.333 210.342 390.53Z" fill="#2F2E41"/>
<path d="M174.898 387.83L182.085 389.125L189.812 356.153L179.205 354.242L174.898 387.83Z" fill="#FFB6B6"/>
<path d="M195.071 402.352L184.856 390.954L185.638 384.859L183.146 384.585L175.421 383.755L173.528 383.546L169.252 404.802L174.645 405.769L176.38 399.912L178.064 406.389L192.353 408.964C193.038 409.087 193.739 408.948 194.352 408.566C194.966 408.184 195.46 407.58 195.763 406.842C196.067 406.104 196.163 405.27 196.039 404.462C195.914 403.654 195.575 402.915 195.071 402.352Z" fill="#2F2E41"/>
<path d="M244.038 153.604L264.649 197.356C264.649 197.356 263.789 287.338 266.528 290.676C269.267 294.013 271.747 297.007 269.267 296.98C266.787 296.953 267.588 318.239 267.588 318.239L221.872 360.187L210.812 349.7L238.559 309.108L223.236 226.018C223.236 226.018 212.227 304.595 210.243 306.947C208.259 309.298 207.062 309.281 209.148 311.641C211.235 314.001 209.148 319.339 209.148 319.339L187.399 372.841L175.601 371.077C175.601 371.077 177.646 327.4 184.768 308.649V220.038C184.232 227.635 209.324 150.74 193.98 156.511C198.835 154.686 244.038 153.604 244.038 153.604Z" fill="#2F2E41"/>
<path d="M234.584 49.3379H217.545L215.133 60.7747L202.032 65.0684C202.032 65.0684 195.552 116 200.994 120.109C206.436 124.217 202.641 137.068 202.641 137.068C202.641 137.068 189.088 154.416 190.715 156.986C192.341 159.557 195.641 155.646 191.822 160.171C188.004 164.697 185.836 164.054 186.92 165.339C187.59 166.155 188.11 167.126 188.446 168.193L183.77 182.624C183.77 182.624 208.605 188.471 221.074 180.118C233.542 171.765 261.191 187.828 261.191 187.828C261.191 187.828 259.769 179.394 258.582 178.15C257.396 176.905 254.63 180.052 256.555 175.908C258.48 171.765 260.106 173.692 258.48 171.765C256.854 169.837 249.806 144.136 249.806 144.136C249.806 144.136 244.385 130 250.348 124.217C256.312 118.434 258.582 99.4664 258.582 99.4664L251.434 65.0684L239.506 61.8905L234.584 49.3379Z" fill="#E6E6E6"/>
<path d="M167.136 180.658L171.228 161.217L162.184 156.896L158.474 177.633C157.628 178.376 156.973 179.383 156.583 180.542C156.194 181.701 156.084 182.966 156.268 184.195C156.451 185.424 156.921 186.567 157.622 187.497C158.324 188.427 159.231 189.107 160.241 189.46C161.251 189.812 162.324 189.824 163.339 189.494C164.354 189.163 165.272 188.504 165.988 187.589C166.704 186.675 167.191 185.542 167.394 184.317C167.597 183.093 167.507 181.826 167.136 180.658Z" fill="#FFB6B6"/>
<path d="M206.887 63.7686L206.617 63.7136C204.106 63.2023 201.528 63.4241 199.106 64.3597C196.684 65.2953 194.49 66.9166 192.716 69.0832C188.083 74.7321 167.403 116.742 168.148 123.763C168.842 130.311 169.109 128.854 166.583 132.198C164.057 135.541 163.095 130.45 163.056 137.41C163.017 144.37 165.261 144.31 162.876 146.011C160.491 147.713 158.914 146.528 159.35 151.224C159.785 155.92 159.119 157.166 158.977 158.807C158.836 160.448 155.412 170.98 155.412 170.98C155.412 170.98 165.49 174.187 169.554 178.99C169.554 178.99 170.017 167.106 172.068 166.027C174.12 164.948 176.03 165.51 175.454 162.456C174.877 159.401 171.915 158.048 175.544 158.155C179.172 158.262 184.777 135.391 184.777 135.391L209.012 82.9827L206.887 63.7686Z" fill="#E6E6E6"/>
<path d="M261.58 190.289L262.308 170.271L272.015 169.168L270.609 190.3C271.243 191.297 271.63 192.483 271.727 193.725C271.823 194.968 271.625 196.218 271.155 197.334C270.685 198.451 269.961 199.39 269.066 200.046C268.17 200.702 267.138 201.048 266.085 201.047C265.032 201.046 264.001 200.696 263.106 200.038C262.212 199.38 261.49 198.439 261.022 197.322C260.554 196.204 260.358 194.954 260.457 193.711C260.555 192.469 260.944 191.284 261.58 190.289Z" fill="#FFB6B6"/>
<path d="M251.433 64.8359L251.705 64.8739C254.236 65.2277 256.655 66.3071 258.754 68.0186C260.853 69.7301 262.568 72.0221 263.751 74.6963C266.842 81.6706 276.619 128.907 274.225 135.39C271.992 141.435 272.085 139.949 273.707 144.004C275.329 148.059 277.47 143.5 275.841 150.188C274.213 156.875 272.076 156.063 273.955 158.496C275.835 160.93 277.631 160.323 276.09 164.68C274.548 169.037 274.889 170.456 274.632 172.077C274.375 173.699 275.138 184.948 275.138 184.948C275.138 184.948 264.706 184.636 259.66 187.875C259.66 187.875 262.06 176.324 260.351 174.6C258.642 172.875 256.675 172.773 257.959 170.037C259.243 167.302 262.407 167 258.902 165.883C255.397 164.765 255.496 140.949 255.496 140.949L244.797 82.5464L251.433 64.8359Z" fill="#E6E6E6"/>
<path d="M187.349 35.8437C187.214 42.737 189.388 49.4117 192.51 55.2743C193.553 51.8702 195.014 48.6668 196.845 45.7674C195.968 52.1911 196.902 58.7782 199.502 64.5094C199.594 64.5871 199.689 64.6593 199.787 64.7256C202.332 66.5402 205.559 67.2752 208.312 65.9646C202.623 58.6966 201.899 46.6547 206.669 38.5025C208.019 36.1893 209.765 34.1435 210.602 31.511C211.922 27.3107 210.653 22.6862 209.852 18.307C209.103 14.2312 208.972 9.38109 211.279 6.39411C211.033 5.97668 210.697 5.64441 210.307 5.43134C209.916 5.21827 209.485 5.13207 209.057 5.18156C207.635 5.4197 206.6 6.88507 205.94 8.39432C205.281 9.90352 204.846 11.5763 203.927 12.8798C202.225 15.3197 199.327 15.8966 196.884 17.1825C190.969 20.3051 187.491 28.1733 187.349 35.8437Z" fill="#2F2E41"/>
<path d="M237.139 31.9023C236.801 30.5001 239.13 39.0713 238.006 39.2261C232.886 39.9223 225.857 43.5467 222.291 45.2376C222.13 45.2155 221.969 45.1934 221.813 45.1658C221.431 45.116 221.058 45.0442 220.689 44.9613C212.385 43.0991 209.192 27.9804 209.192 27.8422C209.192 27.1626 210.568 8.49509 212.736 8.2188C213.306 8.14557 213.878 8.10868 214.451 8.10828H219.831C220.944 7.82395 222.073 7.63009 223.208 7.52808H223.218C234.049 6.55001 242.589 14.3745 241.791 23.8954C241.786 23.9065 241.777 23.9175 241.772 23.9286C241.541 24.3375 241.337 24.7243 241.158 25.0945C240.983 25.4427 240.837 25.7742 240.709 26.0892C239.722 28.5205 242.26 31.5799 240.577 32.151C238.339 32.9105 246.463 57.8735 237.605 57.8735C241.914 59.3255 238.071 35.7703 237.139 31.9023Z" fill="#2F2E41"/>
<path d="M227.47 46.5498C234.505 46.5498 240.208 39.7903 240.208 31.4521C240.208 23.1139 234.505 16.3545 227.47 16.3545C220.435 16.3545 214.731 23.1139 214.731 31.4521C214.731 39.7903 220.435 46.5498 227.47 46.5498Z" fill="#FFB6B6"/>
<path d="M241.791 24.7191C241.579 24.8517 241.371 24.9733 241.158 25.0949C240.936 25.222 240.714 25.3491 240.492 25.4651C236.227 27.7583 232.755 28.0125 230.648 24.7191C230.592 22.9862 230.263 21.281 229.68 19.6907C229.783 21.4679 229.388 23.2356 228.556 24.7191H224.314C219.945 28.1562 217.701 28.5154 220.733 39.799C221.579 42.9432 224.941 61.239 223.618 63.9522C223.236 63.9025 219.165 43.8628 218.797 43.78C210.493 41.9178 205.217 25.7027 205.892 24.7855C205.889 22.177 206.395 19.603 207.37 17.2649C208.605 14.3026 210.529 11.8214 212.916 10.1145C214.339 9.29692 215.822 8.63656 217.347 8.1418C217.384 8.13074 217.417 8.11967 217.455 8.10864C217.923 7.95943 218.4 7.82129 218.877 7.70524C219.863 7.45859 220.859 7.27963 221.862 7.16926C221.933 7.16373 222.004 7.1582 222.07 7.1582C222.471 7.15931 222.864 7.28712 223.209 7.52843C223.213 7.52843 223.213 7.53394 223.218 7.53394C223.464 7.70463 223.68 7.93196 223.851 8.20257C224.153 8.65788 224.316 9.22061 224.314 9.79954H229.037C229.212 9.79954 229.387 9.80505 229.562 9.81608C232.714 9.94378 235.713 11.4612 237.972 14.0715C240.23 16.6817 241.585 20.1968 241.772 23.929C241.786 24.1942 241.791 24.4538 241.791 24.7191Z" fill="#2F2E41"/>
<path d="M213.94 19.8928C218.575 19.8928 222.332 15.4397 222.332 9.94641C222.332 4.45316 218.575 0 213.94 0C209.305 0 205.548 4.45316 205.548 9.94641C205.548 15.4397 209.305 19.8928 213.94 19.8928Z" fill="#2F2E41"/>
<path d="M293.679 309.625C294.022 309.643 294.361 309.537 294.651 309.319C294.941 309.102 295.168 308.784 295.3 308.409C295.432 308.033 295.464 307.619 295.391 307.222C295.318 306.824 295.144 306.463 294.892 306.187L294.777 305.647C294.792 305.604 294.808 305.56 294.823 305.517C295.168 304.551 295.747 303.726 296.486 303.148C297.225 302.57 298.092 302.264 298.977 302.268C299.863 302.272 300.728 302.586 301.464 303.17C302.199 303.755 302.772 304.584 303.112 305.554C304.467 309.424 306.193 313.3 306.618 317.392C306.805 319.2 306.726 321.034 306.385 322.81C309.569 314.578 311.222 305.631 311.233 296.575C311.234 294.302 311.127 292.031 310.914 289.773C310.738 287.922 310.493 286.083 310.181 284.258C308.474 274.356 304.81 265.074 299.489 257.176C296.914 255.511 294.831 252.95 293.522 249.838C293.047 248.72 292.712 247.526 292.526 246.293C292.817 246.338 293.622 241.095 293.403 240.773C293.807 240.045 294.532 239.683 294.974 238.972C297.173 235.439 300.203 236.056 301.784 240.858C305.163 242.879 305.196 246.231 303.123 249.454C301.804 251.505 301.623 254.28 300.465 256.476C300.584 256.657 300.708 256.832 300.827 257.012C303.004 260.329 304.901 263.891 306.491 267.647C306.104 263.439 306.566 259.183 307.837 255.229C309.126 251.543 311.543 248.439 313.67 245.253C314.233 244.397 314.997 243.758 315.866 243.417C316.735 243.075 317.67 243.047 318.553 243.336C319.435 243.624 320.226 244.216 320.825 245.037C321.423 245.858 321.803 246.871 321.917 247.947C321.921 247.994 321.925 248.041 321.929 248.088C321.613 248.3 321.304 248.524 321.001 248.761C320.621 249.062 320.326 249.492 320.156 249.995C319.986 250.498 319.947 251.051 320.046 251.58C320.145 252.109 320.377 252.59 320.71 252.961C321.044 253.332 321.464 253.574 321.916 253.657L321.963 253.665C321.85 255.015 321.651 256.353 321.367 257.667C324.097 270.178 318.204 274.735 309.79 274.939C309.604 275.052 309.423 275.165 309.238 275.272C310.835 280.639 311.837 286.228 312.219 291.901C312.435 295.248 312.422 298.61 312.181 301.954L312.195 301.835C312.805 298.117 314.478 294.761 316.934 292.336C320.58 288.785 325.732 287.478 329.666 284.624C330.084 284.306 330.57 284.136 331.067 284.135C331.564 284.133 332.051 284.3 332.47 284.616C332.89 284.932 333.224 285.383 333.434 285.917C333.644 286.45 333.721 287.044 333.656 287.628L333.64 287.752C333.054 288.035 332.483 288.362 331.93 288.729C331.614 288.94 331.305 289.164 331.002 289.402C330.622 289.703 330.327 290.133 330.157 290.636C329.987 291.139 329.948 291.691 330.047 292.22C330.146 292.75 330.378 293.231 330.711 293.602C331.045 293.972 331.465 294.215 331.917 294.297L331.964 294.306C331.997 294.311 332.026 294.317 332.059 294.323C331.057 297.158 329.651 299.768 327.901 302.039C326.195 312.96 318.865 313.996 311.023 310.816H311.019C310.158 315.247 308.912 319.56 307.299 323.685H294.012C293.965 323.51 293.922 323.33 293.879 323.155C295.109 323.246 296.343 323.159 297.555 322.895C296.57 321.461 295.584 320.016 294.598 318.583C294.576 318.556 294.555 318.528 294.536 318.498C294.036 317.764 293.531 317.036 293.031 316.302L293.031 316.302C293.004 314.052 293.222 311.808 293.679 309.625Z" fill="#F2F2F2"/>
<path d="M99.522 408.811C99.5216 408.948 99.5441 409.084 99.5881 409.21C99.632 409.336 99.6967 409.451 99.7782 409.548C99.8598 409.644 99.9566 409.721 100.063 409.773C100.17 409.825 100.284 409.852 100.399 409.851H464.123C464.355 409.851 464.579 409.742 464.743 409.547C464.908 409.352 465 409.087 465 408.811C465 408.536 464.908 408.271 464.743 408.076C464.579 407.881 464.355 407.771 464.123 407.771H100.399C100.284 407.771 100.17 407.798 100.063 407.85C99.9567 407.902 99.8598 407.979 99.7782 408.075C99.6967 408.172 99.6321 408.287 99.5881 408.413C99.5441 408.539 99.5216 408.675 99.522 408.811Z" fill="#CCCCCC"/>
<path d="M264.227 185.656C265.253 186.938 263.698 188.605 262.502 187.505C252.522 178.335 242.542 169.171 232.562 160.012C232.55 159.998 232.537 159.986 232.521 159.977C231.833 159.424 231.177 158.814 230.56 158.154C221.272 156.993 211.064 153.154 201.393 151.487C192.854 152.849 184.34 154.471 175.776 155.676C168.307 156.788 160.788 157.365 153.261 157.403C147.131 157.368 140.53 157.325 134.97 154.218C129.19 150.99 125.975 144.638 124.493 138.112C123.763 134.781 123.286 131.379 123.069 127.947V106.666C123.858 97.3993 126.268 88.2203 132.805 81.7549C142.613 72.0524 157.298 71.7994 169.85 71.5289C184.804 71.1904 199.761 71.8926 214.646 73.6317C226.775 75.0626 239.53 76.4499 250.747 81.9905C255.558 84.3725 260.092 87.6794 263.405 92.1555C267.133 97.2263 269.29 103.653 269.518 110.374C270.113 124.413 264.154 137.256 260.89 150.51C258.057 161.984 256.462 175.892 264.227 185.656Z" fill="#554DDE"/>
<path d="M190.19 95.0715H156.847C156.695 95.0715 156.545 95.0361 156.405 94.9674C156.266 94.8987 156.138 94.798 156.031 94.671C155.924 94.544 155.839 94.3933 155.781 94.2274C155.723 94.0615 155.693 93.8838 155.693 93.7042C155.693 93.5246 155.723 93.3469 155.781 93.181C155.839 93.0151 155.924 92.8643 156.031 92.7374C156.138 92.6104 156.266 92.5097 156.405 92.441C156.545 92.3723 156.695 92.3369 156.847 92.3369H190.19C190.496 92.3369 190.789 92.4809 191.006 92.7374C191.222 92.9938 191.344 93.3416 191.344 93.7042C191.344 94.0668 191.222 94.4146 191.006 94.671C190.789 94.9274 190.496 95.0715 190.19 95.0715Z" fill="white"/>
<path d="M190.19 124.229H156.847C156.541 124.229 156.248 124.085 156.031 123.828C155.815 123.572 155.693 123.224 155.693 122.861C155.693 122.499 155.815 122.151 156.031 121.895C156.248 121.638 156.541 121.494 156.847 121.494H190.19C190.496 121.494 190.789 121.638 191.006 121.895C191.222 122.151 191.344 122.499 191.344 122.861C191.344 123.224 191.222 123.572 191.006 123.828C190.789 124.085 190.496 124.229 190.19 124.229Z" fill="white"/>
<path d="M217.27 109.659H156.847C156.541 109.659 156.248 109.515 156.031 109.259C155.815 109.002 155.693 108.655 155.693 108.292C155.693 107.929 155.815 107.582 156.031 107.325C156.248 107.069 156.541 106.925 156.847 106.925H217.27C217.576 106.925 217.869 107.069 218.086 107.325C218.302 107.582 218.423 107.929 218.423 108.292C218.423 108.655 218.302 109.002 218.086 109.259C217.869 109.515 217.576 109.659 217.27 109.659Z" fill="white"/>
<path d="M271.786 96.0687C274.876 101.913 276.624 108.641 276.089 115.575C275.627 121.558 273.556 127.185 271.293 132.487C268.947 137.982 266.32 143.318 264.402 149.056C262.295 155.309 261.517 162.08 262.135 168.774C262.514 173.12 263.254 177.407 263.951 181.692L266.079 194.775L267.927 193.5L237.344 162.163C236.272 161.064 234.701 162.911 235.78 164.017L266.363 195.354C266.539 195.549 266.762 195.672 267.001 195.704C267.24 195.736 267.481 195.676 267.689 195.533C267.897 195.389 268.06 195.17 268.154 194.908C268.248 194.646 268.268 194.355 268.212 194.078C266.962 186.392 265.485 178.701 264.569 170.947C264.043 167.036 263.969 163.059 264.35 159.125C264.724 156.126 265.389 153.189 266.331 150.371C269.999 139.01 276.87 129.072 278.194 116.721C279.024 108.983 277.158 101.292 273.696 94.7454C272.941 93.3191 271.027 94.6335 271.786 96.0687Z" fill="#3F3D56"/>
<path d="M239.278 150.694L194.048 157.036L171.433 160.207C164.543 161.173 157.363 162.529 150.479 160.82C138.889 157.942 131.693 145.495 129.429 132.377C128.027 124.257 128.523 115.761 129.702 107.649C130.331 103.324 131.16 99.0443 132.057 94.7876C132.856 90.994 133.451 86.909 134.832 83.3381C135.933 80.4346 137.572 77.8622 139.627 75.812C141.682 73.7619 144.1 72.2865 146.702 71.4953C148.327 71.1006 149.974 70.842 151.629 70.7215C153.49 70.5003 155.351 70.2966 157.214 70.1105C160.94 69.7385 164.67 69.4372 168.405 69.2067C170.272 69.0914 172.14 68.9938 174.008 68.9139C175.427 68.8523 175.434 66.2302 174.008 66.2921C166.233 66.6294 158.474 67.2681 150.73 68.2083C147.574 68.5936 144.657 69.1503 141.809 70.9019C139.348 72.4275 137.187 74.5519 135.467 77.1362C133.704 79.8023 132.411 82.8608 131.664 86.1303C130.646 90.4746 129.723 94.8619 128.88 99.2583C127.181 108.12 125.96 117.254 126.527 126.365C127.366 139.84 132.809 154.216 143.372 160.632C149.61 164.42 156.728 164.59 163.564 163.866C171.187 163.06 178.788 161.798 186.388 160.732L233.442 154.134L239.278 153.316C240.674 153.12 240.691 150.496 239.278 150.694Z" fill="#3F3D56"/>
</g>
<defs>
<clipPath id="clip0_46_710">
<rect width="465" height="410" fill="white"/>
</clipPath>
</defs>
</svg>
