<svg width="54" height="54" viewBox="0 0 54 54" fill="none" xmlns="http://www.w3.org/2000/svg">
<path fill-rule="evenodd" clip-rule="evenodd" d="M45 2.25H9V33.75H45V2.25Z" fill="#554DDE"/>
<path fill-rule="evenodd" clip-rule="evenodd" d="M11.3437 37.6055L7.96875 48.8555L12.2798 50.147L15.6548 38.897L11.3437 37.6055ZM42.6548 37.6055L46.0298 48.8555L41.7188 50.147L38.3438 38.897L42.6548 37.6055Z" fill="#554DDE"/>
<path d="M2.25 40.5V23.625C2.25 22.1332 2.84263 20.7024 3.89752 19.6475C4.95242 18.5926 6.38316 18 7.875 18C9.36684 18 10.7976 18.5926 11.8525 19.6475C12.9074 20.7024 13.5 22.1332 13.5 23.625V31.5H40.5V23.625C40.5 22.1332 41.0926 20.7024 42.1475 19.6475C43.2024 18.5926 44.6332 18 46.125 18C47.6168 18 49.0476 18.5926 50.1025 19.6475C51.1574 20.7024 51.75 22.1332 51.75 23.625V40.5H2.25Z" fill="#8FBFFA"/>
</svg>
