<svg width="54" height="54" viewBox="0 0 54 54" fill="none" xmlns="http://www.w3.org/2000/svg">
<path d="M49.6294 38.0428C49.4027 40.4623 47.4505 42.2838 45.0248 42.4072C41.306 42.597 35.1668 42.8206 27.0005 42.8206C18.5895 42.8206 12.329 42.5822 8.64925 42.3903C6.3796 42.2722 4.51706 40.6553 4.25655 38.3983C4.0182 36.3321 3.79883 33.438 3.79883 29.7804V20.652C3.79883 17.1694 6.6053 14.3439 10.0878 14.3439C17.7858 14.3407 30.8964 14.3861 39.8263 14.6825C40.7586 14.7141 41.6804 14.9377 42.4588 15.4513C46.1374 17.8771 48.5822 21.9008 49.6273 23.8815C50.0302 24.6461 50.2063 25.5057 50.199 26.3695C50.1728 30.2669 49.9828 34.1614 49.6294 38.0428Z" fill="#8FBFFA"/>
<path d="M43.9169 25.4455C42.9361 23.623 41.2591 21.1107 38.9578 19.8061C38.7266 19.6791 38.4665 19.614 38.2027 19.6173C37.7496 19.6173 37.315 19.7973 36.9946 20.1177C36.6741 20.4382 36.4941 20.8728 36.4941 21.3259V25.9423C36.4941 26.92 37.167 27.7648 38.1373 27.885C39.2553 28.0221 40.8394 28.1329 42.569 27.9831C43.8346 27.8745 44.5191 26.5635 43.9169 25.4455Z" fill="white"/>
<path d="M31.2202 28.0548H17.5095H3.79883V16.4532C3.79883 13.3039 3.90746 10.8876 4.03507 9.12834C4.19855 6.88923 5.94297 5.21965 8.18414 5.08887C10.3019 4.96441 13.3699 4.85156 17.5095 4.85156C21.6491 4.85156 24.7171 4.96441 26.8349 5.08887C29.0761 5.21965 30.8205 6.88923 30.984 9.12834C31.1116 10.8876 31.2202 13.3039 31.2202 16.4532V28.0548Z" fill="white"/>
<path d="M32.2754 43.3477C32.2754 44.8862 32.8865 46.3616 33.9744 47.4495C35.0622 48.5373 36.5376 49.1485 38.0761 49.1485C39.6145 49.1485 41.0899 48.5373 42.1778 47.4495C43.2656 46.3616 43.8767 44.8862 43.8767 43.3477C43.8767 41.8092 43.2656 40.3338 42.1778 39.2459C41.0899 38.158 39.6145 37.5469 38.0761 37.5469C36.5376 37.5469 35.0622 38.158 33.9744 39.2459C32.8865 40.3338 32.2754 41.8092 32.2754 43.3477Z" fill="white"/>
<path d="M10.127 43.3477C10.127 44.8862 10.7381 46.3616 11.8259 47.4495C12.9138 48.5373 14.3892 49.1485 15.9276 49.1485C17.4661 49.1485 18.9415 48.5373 20.0293 47.4495C21.1172 46.3616 21.7283 44.8862 21.7283 43.3477C21.7283 41.8092 21.1172 40.3338 20.0293 39.2459C18.9415 38.158 17.4661 37.5469 15.9276 37.5469C14.3892 37.5469 12.9138 38.158 11.8259 39.2459C10.7381 40.3338 10.127 41.8092 10.127 43.3477Z" fill="white"/>
<path d="M3.82422 13.7584C4.07734 15.8678 6.01477 17.5079 8.36668 17.5079C10.8905 17.5079 12.9366 15.62 12.9366 13.2891C12.9366 15.62 14.9826 17.5079 17.5075 17.5079C20.0313 17.5079 22.0774 15.62 22.0774 13.2891C22.0774 15.62 24.1234 17.5079 26.6483 17.5079C29.0002 17.5079 30.9366 15.8678 31.1897 13.7584C31.1596 12.2135 31.09 10.6697 30.9809 9.12834C30.8185 6.88923 29.074 5.21965 26.8329 5.08887C24.714 4.96441 21.646 4.85156 17.5075 4.85156C13.3679 4.85156 10.2999 4.96441 8.18211 5.08887C5.94094 5.21965 4.19652 6.88923 4.03304 9.12834C3.92394 10.6697 3.85431 12.2135 3.82422 13.7584Z" fill="#8FBFFA"/>
<path d="M31.2051 14.4854C34.2752 14.5339 37.2272 14.5993 39.827 14.6857C40.7583 14.7163 41.68 14.9399 42.4584 15.4536C46.1371 17.8794 48.5818 21.9041 49.627 23.8837C50.0309 24.6484 50.206 25.5079 50.1986 26.3728C50.1564 31.3056 49.8854 35.306 49.6291 38.0451C49.4023 40.4635 47.4512 42.2849 45.0255 42.4083C44.6458 42.4284 44.2397 42.4474 43.8094 42.4674" stroke="#554DDE" stroke-width="3.37498" stroke-linecap="round" stroke-linejoin="round"/>
<path d="M32.3025 42.7891C28.7695 42.8327 25.2361 42.8327 21.7031 42.7891" stroke="#554DDE" stroke-width="3.37498" stroke-linecap="round" stroke-linejoin="round"/>
<path d="M10.1933 42.466L8.64819 42.3901C6.3796 42.2719 4.51706 40.6551 4.25655 38.3981C4.0182 36.3319 3.79883 33.4378 3.79883 29.7802V28.0547" stroke="#554DDE" stroke-width="3.37498" stroke-linecap="round" stroke-linejoin="round"/>
<path d="M43.9169 25.4455C42.9361 23.623 41.2591 21.1107 38.9578 19.8061C38.7266 19.6791 38.4665 19.614 38.2027 19.6173C37.7496 19.6173 37.315 19.7973 36.9946 20.1177C36.6741 20.4382 36.4941 20.8728 36.4941 21.3259V25.9423C36.4941 26.92 37.167 27.7648 38.1373 27.885C39.2553 28.0221 40.8394 28.1329 42.569 27.9831C43.8346 27.8745 44.5191 26.5635 43.9169 25.4455Z" stroke="#554DDE" stroke-width="3.37498" stroke-linecap="round" stroke-linejoin="round"/>
<path d="M31.2202 28.0548H17.5095H3.79883V16.4532C3.79883 13.3039 3.90746 10.8876 4.03507 9.12834C4.19855 6.88923 5.94297 5.21965 8.18414 5.08887C10.3019 4.96441 13.3699 4.85156 17.5095 4.85156C21.6491 4.85156 24.7171 4.96441 26.8349 5.08887C29.0761 5.21965 30.8205 6.88923 30.984 9.12834C31.1116 10.8876 31.2202 13.3039 31.2202 16.4532V28.0548Z" stroke="#554DDE" stroke-width="3.37498" stroke-linecap="round" stroke-linejoin="round"/>
<path d="M32.2754 43.3477C32.2754 44.8862 32.8865 46.3616 33.9744 47.4495C35.0622 48.5373 36.5376 49.1485 38.0761 49.1485C39.6145 49.1485 41.0899 48.5373 42.1778 47.4495C43.2656 46.3616 43.8767 44.8862 43.8767 43.3477C43.8767 41.8092 43.2656 40.3338 42.1778 39.2459C41.0899 38.158 39.6145 37.5469 38.0761 37.5469C36.5376 37.5469 35.0622 38.158 33.9744 39.2459C32.8865 40.3338 32.2754 41.8092 32.2754 43.3477Z" stroke="#554DDE" stroke-width="3.37498" stroke-linecap="round" stroke-linejoin="round"/>
<path d="M10.127 43.3477C10.127 44.8862 10.7381 46.3616 11.8259 47.4495C12.9138 48.5373 14.3892 49.1485 15.9276 49.1485C17.4661 49.1485 18.9415 48.5373 20.0293 47.4495C21.1172 46.3616 21.7283 44.8862 21.7283 43.3477C21.7283 41.8092 21.1172 40.3338 20.0293 39.2459C18.9415 38.158 17.4661 37.5469 15.9276 37.5469C14.3892 37.5469 12.9138 38.158 11.8259 39.2459C10.7381 40.3338 10.127 41.8092 10.127 43.3477Z" stroke="#554DDE" stroke-width="3.37498" stroke-linecap="round" stroke-linejoin="round"/>
<path d="M3.79883 13.2891C3.79883 15.6199 5.84488 17.5078 8.36871 17.5078C10.8936 17.5078 12.9396 15.6199 12.9396 13.2891C12.9396 15.6199 14.9857 17.5078 17.5095 17.5078C20.0333 17.5078 22.0794 15.6199 22.0794 13.2891C22.0794 15.6199 24.1255 17.5078 26.6503 17.5078C29.1741 17.5078 31.2202 15.6199 31.2202 13.2891" stroke="#554DDE" stroke-width="3.37498" stroke-linecap="round" stroke-linejoin="round"/>
<path d="M12.9395 13.2891V5.37891" stroke="#554DDE" stroke-width="3.37498" stroke-linecap="round" stroke-linejoin="round"/>
<path d="M22.0801 13.2891V5.37891" stroke="#554DDE" stroke-width="3.37498" stroke-linecap="round" stroke-linejoin="round"/>
</svg>
