<svg width="48" height="48" viewBox="0 0 48 48" fill="none" xmlns="http://www.w3.org/2000/svg">
<path d="M25.4531 31.6494V42.8869C25.4531 43.6577 25.7593 44.3969 26.3043 44.9419C26.8494 45.487 27.5886 45.7932 28.3594 45.7932H39.9844C40.7552 45.7932 41.4944 45.487 42.0394 44.9419C42.5844 44.3969 42.8906 43.6577 42.8906 42.8869V31.6494" stroke="#554DDE" stroke-width="1.5" stroke-linecap="round" stroke-linejoin="round"/>
<path d="M22.5469 34.191L31.3005 26.532C32.0951 25.8359 33.1155 25.4521 34.1719 25.4521C35.2283 25.4521 36.2487 25.8359 37.0433 26.532L45.7969 34.191" stroke="#554DDE" stroke-width="1.5" stroke-linecap="round" stroke-linejoin="round"/>
<path d="M37.0781 45.7969H31.2656V39.9844C31.2656 39.2136 31.5718 38.4744 32.1168 37.9293C32.6619 37.3843 33.4011 37.0781 34.1719 37.0781C34.9427 37.0781 35.6819 37.3843 36.2269 37.9293C36.7719 38.4744 37.0781 39.2136 37.0781 39.9844V45.7969Z" stroke="#554DDE" stroke-width="1.5" stroke-linecap="round" stroke-linejoin="round"/>
<path d="M8.01562 13.8281H28.3594" stroke="#554DDE" stroke-width="1.5" stroke-linecap="round" stroke-linejoin="round"/>
<path d="M8.01562 22.5469H24" stroke="#554DDE" stroke-width="1.5" stroke-linecap="round" stroke-linejoin="round"/>
<path d="M8.01562 31.2656H15.2812" stroke="#554DDE" stroke-width="1.5" stroke-linecap="round" stroke-linejoin="round"/>
<path d="M15.2812 39.9844H5.10938C4.72772 39.9844 4.3498 39.9092 3.9972 39.7631C3.6446 39.6171 3.32422 39.403 3.05435 39.1332C2.50932 38.5881 2.20313 37.8489 2.20312 37.0781V5.10938C2.20312 4.33859 2.50932 3.59937 3.05435 3.05435C3.59937 2.50932 4.33859 2.20313 5.10938 2.20312H25.7031C26.4733 2.20329 27.212 2.50921 27.7568 3.05369L33.3213 8.61819C33.8658 9.16301 34.1717 9.90169 34.1719 10.6719V19.6406" stroke="#554DDE" stroke-width="1.5" stroke-linecap="round" stroke-linejoin="round"/>
</svg>
