<svg width="34" height="34" viewBox="0 0 34 34" fill="none" xmlns="http://www.w3.org/2000/svg">
<path d="M24.5159 9.43126C24.2045 9.43126 23.9521 9.17885 23.9521 8.86749C23.9521 8.55612 24.2045 8.30371 24.5159 8.30371" stroke="#16194F" stroke-width="2.42857" stroke-linecap="round" stroke-linejoin="round"/>
<path d="M24.5156 9.43126C24.8271 9.43126 25.0794 9.17885 25.0794 8.86749C25.0794 8.55612 24.8271 8.30371 24.5156 8.30371" stroke="#16194F" stroke-width="2.42857" stroke-linecap="round" stroke-linejoin="round"/>
<path d="M3.14941 8.95182C3.14941 5.74725 5.74723 3.14941 8.95182 3.14941H24.425C27.6295 3.14941 30.2274 5.74725 30.2274 8.95182V24.425C30.2274 27.6295 27.6295 30.2273 24.425 30.2273H8.95182C5.74723 30.2273 3.14941 27.6295 3.14941 24.425V8.95182Z" stroke="#16194F" stroke-width="2.42857" stroke-linecap="round" stroke-linejoin="round"/>
<path d="M10.938 16.689C10.938 17.4442 11.0867 18.1919 11.3757 18.8896C11.6647 19.5873 12.0883 20.2212 12.6223 20.7552C13.1563 21.2892 13.7902 21.7128 14.4879 22.0018C15.1856 22.2908 15.9333 22.4395 16.6885 22.4395C17.4437 22.4395 18.1914 22.2908 18.8891 22.0018C19.5868 21.7128 20.2207 21.2892 20.7547 20.7552C21.2887 20.2212 21.7123 19.5873 22.0013 18.8896C22.2903 18.1919 22.439 17.4442 22.439 16.689C22.439 15.1639 21.8332 13.7012 20.7547 12.6228C19.6763 11.5443 18.2136 10.9385 16.6885 10.9385C15.1634 10.9385 13.7007 11.5443 12.6223 12.6228C11.5438 13.7012 10.938 15.1639 10.938 16.689Z" stroke="#16194F" stroke-width="2.42857" stroke-linecap="round" stroke-linejoin="round"/>
</svg>
