<svg width="49" height="49" viewBox="0 0 49 49" fill="none" xmlns="http://www.w3.org/2000/svg">
<path d="M36.3268 6.75781H12.6772C12.132 6.7728 11.598 6.91592 11.1183 7.17563C10.6386 7.43534 10.2267 7.80435 9.91595 8.25281L4.0036 16.4428C3.56458 17.0635 3.34533 17.813 3.38064 18.5726C3.41595 19.3321 3.7038 20.0581 4.19851 20.6353L21.9356 41.0777C22.2393 41.4693 22.6284 41.7862 23.0732 42.0039C23.5179 42.222 24.0067 42.3351 24.502 42.3351C24.9972 42.3351 25.486 42.222 25.9308 42.0039C26.3755 41.7862 26.7646 41.4693 27.0683 41.0777L44.8054 20.6353C45.3 20.0581 45.588 19.3321 45.6234 18.5726C45.6585 17.813 45.4394 17.0635 45.0004 16.4428L39.088 8.25281C38.7773 7.80435 38.3655 7.43534 37.8858 7.17563C37.4061 6.91592 36.8718 6.7728 36.3268 6.75781Z" stroke="#554DDE" stroke-width="3.5" stroke-linecap="round" stroke-linejoin="round"/>
<path d="M22.8128 6.72363L14.8828 19.0086L24.5028 42.246" stroke="#554DDE" stroke-width="3.5" stroke-linecap="round" stroke-linejoin="round"/>
<path d="M26.2875 6.72363L34.185 19.0086L24.5 42.246" stroke="#554DDE" stroke-width="3.5" stroke-linecap="round" stroke-linejoin="round"/>
<path d="M3.44531 19.0078H45.5652" stroke="#554DDE" stroke-width="3.5" stroke-linecap="round" stroke-linejoin="round"/>
</svg>
