<svg width="38" height="38" viewBox="0 0 38 38" fill="none" xmlns="http://www.w3.org/2000/svg">
<path d="M28.0734 17.7387C31.4142 17.7387 34.1223 14.3534 34.1223 10.1774C34.1223 6.0015 31.4142 2.61621 28.0734 2.61621C24.7326 2.61621 22.0244 6.0015 22.0244 10.1774C22.0244 14.3534 24.7326 17.7387 28.0734 17.7387Z" stroke="black" stroke-width="2.71429" stroke-linecap="round" stroke-linejoin="round"/>
<path d="M28.0732 17.7383V35.3811" stroke="black" stroke-width="2.71429" stroke-linecap="round" stroke-linejoin="round"/>
<path d="M10.1787 2.61621V35.3815" stroke="black" stroke-width="2.71429" stroke-linecap="round" stroke-linejoin="round"/>
<path d="M16.48 2.61621V8.91723C16.48 9.74468 16.317 10.564 16.0003 11.3285C15.6837 12.093 15.2195 12.7876 14.6345 13.3727C14.0493 13.9578 13.3547 14.422 12.5902 14.7386C11.8258 15.0553 11.0064 15.2183 10.179 15.2183C8.50782 15.2183 6.90512 14.5544 5.72345 13.3727C4.54178 12.1911 3.87793 10.5884 3.87793 8.91723V2.61621" stroke="black" stroke-width="2.71429" stroke-linecap="round" stroke-linejoin="round"/>
</svg>
