<svg width="49" height="49" viewBox="0 0 49 49" fill="none" xmlns="http://www.w3.org/2000/svg">
<path d="M4.18945 32.7502C4.18945 31.2227 5.51545 30.0202 7.0397 30.1307C10.293 30.3712 16.2535 30.6962 24.502 30.6962C32.7505 30.6962 38.7109 30.3712 41.9642 30.1307C42.3262 30.1031 42.6899 30.1502 43.0329 30.269C43.3759 30.3879 43.6909 30.5759 43.9581 30.8216C44.2254 31.0672 44.4393 31.3652 44.5867 31.6969C44.734 32.0287 44.8115 32.3872 44.8145 32.7502C44.8145 36.6697 41.8667 39.9295 37.9505 40.1277C33.471 40.3472 28.9868 40.4534 24.502 40.4462C20.0172 40.4533 15.5329 40.3471 11.0535 40.1277C7.1372 39.9295 4.18945 36.6697 4.18945 32.7502Z" fill="#D7E0FF"/>
<path d="M8.25569 30.2137L6.87119 11.7927C6.74119 10.0442 8.22969 8.55566 10.1114 8.55566H38.8934C40.7784 8.55566 42.2669 10.0442 42.1337 11.7927L40.7557 30.2137C37.3302 30.4412 31.8182 30.6947 24.5057 30.6947C17.1867 30.6947 11.6747 30.4379 8.24919 30.2137H8.25569Z" fill="white"/>
<path d="M8.25569 30.2137L6.87119 11.7927C6.74119 10.0442 8.22969 8.55566 10.1114 8.55566H38.8934C40.7784 8.55566 42.2669 10.0442 42.1337 11.7927L40.7557 30.2137C37.3302 30.4412 31.8182 30.6947 24.5057 30.6947C17.1867 30.6947 11.6747 30.4379 8.24919 30.2137H8.25569Z" stroke="#4147D5" stroke-width="3.5" stroke-linecap="round" stroke-linejoin="round"/>
<path d="M4.18945 32.7502C4.18945 31.2227 5.51545 30.0202 7.0397 30.1307C10.293 30.3712 16.2535 30.6962 24.502 30.6962C32.7505 30.6962 38.711 30.3712 41.9642 30.1307C42.3262 30.1031 42.6899 30.1502 43.0329 30.269C43.3759 30.3879 43.6909 30.5759 43.9581 30.8216C44.2254 31.0672 44.4393 31.3652 44.5867 31.6969C44.734 32.0287 44.8115 32.3872 44.8145 32.7502C44.8145 36.6697 41.8667 39.9295 37.9505 40.1277C33.471 40.3472 28.9868 40.4534 24.502 40.4462C20.0172 40.4533 15.5329 40.3471 11.0535 40.1277C7.1372 39.9295 4.18945 36.6697 4.18945 32.7502Z" stroke="#4147D5" stroke-width="3.5" stroke-linecap="round" stroke-linejoin="round"/>
</svg>
