<svg width="49" height="49" viewBox="0 0 49 49" fill="none" xmlns="http://www.w3.org/2000/svg">
<path d="M39.1285 18.0991C39.1467 15.4885 38.4655 12.9208 37.1561 10.6623C35.8467 8.40388 33.9566 6.53712 31.6821 5.2558C29.4076 3.97449 26.8315 3.32535 24.2214 3.37578C21.6113 3.4262 19.0623 4.17434 16.839 5.54255C14.6156 6.91074 12.7991 8.84913 11.5778 11.1564C10.3566 13.4638 9.77522 16.0559 9.89407 18.6638C10.0129 21.2717 10.8276 23.8002 12.2536 25.9869C13.6797 28.1736 15.665 29.9387 18.0036 31.0991V35.9741C18.0036 36.4051 18.1747 36.8185 18.4795 37.123C18.7843 37.4278 19.1976 37.5991 19.6286 37.5991H29.3786C29.8095 37.5991 30.2229 37.4278 30.5276 37.123C30.8324 36.8185 31.0036 36.4051 31.0036 35.9741V31.0991C33.4329 29.9021 35.4804 28.0515 36.9156 25.755C38.3508 23.4585 39.1171 20.8072 39.1285 18.0991Z" stroke="#554DDE" stroke-width="3.5" stroke-linecap="round" stroke-linejoin="round"/>
<path d="M18.0078 45.623H31.0078" stroke="#554DDE" stroke-width="3.5" stroke-linecap="round" stroke-linejoin="round"/>
</svg>
