<svg width="33" height="33" viewBox="0 0 33 33" fill="none" xmlns="http://www.w3.org/2000/svg">
<path d="M17.1758 1.48511C15.5904 1.29055 14.2952 2.39949 13.8772 3.79649C13.2722 5.82255 12.2588 9.0098 11.2214 11.3741C10.6844 11.4126 10.1255 11.3748 9.54181 11.3315L9.44694 11.3246C8.79381 11.2751 8.06713 11.2201 7.43463 11.3397C7.27722 11.3695 7.13516 11.4534 7.03298 11.5768C6.93081 11.7001 6.87493 11.8553 6.875 12.0156V29.3014C6.87496 29.4593 6.92927 29.6123 7.0288 29.7349C7.12834 29.8575 7.26702 29.9421 7.42156 29.9744H7.42363L7.42912 29.9758L7.44906 29.9799L7.52469 29.9957L7.81962 30.0535C8.07675 30.1037 8.45213 30.1745 8.92994 30.2584C9.88556 30.4268 11.2516 30.6489 12.8954 30.8647C16.181 31.2965 20.5927 31.7069 25.0745 31.612C27.104 31.5694 29.0455 30.4309 29.7811 28.4379C31.6126 23.4755 31.7267 17.1422 31.5796 13.2537C31.4854 10.7719 29.3989 8.91424 26.9321 9.06411C25.4334 9.15486 23.804 9.29099 21.989 9.45736C22.0182 8.2725 21.993 7.08691 21.9134 5.90436C21.7931 4.22136 20.9144 2.4263 19.0761 1.87286C18.4229 1.67555 17.7616 1.55661 17.1758 1.48511Z" fill="#554DDE"/>
<path fill-rule="evenodd" clip-rule="evenodd" d="M3.36875 31.7229C3.94969 31.8625 4.66812 31.9697 5.5 31.9697C6.33187 31.9697 7.05031 31.8625 7.63125 31.7229C9.13275 31.3634 9.84775 29.9767 9.87663 28.7158C9.91512 27.0142 9.96875 24.0388 9.96875 20.626C9.96875 17.2133 9.91512 14.2378 9.87663 12.5362C9.84775 11.2753 9.13275 9.88863 7.63194 9.52906C6.93344 9.36343 6.21787 9.28059 5.5 9.28225C4.66812 9.28225 3.94969 9.3895 3.36875 9.52906C1.86725 9.88863 1.15225 11.2753 1.12337 12.5362C1.06279 15.2324 1.03208 17.9291 1.03125 20.626C1.03125 24.0388 1.08487 27.0142 1.12337 28.7158C1.15225 29.9767 1.86794 31.3634 3.36875 31.7229Z" fill="#16194F"/>
<path fill-rule="evenodd" clip-rule="evenodd" d="M6.875 25.4385C6.875 25.0738 6.73013 24.7241 6.47227 24.4662C6.21441 24.2083 5.86467 24.0635 5.5 24.0635C5.13533 24.0635 4.78559 24.2083 4.52773 24.4662C4.26987 24.7241 4.125 25.0738 4.125 25.4385V26.8135C4.125 27.1781 4.26987 27.5279 4.52773 27.7857C4.78559 28.0436 5.13533 28.1885 5.5 28.1885C5.86467 28.1885 6.21441 28.0436 6.47227 27.7857C6.73013 27.5279 6.875 27.1781 6.875 26.8135V25.4385Z" fill="#554DDE"/>
</svg>
