<svg width="19" height="19" viewBox="0 0 19 19" fill="none" xmlns="http://www.w3.org/2000/svg">
<path fill-rule="evenodd" clip-rule="evenodd" d="M1.97852 8.1875C1.97852 3.92477 5.43414 0.46875 9.69727 0.46875C13.9604 0.46875 17.416 3.92517 17.416 8.1879C17.416 10.954 15.9886 13.2807 14.437 14.9974C12.8806 16.7201 11.1413 17.8933 10.3848 18.3644C10.1789 18.4939 9.94056 18.5627 9.69727 18.5627C9.45397 18.5627 9.21563 18.4939 9.0097 18.3644C8.25366 17.8933 6.51397 16.7201 4.95756 14.9974C3.40589 13.2803 1.97852 10.9536 1.97852 8.1875Z" fill="#554DDE"/>
<path fill-rule="evenodd" clip-rule="evenodd" d="M9.49967 11.4788C10.3395 11.4788 11.145 11.1452 11.7388 10.5513C12.3327 9.95748 12.6663 9.15203 12.6663 8.31217C12.6663 7.47232 12.3327 6.66687 11.7388 6.073C11.145 5.47914 10.3395 5.14551 9.49967 5.14551C8.65982 5.14551 7.85437 5.47914 7.2605 6.073C6.66664 6.66687 6.33301 7.47232 6.33301 8.31217C6.33301 9.15203 6.66664 9.95748 7.2605 10.5513C7.85437 11.1452 8.65982 11.4788 9.49967 11.4788Z" fill="#F2F6FF"/>
</svg>
