<svg width="210" height="53" viewBox="0 0 210 53" fill="none" xmlns="http://www.w3.org/2000/svg">
<g clip-path="url(#clip0_252_8)">
<path d="M33.6082 4.79416L13.895 1.98211C6.22102 0.88742 0 6.284 0 14.0357V33.188C0 40.9397 6.22102 48.1111 13.895 49.2058L33.6082 52.0179C41.2822 53.1125 47.5032 47.716 47.5032 39.9643V20.812C47.5032 13.0603 41.2822 5.88885 33.6082 4.79416Z" fill="#4EE0F4"/>
<path d="M33.8563 2.64496L13.9931 1.09318C6.26491 0.489433 0 6.284 0 14.0357V33.188C0 40.9397 6.26491 47.7131 13.9931 48.3169L33.8563 49.8687C41.5845 50.4724 47.8494 44.6778 47.8494 36.9261V17.7738C47.8494 10.0221 41.5845 3.24871 33.8563 2.64496Z" fill="#F44E77"/>
<path d="M33.9643 0H14.0357C6.284 0 0 6.284 0 14.0357V33.188C0 40.9397 6.284 47.2237 14.0357 47.2237H33.9643C41.716 47.2237 48 40.9397 48 33.188V14.0357C48 6.284 41.716 0 33.9643 0Z" fill="#6F42CE"/>
<path d="M20.752 32.64C19.4507 32.64 18.3627 32.3307 17.488 31.712C16.6347 31.0933 15.984 30.208 15.536 29.056C15.088 27.8827 14.864 26.5067 14.864 24.928C14.864 23.5627 15.0133 22.1867 15.312 20.8C15.6107 19.4133 16.048 18.0907 16.624 16.832C17.2213 15.5733 17.9573 14.4533 18.832 13.472C19.7067 12.4693 20.72 11.68 21.872 11.104C23.0453 10.528 24.3573 10.24 25.808 10.24C26.576 10.24 27.2907 10.336 27.952 10.528C28.6133 10.72 29.1893 11.008 29.68 11.392C30.1707 11.7547 30.5547 12.2027 30.832 12.736C31.1093 13.248 31.248 13.824 31.248 14.464C31.248 15.1253 31.12 15.7013 30.864 16.192C30.6293 16.6613 30.3093 17.024 29.904 17.28C29.4987 17.536 29.0507 17.664 28.56 17.664C28.3467 17.664 28.0907 17.6213 27.792 17.536C27.4933 17.4507 27.2693 17.312 27.12 17.12C27.2907 16.864 27.4293 16.5547 27.536 16.192C27.664 15.8293 27.728 15.424 27.728 14.976C27.728 14.4427 27.6107 13.9947 27.376 13.632C27.1627 13.248 26.8533 12.9493 26.448 12.736C26.064 12.5227 25.5947 12.416 25.04 12.416C24.1867 12.416 23.4187 12.704 22.736 13.28C22.0533 13.8347 21.456 14.5707 20.944 15.488C20.4533 16.384 20.048 17.3867 19.728 18.496C19.408 19.584 19.1627 20.672 18.992 21.76C18.8427 22.8267 18.768 23.7867 18.768 24.64C18.768 25.4507 18.8213 26.1867 18.928 26.848C19.0347 27.488 19.216 28.0427 19.472 28.512C19.728 28.96 20.08 29.312 20.528 29.568C20.976 29.8027 21.5413 29.92 22.224 29.92C22.672 29.92 23.1093 29.8667 23.536 29.76C23.9627 29.632 24.3573 29.472 24.72 29.28C25.104 29.0667 25.392 28.8427 25.584 28.608V30.656C25.2853 30.912 24.88 31.2 24.368 31.52C23.8773 31.8187 23.3227 32.0747 22.704 32.288C22.1067 32.5227 21.456 32.64 20.752 32.64ZM23.44 38.4C22.7787 38.4 22.1707 38.208 21.616 37.824C21.0613 37.4613 20.7627 36.9067 20.72 36.16C20.784 36.16 20.848 36.16 20.912 36.16C20.976 36.16 21.0293 36.16 21.072 36.16C21.9253 36.16 22.608 35.936 23.12 35.488C23.6533 35.04 24.0587 34.4533 24.336 33.728C24.6347 33.024 24.848 32.256 24.976 31.424C25.104 30.592 25.2107 29.7707 25.296 28.96L26.32 22.144L30.384 21.568C30.064 22.272 29.7867 23.072 29.552 23.968C29.3173 24.8427 29.0933 25.8773 28.88 27.072C28.6667 28.2667 28.4 29.7067 28.08 31.392C27.8667 32.6293 27.632 33.6853 27.376 34.56C27.12 35.456 26.8107 36.1813 26.448 36.736C26.1067 37.312 25.6907 37.728 25.2 37.984C24.7093 38.2613 24.1227 38.4 23.44 38.4Z" fill="white"/>
</g>
<path d="M61.064 34.48C60.088 34.48 59.272 34.248 58.616 33.784C57.976 33.32 57.488 32.656 57.152 31.792C56.816 30.912 56.648 29.88 56.648 28.696C56.648 27.672 56.76 26.64 56.984 25.6C57.208 24.56 57.536 23.568 57.968 22.624C58.416 21.68 58.968 20.84 59.624 20.104C60.28 19.352 61.04 18.76 61.904 18.328C62.784 17.896 63.768 17.68 64.856 17.68C65.432 17.68 65.968 17.752 66.464 17.896C66.96 18.04 67.392 18.256 67.76 18.544C68.128 18.816 68.416 19.152 68.624 19.552C68.832 19.936 68.936 20.368 68.936 20.848C68.936 21.344 68.84 21.776 68.648 22.144C68.472 22.496 68.232 22.768 67.928 22.96C67.624 23.152 67.288 23.248 66.92 23.248C66.76 23.248 66.568 23.216 66.344 23.152C66.12 23.088 65.952 22.984 65.84 22.84C65.968 22.648 66.072 22.416 66.152 22.144C66.248 21.872 66.296 21.568 66.296 21.232C66.296 20.832 66.208 20.496 66.032 20.224C65.872 19.936 65.64 19.712 65.336 19.552C65.048 19.392 64.696 19.312 64.28 19.312C63.64 19.312 63.064 19.528 62.552 19.96C62.04 20.376 61.592 20.928 61.208 21.616C60.84 22.288 60.536 23.04 60.296 23.872C60.056 24.688 59.872 25.504 59.744 26.32C59.632 27.12 59.576 27.84 59.576 28.48C59.576 29.088 59.616 29.64 59.696 30.136C59.776 30.616 59.912 31.032 60.104 31.384C60.296 31.72 60.56 31.984 60.896 32.176C61.232 32.352 61.656 32.44 62.168 32.44C62.504 32.44 62.832 32.4 63.152 32.32C63.472 32.224 63.768 32.104 64.04 31.96C64.328 31.8 64.544 31.632 64.688 31.456V32.992C64.464 33.184 64.16 33.4 63.776 33.64C63.408 33.864 62.992 34.056 62.528 34.216C62.08 34.392 61.592 34.48 61.064 34.48ZM63.08 38.8C62.584 38.8 62.128 38.656 61.712 38.368C61.296 38.096 61.072 37.68 61.04 37.12C61.088 37.12 61.136 37.12 61.184 37.12C61.232 37.12 61.272 37.12 61.304 37.12C61.944 37.12 62.456 36.952 62.84 36.616C63.24 36.28 63.544 35.84 63.752 35.296C63.976 34.768 64.136 34.192 64.232 33.568C64.328 32.944 64.408 32.328 64.472 31.72L65.24 26.608L68.288 26.176C68.048 26.704 67.84 27.304 67.664 27.976C67.488 28.632 67.32 29.408 67.16 30.304C67 31.2 66.8 32.28 66.56 33.544C66.4 34.472 66.224 35.264 66.032 35.92C65.84 36.592 65.608 37.136 65.336 37.552C65.08 37.984 64.768 38.296 64.4 38.488C64.032 38.696 63.592 38.8 63.08 38.8ZM72.9963 34.48C72.1803 34.48 71.5163 34.288 71.0043 33.904C70.5083 33.504 70.1403 32.968 69.9003 32.296C69.6763 31.608 69.5643 30.824 69.5643 29.944C69.5643 28.76 69.7243 27.648 70.0443 26.608C70.3643 25.552 70.8203 24.624 71.4123 23.824C72.0203 23.024 72.7243 22.4 73.5243 21.952C74.3243 21.504 75.2043 21.28 76.1643 21.28C76.9483 21.28 77.7723 21.448 78.6363 21.784L81.0603 21.472L79.1403 31.504C79.1243 31.648 79.1003 31.816 79.0683 32.008C79.0363 32.2 79.0203 32.368 79.0203 32.512C79.0203 32.752 79.0763 32.944 79.1883 33.088C79.3163 33.232 79.5083 33.312 79.7643 33.328C79.6843 33.6 79.5483 33.824 79.3563 34C79.1803 34.16 78.9723 34.28 78.7323 34.36C78.5083 34.44 78.2523 34.48 77.9643 34.48C77.5323 34.48 77.1643 34.36 76.8603 34.12C76.5563 33.896 76.3803 33.56 76.3323 33.112C75.9163 33.512 75.4203 33.84 74.8443 34.096C74.2843 34.352 73.6683 34.48 72.9963 34.48ZM74.0523 33.04C74.6603 33.04 75.1483 32.84 75.5163 32.44C75.9003 32.04 76.2043 31.544 76.4283 30.952C76.6523 30.344 76.8203 29.76 76.9323 29.2L77.9883 23.464C77.6683 23.208 77.3323 23.024 76.9803 22.912C76.6443 22.784 76.3323 22.72 76.0443 22.72C75.5483 22.72 75.1003 22.864 74.7003 23.152C74.3163 23.44 73.9723 23.832 73.6683 24.328C73.3803 24.824 73.1323 25.4 72.9243 26.056C72.7323 26.712 72.5883 27.416 72.4923 28.168C72.3963 28.904 72.3483 29.648 72.3483 30.4C72.3483 31.136 72.4683 31.76 72.7083 32.272C72.9483 32.784 73.3963 33.04 74.0523 33.04ZM85.7006 34.48C84.9166 34.48 84.2846 34.328 83.8046 34.024C83.3406 33.736 83.0046 33.328 82.7966 32.8C82.5886 32.272 82.4846 31.68 82.4846 31.024C82.4846 30.56 82.5406 29.952 82.6526 29.2C82.7806 28.448 82.9646 27.472 83.2046 26.272C83.4606 25.072 83.7886 23.568 84.1886 21.76L86.8046 21.472C86.4686 23.104 86.1886 24.456 85.9646 25.528C85.7406 26.584 85.5646 27.448 85.4366 28.12C85.3246 28.792 85.2446 29.344 85.1966 29.776C85.1486 30.192 85.1246 30.568 85.1246 30.904C85.1246 31.256 85.1646 31.6 85.2446 31.936C85.3406 32.256 85.5086 32.52 85.7486 32.728C85.9886 32.936 86.3086 33.04 86.7086 33.04C87.2846 33.04 87.7646 32.848 88.1486 32.464C88.5326 32.064 88.8366 31.568 89.0606 30.976C89.3006 30.384 89.4686 29.792 89.5646 29.2L91.0046 21.76L93.7166 21.472L91.7726 31.504C91.7566 31.648 91.7326 31.816 91.7006 32.008C91.6686 32.2 91.6526 32.368 91.6526 32.512C91.6526 32.752 91.7086 32.944 91.8206 33.088C91.9486 33.232 92.1326 33.312 92.3726 33.328C92.3246 33.6 92.2046 33.824 92.0126 34C91.8366 34.16 91.6286 34.28 91.3886 34.36C91.1486 34.44 90.8926 34.48 90.6206 34.48C90.1726 34.48 89.8046 34.36 89.5166 34.12C89.2286 33.896 89.0446 33.56 88.9646 33.112C88.6446 33.592 88.1726 33.936 87.5486 34.144C86.9246 34.368 86.3086 34.48 85.7006 34.48ZM98.3272 38.752C97.6712 38.752 97.0552 38.704 96.4792 38.608C95.9032 38.528 95.3992 38.384 94.9672 38.176C94.5352 37.968 94.1992 37.704 93.9592 37.384C93.7192 37.08 93.5992 36.704 93.5992 36.256C93.6152 35.728 93.7752 35.304 94.0792 34.984C94.3832 34.664 94.8152 34.504 95.3752 34.504C95.6952 34.504 95.9912 34.56 96.2632 34.672C96.5352 34.784 96.7752 34.96 96.9832 35.2C96.8552 35.296 96.7512 35.416 96.6712 35.56C96.5912 35.72 96.5512 35.904 96.5512 36.112C96.5512 36.544 96.7512 36.856 97.1512 37.048C97.5672 37.24 98.1832 37.336 98.9992 37.336C99.5432 37.336 100.087 37.248 100.631 37.072C101.191 36.912 101.647 36.648 101.999 36.28C102.367 35.912 102.551 35.432 102.551 34.84C102.567 34.312 102.311 33.992 101.783 33.88C101.271 33.752 100.423 33.688 99.2392 33.688C98.5352 33.688 97.9192 33.632 97.3912 33.52C96.8792 33.392 96.4872 33.2 96.2152 32.944C95.9432 32.672 95.8072 32.312 95.8072 31.864C95.8232 31.4 95.9912 30.944 96.3112 30.496C96.6312 30.032 97.0392 29.648 97.5352 29.344C96.9272 29.072 96.4552 28.688 96.1192 28.192C95.7832 27.696 95.6152 27.08 95.6152 26.344C95.6152 25.224 95.8792 24.296 96.4072 23.56C96.9352 22.808 97.6392 22.24 98.5192 21.856C99.4152 21.472 100.383 21.28 101.423 21.28C101.903 21.28 102.303 21.312 102.623 21.376C102.943 21.44 103.231 21.504 103.487 21.568C103.743 21.616 104.007 21.64 104.279 21.64C104.983 21.64 105.495 21.48 105.815 21.16C106.135 20.824 106.295 20.424 106.295 19.96C106.295 19.592 106.175 19.216 105.935 18.832C106.143 18.672 106.367 18.544 106.607 18.448C106.847 18.336 107.095 18.28 107.351 18.28C107.719 18.28 108.007 18.408 108.215 18.664C108.423 18.904 108.527 19.216 108.527 19.6C108.527 20.096 108.383 20.576 108.095 21.04C107.807 21.488 107.407 21.872 106.895 22.192C106.383 22.496 105.799 22.696 105.143 22.792C105.303 23.048 105.423 23.336 105.503 23.656C105.599 23.976 105.647 24.328 105.647 24.712C105.647 25.768 105.383 26.672 104.855 27.424C104.343 28.176 103.647 28.752 102.767 29.152C101.887 29.536 100.903 29.728 99.8152 29.728C99.6552 29.728 99.4952 29.728 99.3352 29.728C99.1912 29.712 99.0392 29.696 98.8792 29.68C98.7192 29.792 98.5832 29.928 98.4712 30.088C98.3592 30.232 98.3032 30.424 98.3032 30.664C98.3032 31 98.4872 31.208 98.8552 31.288C99.2232 31.352 99.7752 31.384 100.511 31.384H101.855C103.071 31.384 103.943 31.616 104.471 32.08C105.015 32.528 105.287 33.144 105.287 33.928C105.287 34.728 105.071 35.424 104.639 36.016C104.223 36.624 103.671 37.128 102.983 37.528C102.311 37.928 101.559 38.232 100.727 38.44C99.9112 38.648 99.1112 38.752 98.3272 38.752ZM100.223 28.528C100.895 28.528 101.431 28.328 101.831 27.928C102.247 27.528 102.551 27.04 102.743 26.464C102.935 25.872 103.031 25.296 103.031 24.736C103.031 24.096 102.871 23.568 102.551 23.152C102.231 22.736 101.727 22.528 101.039 22.528C100.527 22.528 100.087 22.64 99.7192 22.864C99.3672 23.072 99.0792 23.368 98.8552 23.752C98.6312 24.12 98.4632 24.544 98.3512 25.024C98.2552 25.504 98.2072 25.992 98.2072 26.488C98.2072 27.128 98.3832 27.632 98.7352 28C99.0872 28.352 99.5832 28.528 100.223 28.528ZM111.949 34.48C111.037 34.48 110.245 34.312 109.573 33.976C108.917 33.624 108.413 33.096 108.061 32.392C107.709 31.688 107.533 30.8 107.533 29.728C107.533 28.72 107.669 27.72 107.941 26.728C108.229 25.72 108.653 24.808 109.213 23.992C109.773 23.176 110.485 22.52 111.349 22.024C112.229 21.528 113.261 21.28 114.445 21.28C115.069 21.28 115.629 21.368 116.125 21.544C116.621 21.72 117.013 22.008 117.301 22.408C117.589 22.808 117.733 23.352 117.733 24.04C117.733 24.968 117.453 25.752 116.893 26.392C116.349 27.016 115.621 27.496 114.709 27.832C113.797 28.152 112.789 28.312 111.685 28.312C111.477 28.312 111.245 28.312 110.989 28.312C110.749 28.296 110.549 28.28 110.389 28.264C110.373 28.52 110.357 28.776 110.341 29.032C110.325 29.272 110.317 29.496 110.317 29.704C110.317 30.568 110.477 31.248 110.797 31.744C111.117 32.224 111.701 32.464 112.549 32.464C113.237 32.464 113.853 32.304 114.397 31.984C114.941 31.648 115.365 31.176 115.669 30.568C115.893 30.632 116.045 30.76 116.125 30.952C116.205 31.144 116.245 31.344 116.245 31.552C116.245 32.032 116.077 32.496 115.741 32.944C115.405 33.392 114.917 33.76 114.277 34.048C113.637 34.336 112.861 34.48 111.949 34.48ZM110.557 27.088C111.101 27.088 111.637 27.032 112.165 26.92C112.709 26.808 113.205 26.632 113.653 26.392C114.101 26.136 114.453 25.816 114.709 25.432C114.981 25.032 115.117 24.568 115.117 24.04C115.117 23.576 115.005 23.232 114.781 23.008C114.573 22.768 114.269 22.648 113.869 22.648C113.421 22.648 113.005 22.792 112.621 23.08C112.253 23.352 111.933 23.712 111.661 24.16C111.389 24.608 111.157 25.088 110.965 25.6C110.789 26.112 110.653 26.608 110.557 27.088ZM134.222 34.48C133.726 34.48 133.326 34.336 133.022 34.048C132.734 33.776 132.59 33.32 132.59 32.68C132.59 32.328 132.638 31.872 132.734 31.312C132.846 30.752 132.974 30.16 133.118 29.536C133.262 28.896 133.406 28.264 133.55 27.64C133.694 27 133.814 26.432 133.91 25.936C134.022 25.424 134.078 25.032 134.078 24.76C134.078 24.232 133.934 23.832 133.646 23.56C133.374 23.272 132.99 23.128 132.494 23.128C131.998 23.128 131.566 23.256 131.198 23.512C130.846 23.768 130.542 24.104 130.286 24.52C130.046 24.936 129.846 25.392 129.686 25.888C129.526 26.368 129.406 26.848 129.326 27.328L128.03 34L125.294 34.288L126.518 28.216C126.566 27.992 126.622 27.728 126.686 27.424C126.75 27.12 126.806 26.808 126.854 26.488C126.918 26.168 126.966 25.864 126.998 25.576C127.046 25.272 127.07 25.008 127.07 24.784C127.07 24.256 126.934 23.848 126.662 23.56C126.406 23.272 126.03 23.128 125.534 23.128C125.038 23.128 124.614 23.256 124.262 23.512C123.926 23.752 123.638 24.08 123.398 24.496C123.174 24.896 122.99 25.344 122.846 25.84C122.702 26.32 122.582 26.816 122.486 27.328L121.19 34L118.454 34.288L120.902 21.76L123.182 21.472L122.894 23.632C123.31 22.816 123.854 22.224 124.526 21.856C125.198 21.472 125.966 21.28 126.83 21.28C127.678 21.28 128.326 21.464 128.774 21.832C129.222 22.184 129.518 22.728 129.662 23.464C130.094 22.68 130.67 22.12 131.39 21.784C132.11 21.448 132.87 21.28 133.67 21.28C134.694 21.28 135.462 21.536 135.974 22.048C136.486 22.544 136.742 23.248 136.742 24.16C136.742 24.608 136.694 25.128 136.598 25.72C136.502 26.312 136.382 26.944 136.238 27.616C136.094 28.272 135.95 28.912 135.806 29.536C135.662 30.16 135.534 30.728 135.422 31.24C135.326 31.752 135.278 32.152 135.278 32.44C135.278 32.664 135.326 32.864 135.422 33.04C135.518 33.2 135.71 33.296 135.998 33.328C135.902 33.728 135.678 34.016 135.326 34.192C134.99 34.384 134.622 34.48 134.222 34.48ZM141.973 34.48C141.157 34.48 140.493 34.288 139.981 33.904C139.485 33.504 139.117 32.968 138.877 32.296C138.653 31.608 138.541 30.824 138.541 29.944C138.541 28.76 138.701 27.648 139.021 26.608C139.341 25.552 139.797 24.624 140.389 23.824C140.997 23.024 141.701 22.4 142.501 21.952C143.301 21.504 144.181 21.28 145.141 21.28C145.925 21.28 146.749 21.448 147.613 21.784L150.037 21.472L148.117 31.504C148.101 31.648 148.077 31.816 148.045 32.008C148.013 32.2 147.997 32.368 147.997 32.512C147.997 32.752 148.053 32.944 148.165 33.088C148.293 33.232 148.485 33.312 148.741 33.328C148.661 33.6 148.525 33.824 148.333 34C148.157 34.16 147.949 34.28 147.709 34.36C147.485 34.44 147.229 34.48 146.941 34.48C146.509 34.48 146.141 34.36 145.837 34.12C145.533 33.896 145.357 33.56 145.309 33.112C144.893 33.512 144.397 33.84 143.821 34.096C143.261 34.352 142.645 34.48 141.973 34.48ZM143.029 33.04C143.637 33.04 144.125 32.84 144.493 32.44C144.877 32.04 145.181 31.544 145.405 30.952C145.629 30.344 145.797 29.76 145.909 29.2L146.965 23.464C146.645 23.208 146.309 23.024 145.957 22.912C145.621 22.784 145.309 22.72 145.021 22.72C144.525 22.72 144.077 22.864 143.677 23.152C143.293 23.44 142.949 23.832 142.645 24.328C142.357 24.824 142.109 25.4 141.901 26.056C141.709 26.712 141.565 27.416 141.469 28.168C141.373 28.904 141.325 29.648 141.325 30.4C141.325 31.136 141.445 31.76 141.685 32.272C141.925 32.784 142.373 33.04 143.029 33.04ZM153.405 34.288C153.309 34.288 153.213 34.288 153.117 34.288C153.037 34.288 152.949 34.28 152.853 34.264C152.821 32.952 152.781 31.68 152.733 30.448C152.685 29.216 152.621 28.064 152.541 26.992C152.461 25.904 152.357 24.96 152.229 24.16C152.149 23.52 152.045 23.032 151.917 22.696C151.789 22.36 151.565 22.104 151.245 21.928C151.421 21.72 151.645 21.56 151.917 21.448C152.205 21.336 152.533 21.28 152.901 21.28C153.701 21.28 154.245 21.52 154.533 22C154.837 22.464 155.029 23.184 155.109 24.16C155.141 24.416 155.165 24.76 155.181 25.192C155.197 25.608 155.213 26.16 155.229 26.848C155.245 27.52 155.253 28.4 155.253 29.488C155.253 29.872 155.253 30.296 155.253 30.76C155.253 31.224 155.245 31.728 155.229 32.272C155.677 31.68 156.117 31.024 156.549 30.304C156.981 29.568 157.373 28.8 157.725 28C158.077 27.2 158.357 26.4 158.565 25.6C158.773 24.8 158.877 24.04 158.877 23.32C158.877 23.112 158.861 22.888 158.829 22.648C158.813 22.408 158.773 22.168 158.709 21.928C158.917 21.736 159.181 21.584 159.501 21.472C159.837 21.344 160.181 21.28 160.533 21.28C160.885 21.28 161.157 21.344 161.349 21.472C161.541 21.584 161.669 21.76 161.733 22C161.813 22.224 161.853 22.512 161.853 22.864C161.853 23.552 161.717 24.32 161.445 25.168C161.189 26.016 160.845 26.856 160.413 27.688C159.981 28.52 159.517 29.288 159.021 29.992C157.981 31.432 157.029 32.512 156.165 33.232C155.301 33.936 154.381 34.288 153.405 34.288ZM166.723 34.48C165.811 34.48 165.019 34.312 164.347 33.976C163.691 33.624 163.187 33.096 162.835 32.392C162.483 31.688 162.307 30.8 162.307 29.728C162.307 28.72 162.443 27.72 162.715 26.728C163.002 25.72 163.427 24.808 163.987 23.992C164.547 23.176 165.259 22.52 166.123 22.024C167.003 21.528 168.035 21.28 169.219 21.28C169.843 21.28 170.403 21.368 170.899 21.544C171.395 21.72 171.787 22.008 172.075 22.408C172.363 22.808 172.507 23.352 172.507 24.04C172.507 24.968 172.227 25.752 171.667 26.392C171.123 27.016 170.395 27.496 169.483 27.832C168.571 28.152 167.563 28.312 166.459 28.312C166.251 28.312 166.019 28.312 165.763 28.312C165.523 28.296 165.323 28.28 165.163 28.264C165.147 28.52 165.131 28.776 165.115 29.032C165.099 29.272 165.09 29.496 165.09 29.704C165.09 30.568 165.251 31.248 165.571 31.744C165.891 32.224 166.475 32.464 167.323 32.464C168.011 32.464 168.627 32.304 169.171 31.984C169.715 31.648 170.139 31.176 170.443 30.568C170.667 30.632 170.819 30.76 170.899 30.952C170.979 31.144 171.019 31.344 171.019 31.552C171.019 32.032 170.851 32.496 170.515 32.944C170.179 33.392 169.691 33.76 169.051 34.048C168.411 34.336 167.635 34.48 166.723 34.48ZM165.331 27.088C165.875 27.088 166.411 27.032 166.939 26.92C167.483 26.808 167.979 26.632 168.427 26.392C168.875 26.136 169.227 25.816 169.483 25.432C169.755 25.032 169.891 24.568 169.891 24.04C169.891 23.576 169.779 23.232 169.555 23.008C169.347 22.768 169.043 22.648 168.643 22.648C168.195 22.648 167.779 22.792 167.395 23.08C167.027 23.352 166.707 23.712 166.435 24.16C166.163 24.608 165.931 25.088 165.739 25.6C165.563 26.112 165.427 26.608 165.331 27.088ZM182.131 34.48C181.635 34.48 181.235 34.336 180.931 34.048C180.643 33.776 180.499 33.32 180.499 32.68C180.499 32.328 180.547 31.872 180.643 31.312C180.755 30.752 180.883 30.16 181.027 29.536C181.171 28.896 181.315 28.264 181.459 27.64C181.603 27.016 181.723 26.456 181.819 25.96C181.931 25.448 181.987 25.048 181.987 24.76C181.987 24.232 181.851 23.832 181.579 23.56C181.307 23.272 180.947 23.128 180.499 23.128C179.875 23.128 179.347 23.344 178.915 23.776C178.483 24.208 178.131 24.752 177.859 25.408C177.587 26.048 177.387 26.688 177.259 27.328L175.963 34L173.227 34.288L175.675 21.76L177.955 21.472L177.667 23.632C178.099 22.864 178.675 22.28 179.395 21.88C180.115 21.48 180.875 21.28 181.675 21.28C182.651 21.28 183.395 21.536 183.907 22.048C184.419 22.544 184.675 23.248 184.675 24.16C184.675 24.608 184.627 25.128 184.531 25.72C184.435 26.312 184.307 26.944 184.147 27.616C184.003 28.272 183.859 28.912 183.715 29.536C183.571 30.16 183.443 30.728 183.331 31.24C183.235 31.752 183.187 32.152 183.187 32.44C183.187 32.68 183.235 32.88 183.331 33.04C183.427 33.2 183.619 33.296 183.907 33.328C183.811 33.728 183.595 34.016 183.259 34.192C182.923 34.384 182.547 34.48 182.131 34.48Z" fill="#16194F"/>
<defs>
<clipPath id="clip0_252_8">
<rect width="48" height="53" fill="white"/>
</clipPath>
</defs>
</svg>
