<svg width="214" height="56" viewBox="0 0 214 56" fill="none" xmlns="http://www.w3.org/2000/svg">
<g filter="url(#filter0_d_210_29)">
<path d="M37.9643 0H18.0357C10.284 0 4 6.284 4 14.0357V33.188C4 40.9397 10.284 47.2237 18.0357 47.2237H37.9643C45.716 47.2237 52 40.9397 52 33.188V14.0357C52 6.284 45.716 0 37.9643 0Z" fill="#6F42CE"/>
</g>
<g filter="url(#filter1_d_210_29)">
<path d="M24.752 32.64C23.4507 32.64 22.3627 32.3307 21.488 31.712C20.6347 31.0933 19.984 30.208 19.536 29.056C19.088 27.8827 18.864 26.5067 18.864 24.928C18.864 23.5627 19.0133 22.1867 19.312 20.8C19.6107 19.4133 20.048 18.0907 20.624 16.832C21.2213 15.5733 21.9573 14.4533 22.832 13.472C23.7067 12.4693 24.72 11.68 25.872 11.104C27.0453 10.528 28.3573 10.24 29.808 10.24C30.576 10.24 31.2907 10.336 31.952 10.528C32.6133 10.72 33.1893 11.008 33.68 11.392C34.1707 11.7547 34.5547 12.2027 34.832 12.736C35.1093 13.248 35.248 13.824 35.248 14.464C35.248 15.1253 35.12 15.7013 34.864 16.192C34.6293 16.6613 34.3093 17.024 33.904 17.28C33.4987 17.536 33.0507 17.664 32.56 17.664C32.3467 17.664 32.0907 17.6213 31.792 17.536C31.4933 17.4507 31.2693 17.312 31.12 17.12C31.2907 16.864 31.4293 16.5547 31.536 16.192C31.664 15.8293 31.728 15.424 31.728 14.976C31.728 14.4427 31.6107 13.9947 31.376 13.632C31.1627 13.248 30.8533 12.9493 30.448 12.736C30.064 12.5227 29.5947 12.416 29.04 12.416C28.1867 12.416 27.4187 12.704 26.736 13.28C26.0533 13.8347 25.456 14.5707 24.944 15.488C24.4533 16.384 24.048 17.3867 23.728 18.496C23.408 19.584 23.1627 20.672 22.992 21.76C22.8427 22.8267 22.768 23.7867 22.768 24.64C22.768 25.4507 22.8213 26.1867 22.928 26.848C23.0347 27.488 23.216 28.0427 23.472 28.512C23.728 28.96 24.08 29.312 24.528 29.568C24.976 29.8027 25.5413 29.92 26.224 29.92C26.672 29.92 27.1093 29.8667 27.536 29.76C27.9627 29.632 28.3573 29.472 28.72 29.28C29.104 29.0667 29.392 28.8427 29.584 28.608V30.656C29.2853 30.912 28.88 31.2 28.368 31.52C27.8773 31.8187 27.3227 32.0747 26.704 32.288C26.1067 32.5227 25.456 32.64 24.752 32.64ZM27.44 38.4C26.7787 38.4 26.1707 38.208 25.616 37.824C25.0613 37.4613 24.7627 36.9067 24.72 36.16C24.784 36.16 24.848 36.16 24.912 36.16C24.976 36.16 25.0293 36.16 25.072 36.16C25.9253 36.16 26.608 35.936 27.12 35.488C27.6533 35.04 28.0587 34.4533 28.336 33.728C28.6347 33.024 28.848 32.256 28.976 31.424C29.104 30.592 29.2107 29.7707 29.296 28.96L30.32 22.144L34.384 21.568C34.064 22.272 33.7867 23.072 33.552 23.968C33.3173 24.8427 33.0933 25.8773 32.88 27.072C32.6667 28.2667 32.4 29.7067 32.08 31.392C31.8667 32.6293 31.632 33.6853 31.376 34.56C31.12 35.456 30.8107 36.1813 30.448 36.736C30.1067 37.312 29.6907 37.728 29.2 37.984C28.7093 38.2613 28.1227 38.4 27.44 38.4Z" fill="white"/>
</g>
<g filter="url(#filter2_d_210_29)">
<path d="M65.064 34.48C64.088 34.48 63.272 34.248 62.616 33.784C61.976 33.32 61.488 32.656 61.152 31.792C60.816 30.912 60.648 29.88 60.648 28.696C60.648 27.672 60.76 26.64 60.984 25.6C61.208 24.56 61.536 23.568 61.968 22.624C62.416 21.68 62.968 20.84 63.624 20.104C64.28 19.352 65.04 18.76 65.904 18.328C66.784 17.896 67.768 17.68 68.856 17.68C69.432 17.68 69.968 17.752 70.464 17.896C70.96 18.04 71.392 18.256 71.76 18.544C72.128 18.816 72.416 19.152 72.624 19.552C72.832 19.936 72.936 20.368 72.936 20.848C72.936 21.344 72.84 21.776 72.648 22.144C72.472 22.496 72.232 22.768 71.928 22.96C71.624 23.152 71.288 23.248 70.92 23.248C70.76 23.248 70.568 23.216 70.344 23.152C70.12 23.088 69.952 22.984 69.84 22.84C69.968 22.648 70.072 22.416 70.152 22.144C70.248 21.872 70.296 21.568 70.296 21.232C70.296 20.832 70.208 20.496 70.032 20.224C69.872 19.936 69.64 19.712 69.336 19.552C69.048 19.392 68.696 19.312 68.28 19.312C67.64 19.312 67.064 19.528 66.552 19.96C66.04 20.376 65.592 20.928 65.208 21.616C64.84 22.288 64.536 23.04 64.296 23.872C64.056 24.688 63.872 25.504 63.744 26.32C63.632 27.12 63.576 27.84 63.576 28.48C63.576 29.088 63.616 29.64 63.696 30.136C63.776 30.616 63.912 31.032 64.104 31.384C64.296 31.72 64.56 31.984 64.896 32.176C65.232 32.352 65.656 32.44 66.168 32.44C66.504 32.44 66.832 32.4 67.152 32.32C67.472 32.224 67.768 32.104 68.04 31.96C68.328 31.8 68.544 31.632 68.688 31.456V32.992C68.464 33.184 68.16 33.4 67.776 33.64C67.408 33.864 66.992 34.056 66.528 34.216C66.08 34.392 65.592 34.48 65.064 34.48ZM67.08 38.8C66.584 38.8 66.128 38.656 65.712 38.368C65.296 38.096 65.072 37.68 65.04 37.12C65.088 37.12 65.136 37.12 65.184 37.12C65.232 37.12 65.272 37.12 65.304 37.12C65.944 37.12 66.456 36.952 66.84 36.616C67.24 36.28 67.544 35.84 67.752 35.296C67.976 34.768 68.136 34.192 68.232 33.568C68.328 32.944 68.408 32.328 68.472 31.72L69.24 26.608L72.288 26.176C72.048 26.704 71.84 27.304 71.664 27.976C71.488 28.632 71.32 29.408 71.16 30.304C71 31.2 70.8 32.28 70.56 33.544C70.4 34.472 70.224 35.264 70.032 35.92C69.84 36.592 69.608 37.136 69.336 37.552C69.08 37.984 68.768 38.296 68.4 38.488C68.032 38.696 67.592 38.8 67.08 38.8ZM76.9963 34.48C76.1803 34.48 75.5163 34.288 75.0043 33.904C74.5083 33.504 74.1403 32.968 73.9003 32.296C73.6763 31.608 73.5643 30.824 73.5643 29.944C73.5643 28.76 73.7243 27.648 74.0443 26.608C74.3643 25.552 74.8203 24.624 75.4123 23.824C76.0203 23.024 76.7243 22.4 77.5243 21.952C78.3243 21.504 79.2043 21.28 80.1643 21.28C80.9483 21.28 81.7723 21.448 82.6363 21.784L85.0603 21.472L83.1403 31.504C83.1243 31.648 83.1003 31.816 83.0683 32.008C83.0363 32.2 83.0203 32.368 83.0203 32.512C83.0203 32.752 83.0763 32.944 83.1883 33.088C83.3163 33.232 83.5083 33.312 83.7643 33.328C83.6843 33.6 83.5483 33.824 83.3563 34C83.1803 34.16 82.9723 34.28 82.7323 34.36C82.5083 34.44 82.2523 34.48 81.9643 34.48C81.5323 34.48 81.1643 34.36 80.8603 34.12C80.5563 33.896 80.3803 33.56 80.3323 33.112C79.9163 33.512 79.4203 33.84 78.8443 34.096C78.2843 34.352 77.6683 34.48 76.9963 34.48ZM78.0523 33.04C78.6603 33.04 79.1483 32.84 79.5163 32.44C79.9003 32.04 80.2043 31.544 80.4283 30.952C80.6523 30.344 80.8203 29.76 80.9323 29.2L81.9883 23.464C81.6683 23.208 81.3323 23.024 80.9803 22.912C80.6443 22.784 80.3323 22.72 80.0443 22.72C79.5483 22.72 79.1003 22.864 78.7003 23.152C78.3163 23.44 77.9723 23.832 77.6683 24.328C77.3803 24.824 77.1323 25.4 76.9243 26.056C76.7323 26.712 76.5883 27.416 76.4923 28.168C76.3963 28.904 76.3483 29.648 76.3483 30.4C76.3483 31.136 76.4683 31.76 76.7083 32.272C76.9483 32.784 77.3963 33.04 78.0523 33.04ZM89.7006 34.48C88.9166 34.48 88.2846 34.328 87.8046 34.024C87.3406 33.736 87.0046 33.328 86.7966 32.8C86.5886 32.272 86.4846 31.68 86.4846 31.024C86.4846 30.56 86.5406 29.952 86.6526 29.2C86.7806 28.448 86.9646 27.472 87.2046 26.272C87.4606 25.072 87.7886 23.568 88.1886 21.76L90.8046 21.472C90.4686 23.104 90.1886 24.456 89.9646 25.528C89.7406 26.584 89.5646 27.448 89.4366 28.12C89.3246 28.792 89.2446 29.344 89.1966 29.776C89.1486 30.192 89.1246 30.568 89.1246 30.904C89.1246 31.256 89.1646 31.6 89.2446 31.936C89.3406 32.256 89.5086 32.52 89.7486 32.728C89.9886 32.936 90.3086 33.04 90.7086 33.04C91.2846 33.04 91.7646 32.848 92.1486 32.464C92.5326 32.064 92.8366 31.568 93.0606 30.976C93.3006 30.384 93.4686 29.792 93.5646 29.2L95.0046 21.76L97.7166 21.472L95.7726 31.504C95.7566 31.648 95.7326 31.816 95.7006 32.008C95.6686 32.2 95.6526 32.368 95.6526 32.512C95.6526 32.752 95.7086 32.944 95.8206 33.088C95.9486 33.232 96.1326 33.312 96.3726 33.328C96.3246 33.6 96.2046 33.824 96.0126 34C95.8366 34.16 95.6286 34.28 95.3886 34.36C95.1486 34.44 94.8926 34.48 94.6206 34.48C94.1726 34.48 93.8046 34.36 93.5166 34.12C93.2286 33.896 93.0446 33.56 92.9646 33.112C92.6446 33.592 92.1726 33.936 91.5486 34.144C90.9246 34.368 90.3086 34.48 89.7006 34.48ZM102.327 38.752C101.671 38.752 101.055 38.704 100.479 38.608C99.9032 38.528 99.3992 38.384 98.9672 38.176C98.5352 37.968 98.1992 37.704 97.9592 37.384C97.7192 37.08 97.5992 36.704 97.5992 36.256C97.6152 35.728 97.7752 35.304 98.0792 34.984C98.3832 34.664 98.8152 34.504 99.3752 34.504C99.6952 34.504 99.9912 34.56 100.263 34.672C100.535 34.784 100.775 34.96 100.983 35.2C100.855 35.296 100.751 35.416 100.671 35.56C100.591 35.72 100.551 35.904 100.551 36.112C100.551 36.544 100.751 36.856 101.151 37.048C101.567 37.24 102.183 37.336 102.999 37.336C103.543 37.336 104.087 37.248 104.631 37.072C105.191 36.912 105.647 36.648 105.999 36.28C106.367 35.912 106.551 35.432 106.551 34.84C106.567 34.312 106.311 33.992 105.783 33.88C105.271 33.752 104.423 33.688 103.239 33.688C102.535 33.688 101.919 33.632 101.391 33.52C100.879 33.392 100.487 33.2 100.215 32.944C99.9432 32.672 99.8072 32.312 99.8072 31.864C99.8232 31.4 99.9912 30.944 100.311 30.496C100.631 30.032 101.039 29.648 101.535 29.344C100.927 29.072 100.455 28.688 100.119 28.192C99.7832 27.696 99.6152 27.08 99.6152 26.344C99.6152 25.224 99.8792 24.296 100.407 23.56C100.935 22.808 101.639 22.24 102.519 21.856C103.415 21.472 104.383 21.28 105.423 21.28C105.903 21.28 106.303 21.312 106.623 21.376C106.943 21.44 107.231 21.504 107.487 21.568C107.743 21.616 108.007 21.64 108.279 21.64C108.983 21.64 109.495 21.48 109.815 21.16C110.135 20.824 110.295 20.424 110.295 19.96C110.295 19.592 110.175 19.216 109.935 18.832C110.143 18.672 110.367 18.544 110.607 18.448C110.847 18.336 111.095 18.28 111.351 18.28C111.719 18.28 112.007 18.408 112.215 18.664C112.423 18.904 112.527 19.216 112.527 19.6C112.527 20.096 112.383 20.576 112.095 21.04C111.807 21.488 111.407 21.872 110.895 22.192C110.383 22.496 109.799 22.696 109.143 22.792C109.303 23.048 109.423 23.336 109.503 23.656C109.599 23.976 109.647 24.328 109.647 24.712C109.647 25.768 109.383 26.672 108.855 27.424C108.343 28.176 107.647 28.752 106.767 29.152C105.887 29.536 104.903 29.728 103.815 29.728C103.655 29.728 103.495 29.728 103.335 29.728C103.191 29.712 103.039 29.696 102.879 29.68C102.719 29.792 102.583 29.928 102.471 30.088C102.359 30.232 102.303 30.424 102.303 30.664C102.303 31 102.487 31.208 102.855 31.288C103.223 31.352 103.775 31.384 104.511 31.384H105.855C107.071 31.384 107.943 31.616 108.471 32.08C109.015 32.528 109.287 33.144 109.287 33.928C109.287 34.728 109.071 35.424 108.639 36.016C108.223 36.624 107.671 37.128 106.983 37.528C106.311 37.928 105.559 38.232 104.727 38.44C103.911 38.648 103.111 38.752 102.327 38.752ZM104.223 28.528C104.895 28.528 105.431 28.328 105.831 27.928C106.247 27.528 106.551 27.04 106.743 26.464C106.935 25.872 107.031 25.296 107.031 24.736C107.031 24.096 106.871 23.568 106.551 23.152C106.231 22.736 105.727 22.528 105.039 22.528C104.527 22.528 104.087 22.64 103.719 22.864C103.367 23.072 103.079 23.368 102.855 23.752C102.631 24.12 102.463 24.544 102.351 25.024C102.255 25.504 102.207 25.992 102.207 26.488C102.207 27.128 102.383 27.632 102.735 28C103.087 28.352 103.583 28.528 104.223 28.528ZM115.949 34.48C115.037 34.48 114.245 34.312 113.573 33.976C112.917 33.624 112.413 33.096 112.061 32.392C111.709 31.688 111.533 30.8 111.533 29.728C111.533 28.72 111.669 27.72 111.941 26.728C112.229 25.72 112.653 24.808 113.213 23.992C113.773 23.176 114.485 22.52 115.349 22.024C116.229 21.528 117.261 21.28 118.445 21.28C119.069 21.28 119.629 21.368 120.125 21.544C120.621 21.72 121.013 22.008 121.301 22.408C121.589 22.808 121.733 23.352 121.733 24.04C121.733 24.968 121.453 25.752 120.893 26.392C120.349 27.016 119.621 27.496 118.709 27.832C117.797 28.152 116.789 28.312 115.685 28.312C115.477 28.312 115.245 28.312 114.989 28.312C114.749 28.296 114.549 28.28 114.389 28.264C114.373 28.52 114.357 28.776 114.341 29.032C114.325 29.272 114.317 29.496 114.317 29.704C114.317 30.568 114.477 31.248 114.797 31.744C115.117 32.224 115.701 32.464 116.549 32.464C117.237 32.464 117.853 32.304 118.397 31.984C118.941 31.648 119.365 31.176 119.669 30.568C119.893 30.632 120.045 30.76 120.125 30.952C120.205 31.144 120.245 31.344 120.245 31.552C120.245 32.032 120.077 32.496 119.741 32.944C119.405 33.392 118.917 33.76 118.277 34.048C117.637 34.336 116.861 34.48 115.949 34.48ZM114.557 27.088C115.101 27.088 115.637 27.032 116.165 26.92C116.709 26.808 117.205 26.632 117.653 26.392C118.101 26.136 118.453 25.816 118.709 25.432C118.981 25.032 119.117 24.568 119.117 24.04C119.117 23.576 119.005 23.232 118.781 23.008C118.573 22.768 118.269 22.648 117.869 22.648C117.421 22.648 117.005 22.792 116.621 23.08C116.253 23.352 115.933 23.712 115.661 24.16C115.389 24.608 115.157 25.088 114.965 25.6C114.789 26.112 114.653 26.608 114.557 27.088ZM138.222 34.48C137.726 34.48 137.326 34.336 137.022 34.048C136.734 33.776 136.59 33.32 136.59 32.68C136.59 32.328 136.638 31.872 136.734 31.312C136.846 30.752 136.974 30.16 137.118 29.536C137.262 28.896 137.406 28.264 137.55 27.64C137.694 27 137.814 26.432 137.91 25.936C138.022 25.424 138.078 25.032 138.078 24.76C138.078 24.232 137.934 23.832 137.646 23.56C137.374 23.272 136.99 23.128 136.494 23.128C135.998 23.128 135.566 23.256 135.198 23.512C134.846 23.768 134.542 24.104 134.286 24.52C134.046 24.936 133.846 25.392 133.686 25.888C133.526 26.368 133.406 26.848 133.326 27.328L132.03 34L129.294 34.288L130.518 28.216C130.566 27.992 130.622 27.728 130.686 27.424C130.75 27.12 130.806 26.808 130.854 26.488C130.918 26.168 130.966 25.864 130.998 25.576C131.046 25.272 131.07 25.008 131.07 24.784C131.07 24.256 130.934 23.848 130.662 23.56C130.406 23.272 130.03 23.128 129.534 23.128C129.038 23.128 128.614 23.256 128.262 23.512C127.926 23.752 127.638 24.08 127.398 24.496C127.174 24.896 126.99 25.344 126.846 25.84C126.702 26.32 126.582 26.816 126.486 27.328L125.19 34L122.454 34.288L124.902 21.76L127.182 21.472L126.894 23.632C127.31 22.816 127.854 22.224 128.526 21.856C129.198 21.472 129.966 21.28 130.83 21.28C131.678 21.28 132.326 21.464 132.774 21.832C133.222 22.184 133.518 22.728 133.662 23.464C134.094 22.68 134.67 22.12 135.39 21.784C136.11 21.448 136.87 21.28 137.67 21.28C138.694 21.28 139.462 21.536 139.974 22.048C140.486 22.544 140.742 23.248 140.742 24.16C140.742 24.608 140.694 25.128 140.598 25.72C140.502 26.312 140.382 26.944 140.238 27.616C140.094 28.272 139.95 28.912 139.806 29.536C139.662 30.16 139.534 30.728 139.422 31.24C139.326 31.752 139.278 32.152 139.278 32.44C139.278 32.664 139.326 32.864 139.422 33.04C139.518 33.2 139.71 33.296 139.998 33.328C139.902 33.728 139.678 34.016 139.326 34.192C138.99 34.384 138.622 34.48 138.222 34.48ZM145.973 34.48C145.157 34.48 144.493 34.288 143.981 33.904C143.485 33.504 143.117 32.968 142.877 32.296C142.653 31.608 142.541 30.824 142.541 29.944C142.541 28.76 142.701 27.648 143.021 26.608C143.341 25.552 143.797 24.624 144.389 23.824C144.997 23.024 145.701 22.4 146.501 21.952C147.301 21.504 148.181 21.28 149.141 21.28C149.925 21.28 150.749 21.448 151.613 21.784L154.037 21.472L152.117 31.504C152.101 31.648 152.077 31.816 152.045 32.008C152.013 32.2 151.997 32.368 151.997 32.512C151.997 32.752 152.053 32.944 152.165 33.088C152.293 33.232 152.485 33.312 152.741 33.328C152.661 33.6 152.525 33.824 152.333 34C152.157 34.16 151.949 34.28 151.709 34.36C151.485 34.44 151.229 34.48 150.941 34.48C150.509 34.48 150.141 34.36 149.837 34.12C149.533 33.896 149.357 33.56 149.309 33.112C148.893 33.512 148.397 33.84 147.821 34.096C147.261 34.352 146.645 34.48 145.973 34.48ZM147.029 33.04C147.637 33.04 148.125 32.84 148.493 32.44C148.877 32.04 149.181 31.544 149.405 30.952C149.629 30.344 149.797 29.76 149.909 29.2L150.965 23.464C150.645 23.208 150.309 23.024 149.957 22.912C149.621 22.784 149.309 22.72 149.021 22.72C148.525 22.72 148.077 22.864 147.677 23.152C147.293 23.44 146.949 23.832 146.645 24.328C146.357 24.824 146.109 25.4 145.901 26.056C145.709 26.712 145.565 27.416 145.469 28.168C145.373 28.904 145.325 29.648 145.325 30.4C145.325 31.136 145.445 31.76 145.685 32.272C145.925 32.784 146.373 33.04 147.029 33.04ZM157.405 34.288C157.309 34.288 157.213 34.288 157.117 34.288C157.037 34.288 156.949 34.28 156.853 34.264C156.821 32.952 156.781 31.68 156.733 30.448C156.685 29.216 156.621 28.064 156.541 26.992C156.461 25.904 156.357 24.96 156.229 24.16C156.149 23.52 156.045 23.032 155.917 22.696C155.789 22.36 155.565 22.104 155.245 21.928C155.421 21.72 155.645 21.56 155.917 21.448C156.205 21.336 156.533 21.28 156.901 21.28C157.701 21.28 158.245 21.52 158.533 22C158.837 22.464 159.029 23.184 159.109 24.16C159.141 24.416 159.165 24.76 159.181 25.192C159.197 25.608 159.213 26.16 159.229 26.848C159.245 27.52 159.253 28.4 159.253 29.488C159.253 29.872 159.253 30.296 159.253 30.76C159.253 31.224 159.245 31.728 159.229 32.272C159.677 31.68 160.117 31.024 160.549 30.304C160.981 29.568 161.373 28.8 161.725 28C162.077 27.2 162.357 26.4 162.565 25.6C162.773 24.8 162.877 24.04 162.877 23.32C162.877 23.112 162.861 22.888 162.829 22.648C162.813 22.408 162.773 22.168 162.709 21.928C162.917 21.736 163.181 21.584 163.501 21.472C163.837 21.344 164.181 21.28 164.533 21.28C164.885 21.28 165.157 21.344 165.349 21.472C165.541 21.584 165.669 21.76 165.733 22C165.813 22.224 165.853 22.512 165.853 22.864C165.853 23.552 165.717 24.32 165.445 25.168C165.189 26.016 164.845 26.856 164.413 27.688C163.981 28.52 163.517 29.288 163.021 29.992C161.981 31.432 161.029 32.512 160.165 33.232C159.301 33.936 158.381 34.288 157.405 34.288ZM170.723 34.48C169.811 34.48 169.019 34.312 168.347 33.976C167.691 33.624 167.187 33.096 166.835 32.392C166.483 31.688 166.307 30.8 166.307 29.728C166.307 28.72 166.443 27.72 166.715 26.728C167.002 25.72 167.427 24.808 167.987 23.992C168.547 23.176 169.259 22.52 170.123 22.024C171.003 21.528 172.035 21.28 173.219 21.28C173.843 21.28 174.403 21.368 174.899 21.544C175.395 21.72 175.787 22.008 176.075 22.408C176.363 22.808 176.507 23.352 176.507 24.04C176.507 24.968 176.227 25.752 175.667 26.392C175.123 27.016 174.395 27.496 173.483 27.832C172.571 28.152 171.563 28.312 170.459 28.312C170.251 28.312 170.019 28.312 169.763 28.312C169.523 28.296 169.323 28.28 169.163 28.264C169.147 28.52 169.131 28.776 169.115 29.032C169.099 29.272 169.09 29.496 169.09 29.704C169.09 30.568 169.251 31.248 169.571 31.744C169.891 32.224 170.475 32.464 171.323 32.464C172.011 32.464 172.627 32.304 173.171 31.984C173.715 31.648 174.139 31.176 174.443 30.568C174.667 30.632 174.819 30.76 174.899 30.952C174.979 31.144 175.019 31.344 175.019 31.552C175.019 32.032 174.851 32.496 174.515 32.944C174.179 33.392 173.691 33.76 173.051 34.048C172.411 34.336 171.635 34.48 170.723 34.48ZM169.331 27.088C169.875 27.088 170.411 27.032 170.939 26.92C171.483 26.808 171.979 26.632 172.427 26.392C172.875 26.136 173.227 25.816 173.483 25.432C173.755 25.032 173.891 24.568 173.891 24.04C173.891 23.576 173.779 23.232 173.555 23.008C173.347 22.768 173.043 22.648 172.643 22.648C172.195 22.648 171.779 22.792 171.395 23.08C171.027 23.352 170.707 23.712 170.435 24.16C170.163 24.608 169.931 25.088 169.739 25.6C169.563 26.112 169.427 26.608 169.331 27.088ZM186.131 34.48C185.635 34.48 185.235 34.336 184.931 34.048C184.643 33.776 184.499 33.32 184.499 32.68C184.499 32.328 184.547 31.872 184.643 31.312C184.755 30.752 184.883 30.16 185.027 29.536C185.171 28.896 185.315 28.264 185.459 27.64C185.603 27.016 185.723 26.456 185.819 25.96C185.931 25.448 185.987 25.048 185.987 24.76C185.987 24.232 185.851 23.832 185.579 23.56C185.307 23.272 184.947 23.128 184.499 23.128C183.875 23.128 183.347 23.344 182.915 23.776C182.483 24.208 182.131 24.752 181.859 25.408C181.587 26.048 181.387 26.688 181.259 27.328L179.963 34L177.227 34.288L179.675 21.76L181.955 21.472L181.667 23.632C182.099 22.864 182.675 22.28 183.395 21.88C184.115 21.48 184.875 21.28 185.675 21.28C186.651 21.28 187.395 21.536 187.907 22.048C188.419 22.544 188.675 23.248 188.675 24.16C188.675 24.608 188.627 25.128 188.531 25.72C188.435 26.312 188.307 26.944 188.147 27.616C188.003 28.272 187.859 28.912 187.715 29.536C187.571 30.16 187.443 30.728 187.331 31.24C187.235 31.752 187.187 32.152 187.187 32.44C187.187 32.68 187.235 32.88 187.331 33.04C187.427 33.2 187.619 33.296 187.907 33.328C187.811 33.728 187.595 34.016 187.259 34.192C186.923 34.384 186.547 34.48 186.131 34.48Z" fill="#16194F"/>
</g>
<defs>
<filter id="filter0_d_210_29" x="0" y="0" width="56" height="55.2236" filterUnits="userSpaceOnUse" color-interpolation-filters="sRGB">
<feFlood flood-opacity="0" result="BackgroundImageFix"/>
<feColorMatrix in="SourceAlpha" type="matrix" values="0 0 0 0 0 0 0 0 0 0 0 0 0 0 0 0 0 0 127 0" result="hardAlpha"/>
<feOffset dy="4"/>
<feGaussianBlur stdDeviation="2"/>
<feComposite in2="hardAlpha" operator="out"/>
<feColorMatrix type="matrix" values="0 0 0 0 0 0 0 0 0 0 0 0 0 0 0 0 0 0 0.25 0"/>
<feBlend mode="normal" in2="BackgroundImageFix" result="effect1_dropShadow_210_29"/>
<feBlend mode="normal" in="SourceGraphic" in2="effect1_dropShadow_210_29" result="shape"/>
</filter>
<filter id="filter1_d_210_29" x="14.8638" y="10.2402" width="24.3843" height="36.1597" filterUnits="userSpaceOnUse" color-interpolation-filters="sRGB">
<feFlood flood-opacity="0" result="BackgroundImageFix"/>
<feColorMatrix in="SourceAlpha" type="matrix" values="0 0 0 0 0 0 0 0 0 0 0 0 0 0 0 0 0 0 127 0" result="hardAlpha"/>
<feOffset dy="4"/>
<feGaussianBlur stdDeviation="2"/>
<feComposite in2="hardAlpha" operator="out"/>
<feColorMatrix type="matrix" values="0 0 0 0 0 0 0 0 0 0 0 0 0 0 0 0 0 0 0.25 0"/>
<feBlend mode="normal" in2="BackgroundImageFix" result="effect1_dropShadow_210_29"/>
<feBlend mode="normal" in="SourceGraphic" in2="effect1_dropShadow_210_29" result="shape"/>
</filter>
<filter id="filter2_d_210_29" x="56.6479" y="17.6802" width="136.027" height="29.1196" filterUnits="userSpaceOnUse" color-interpolation-filters="sRGB">
<feFlood flood-opacity="0" result="BackgroundImageFix"/>
<feColorMatrix in="SourceAlpha" type="matrix" values="0 0 0 0 0 0 0 0 0 0 0 0 0 0 0 0 0 0 127 0" result="hardAlpha"/>
<feOffset dy="4"/>
<feGaussianBlur stdDeviation="2"/>
<feComposite in2="hardAlpha" operator="out"/>
<feColorMatrix type="matrix" values="0 0 0 0 0 0 0 0 0 0 0 0 0 0 0 0 0 0 0.25 0"/>
<feBlend mode="normal" in2="BackgroundImageFix" result="effect1_dropShadow_210_29"/>
<feBlend mode="normal" in="SourceGraphic" in2="effect1_dropShadow_210_29" result="shape"/>
</filter>
</defs>
</svg>
