<svg width="49" height="49" viewBox="0 0 49 49" fill="none" xmlns="http://www.w3.org/2000/svg">
<path d="M11.782 9.82497V43.0871M37.2178 9.82497V43.0871M33.2518 9.82497H47.0008V10.3141L46.8931 10.9207C45.0794 21.1982 45.0794 31.7139 46.8931 41.9914L47.0008 42.598V43.0871H1.99902V42.598L2.10664 41.9914C3.92058 31.7139 3.92058 21.1982 2.10664 10.9207L1.99902 10.3141V9.82497H15.748M33.2518 9.82497C33.0126 7.67135 31.9857 5.68156 30.3711 4.23639C28.7565 2.79123 26.6658 1.99219 24.4989 1.99219C22.3321 1.99219 20.2413 2.79123 18.6267 4.23639C17.0122 5.68156 15.9872 7.67135 15.748 9.82497M33.2518 9.82497H15.748" stroke="black" stroke-width="2.04167"/>
</svg>
