<svg width="28" height="28" viewBox="0 0 28 28" fill="none" xmlns="http://www.w3.org/2000/svg">
<path fill-rule="evenodd" clip-rule="evenodd" d="M2.3335 13.9997C2.3335 13.3554 2.85584 12.833 3.50016 12.833H24.5002C25.1445 12.833 25.6669 13.3554 25.6669 13.9997C25.6669 14.6441 25.1445 15.1664 24.5002 15.1664H3.50016C2.85584 15.1664 2.3335 14.6441 2.3335 13.9997Z" fill="#3EBDF2"/>
<path fill-rule="evenodd" clip-rule="evenodd" d="M16.6752 6.17472C17.1307 5.71911 17.8695 5.71911 18.3251 6.17472L25.3251 13.1748C25.7806 13.6303 25.7806 14.3691 25.3251 14.8247L18.3251 21.8247C17.8695 22.2802 17.1307 22.2802 16.6752 21.8247C16.2196 21.3691 16.2196 20.6303 16.6752 20.1748L22.8502 13.9997L16.6752 7.82464C16.2196 7.36902 16.2196 6.63034 16.6752 6.17472Z" fill="#DD2F6C"/>
</svg>
