<svg width="165" height="158" viewBox="0 0 165 158" fill="none" xmlns="http://www.w3.org/2000/svg">
<g clip-path="url(#clip0_44_49)">
<path d="M61.1521 0.0175812L49.5298 0.848593L147.78 90.9451L92.2382 157.004L103.903 156.344C105.534 156.252 107.046 155.555 108.054 154.425L163.792 91.886C165.577 89.8819 165.361 87.0344 163.288 85.2563L65.633 1.43518C64.4498 0.414756 62.8114 -0.104625 61.1521 0.0175812Z" fill="url(#paint0_linear_44_49)"/>
<path d="M30.8573 124.234V101.168C30.8573 99.75 30.2482 98.3813 29.149 97.3426L1.71057 71.3249C-0.235816 69.4795 -0.557891 66.7299 0.933405 64.5791L43.1098 3.5799C45.2942 0.414764 50.3212 -0.0923936 53.2829 2.54726L149.923 88.7392C152.177 90.7495 152.395 93.9024 150.434 96.1327L98.8338 154.798C96.3764 157.596 91.6085 157.761 88.8989 155.146L61.3414 128.578C59.8081 127.1 57.4977 126.434 55.2572 126.831L38.6289 129.77C34.6101 130.485 30.8573 127.809 30.8573 124.234Z" fill="url(#paint1_linear_44_49)"/>
</g>
<defs>
<linearGradient id="paint0_linear_44_49" x1="74.0115" y1="2.9735" x2="115.359" y2="121.733" gradientUnits="userSpaceOnUse">
<stop stop-color="#FF91B0"/>
<stop offset="0.6935" stop-color="#FF779D"/>
<stop offset="0.9774" stop-color="#FA89A8"/>
</linearGradient>
<linearGradient id="paint1_linear_44_49" x1="117.241" y1="-71.8878" x2="-4.26819" y2="70.8339" gradientUnits="userSpaceOnUse">
<stop offset="0.185033" stop-color="#FF2965"/>
<stop offset="1" stop-color="#FF618D"/>
</linearGradient>
<clipPath id="clip0_44_49">
<rect width="165" height="158" fill="white"/>
</clipPath>
</defs>
</svg>
