<svg width="115" height="114" viewBox="0 0 115 114" fill="none" xmlns="http://www.w3.org/2000/svg">
<g clip-path="url(#clip0_44_52)">
<g filter="url(#filter0_f_44_52)">
<path d="M70.6503 34.253C67.0519 29.9617 61.1062 27.7075 54.1058 28.6899C53.4233 28.7829 52.7512 28.9174 52.0895 29.0621L51.4897 29.2069L50.7452 29.393L49.8663 29.6722L49.5974 29.7549C49.1114 29.9204 48.6358 30.0858 48.1705 30.2719L47.8499 30.4167C47.519 30.5511 47.1881 30.7062 46.8159 30.8613C46.4436 31.0164 46.3299 31.0681 46.0817 31.1922L45.7405 31.3783C45.482 31.5024 45.2338 31.6472 44.9753 31.7816C44.7168 31.916 44.541 32.0091 44.3239 32.1435C44.1067 32.278 43.993 32.3503 43.8172 32.4537L43.1657 32.8674L42.7314 33.1362L41.9559 33.7049L41.4492 34.0668L41.2631 34.2013C40.7875 34.5632 40.3222 34.9458 39.8672 35.3387L39.6811 35.5041C39.2985 35.8454 38.9262 36.1866 38.5643 36.5382L38.3575 36.7553L37.8508 37.2723C37.6647 37.4792 37.4579 37.6756 37.2717 37.8824L36.9305 38.2857L36.3825 38.9371L35.9999 39.3921C35.8655 39.5575 35.7517 39.7333 35.6276 39.9091C35.5035 40.0849 35.214 40.4572 35.0279 40.7363C34.8418 41.0155 34.8314 40.9845 34.7384 41.1189C34.6453 41.2534 34.5522 41.4395 34.4592 41.5946C34.1903 42.0082 33.9318 42.4322 33.694 42.8561C33.6009 43.0112 33.4975 43.156 33.4148 43.3111C33.3321 43.4662 33.2494 43.6627 33.1563 43.8281L32.8151 44.5209C32.6186 44.9242 32.4428 45.3378 32.267 45.7514C32.1843 45.9686 32.0809 46.1857 31.9982 46.4028L31.8948 46.6614C31.7087 47.168 31.5432 47.6954 31.3881 48.2021C31.3881 48.2951 31.3881 48.3882 31.3157 48.4916C31.171 49.019 31.0365 49.5256 30.9331 50.1047L30.8401 50.6114C30.7263 51.2421 30.6332 51.8729 30.5815 52.514C30.5815 52.7518 30.5815 52.9897 30.5815 53.2171C30.5815 53.4446 30.5815 53.5997 30.5815 53.7858C30.5815 53.972 30.5815 54.3339 30.5815 54.5924C30.5815 54.8509 30.5816 55.2025 30.6333 55.492C30.685 55.7815 30.6333 56.0194 30.6953 56.2779C30.6902 56.3674 30.6902 56.4572 30.6953 56.5467C30.6953 56.919 30.7987 57.2912 30.8711 57.6531C30.8711 57.6531 30.8711 57.6531 30.8711 57.7048C30.9331 58.0357 31.0055 58.3563 31.0882 58.6768C31.0882 58.7596 31.1503 58.8423 31.1709 58.9353C31.264 59.2662 31.3778 59.5868 31.4915 59.9073C31.4915 60.0624 31.5846 60.2175 31.6363 60.3726C31.6596 60.4332 31.6872 60.4919 31.719 60.5484C31.812 60.7966 31.9361 61.0344 32.0395 61.2723C32.1429 61.5101 32.1947 61.6342 32.2774 61.81C32.3601 61.9857 32.3498 61.9237 32.3808 61.9754C32.4844 62.1809 32.5983 62.3811 32.722 62.5751C32.8151 62.7509 32.9081 62.9267 33.0219 63.1025C33.0598 63.1635 33.1012 63.2222 33.146 63.2783C33.27 63.4644 33.3941 63.6402 33.5285 63.816C33.663 63.9918 33.7353 64.1262 33.8491 64.2709L34.1696 64.6742L46.2575 79.1507C46.03 78.8819 45.8232 78.582 45.6164 78.2925C45.4096 78.0029 45.3579 77.9409 45.2338 77.7548C45.1097 77.5686 44.9443 77.2894 44.8099 77.0516C44.6754 76.8138 44.572 76.6587 44.4583 76.4519C44.3445 76.2451 44.2411 75.9866 44.1274 75.7487C44.0136 75.5109 43.8999 75.2731 43.8068 75.0249C43.7138 74.7767 43.6517 74.601 43.5794 74.3838C43.507 74.1667 43.3519 73.7427 43.2588 73.4015C43.1657 73.0602 43.0416 72.6053 42.9589 72.1916C42.9589 72.1916 42.9589 72.1916 42.9589 72.1296C42.8762 71.6746 42.8142 71.2197 42.7521 70.7543C42.7521 70.4958 42.7521 70.227 42.6901 69.9685C42.6281 69.71 42.6901 69.3791 42.6384 69.0792C42.5867 68.7793 42.6384 68.5312 42.6384 68.2623C42.6384 67.8384 42.6384 67.4248 42.6901 66.9905C42.6901 66.3494 42.8349 65.7186 42.9486 65.0878L43.0417 64.5812C43.1451 64.0331 43.2795 63.4954 43.4243 62.9681C43.4243 62.8647 43.476 62.7716 43.4966 62.6785C43.6724 62.0685 43.8792 61.4687 44.1067 60.8793C44.1894 60.6622 44.2929 60.445 44.3756 60.2279C44.5514 59.8143 44.7271 59.4007 44.9236 58.9974L45.2648 58.3046C45.4303 57.9737 45.6164 57.6531 45.8025 57.3326C45.9886 57.012 46.2989 56.4847 46.5677 56.0711C46.8366 55.6575 46.94 55.492 47.1364 55.2128C47.3329 54.9336 47.5294 54.6544 47.7362 54.3856C47.943 54.1167 48.2325 53.7341 48.491 53.4136L49.039 52.7622C49.3389 52.4209 49.6491 52.0797 49.9594 51.7281C50.2696 51.3766 50.2902 51.3766 50.466 51.2111C50.89 50.7872 51.3346 50.3632 51.7896 49.9599L51.9757 49.7945C52.4927 49.3395 53.0097 48.9052 53.5888 48.4916C53.7542 48.3675 53.9197 48.2434 54.0955 48.1297C54.4884 47.8402 54.8917 47.561 55.3053 47.2921L55.9567 46.8785C56.3393 46.651 56.7219 46.4235 57.1148 46.2064C57.5078 45.9892 57.6215 45.9272 57.8801 45.8031C58.1386 45.679 58.5935 45.4516 58.9141 45.2861C59.2346 45.1207 59.5759 44.9759 59.9481 44.8415C60.5272 44.6036 61.1062 44.3761 61.6956 44.1797L61.9645 44.097C62.5022 43.9212 62.9985 43.7764 63.5879 43.642L64.1876 43.4869C64.8494 43.3421 65.5215 43.2077 66.204 43.1146C73.1631 42.1323 79.1087 44.3865 82.7485 48.6777L70.6503 34.253Z" fill="url(#paint0_linear_44_52)"/>
<path d="M115 54.065C115 53.7031 115 53.3411 115 52.9792C115 52.6173 115 52.3691 115 52.0589V51.0249L114.938 50.115C114.938 49.7737 114.886 49.4325 114.855 49.0809C114.824 48.7294 114.793 48.4812 114.762 48.1813C114.731 47.8814 114.762 47.7368 114.69 47.5196C114.617 47.3025 114.69 47.3438 114.69 47.2507C114.586 46.5475 114.473 45.8444 114.338 45.1826C114.338 45.1309 114.338 45.0792 114.338 45.0379C114.193 44.2934 114.018 43.5695 113.832 42.856C113.832 42.7837 113.832 42.7113 113.78 42.639C113.728 42.5666 113.676 42.2873 113.625 42.1115C113.521 41.7289 113.418 41.3567 113.294 40.9844C113.17 40.6122 113.128 40.4674 113.035 40.209C112.942 39.9505 112.787 39.4851 112.663 39.1749L112.518 38.7716C112.518 38.6372 112.405 38.5131 112.353 38.3787C112.239 38.0893 112.115 37.81 112.001 37.5308L111.629 36.7036C111.505 36.4347 111.371 36.1556 111.236 35.8867L110.864 35.3904C110.791 35.2663 110.719 35.1422 110.657 35.0077L110.264 34.2943C110.119 34.0152 109.964 33.7462 109.799 33.4774L109.385 32.7846L109.168 32.433C109.075 32.2779 108.972 32.1435 108.879 31.9884L108.444 31.3576C108.265 31.0887 108.079 30.8302 107.886 30.5821L107.441 29.972L107.255 29.7342C107.017 29.4136 106.759 29.1034 106.511 28.8035L94.4228 14.3271C94.7434 14.6993 95.0433 15.0922 95.3535 15.4955L95.7981 16.1056C95.998 16.3538 96.1841 16.6123 96.3565 16.8811L96.7908 17.5119L97.2975 18.3081C97.4422 18.5356 97.5766 18.7734 97.7111 19.0009C97.8455 19.2284 98.0316 19.5386 98.1764 19.8178L98.5693 20.5313L98.9726 21.3481C99.107 21.617 99.2414 21.8962 99.3655 22.165L99.7378 22.9923C99.8515 23.2715 99.9756 23.5506 100.089 23.8402L100.4 24.6364C100.524 24.988 100.658 25.3499 100.772 25.6704C100.886 25.991 100.948 26.1874 101.03 26.4459C101.113 26.7044 101.258 27.1904 101.361 27.573C101.465 27.9556 101.506 28.0694 101.568 28.3175C101.754 29.031 101.93 29.7548 102.075 30.489C102.075 30.5407 102.075 30.5924 102.075 30.6441C102.209 31.3369 102.323 32.0401 102.426 32.7122C102.426 33.0224 102.499 33.3326 102.54 33.6428C102.581 33.953 102.612 34.2425 102.633 34.5424C102.654 34.8424 102.695 35.225 102.716 35.5765L102.778 36.4865V37.5205C102.778 37.8204 102.778 38.1306 102.778 38.4408C102.778 38.7509 102.778 39.1542 102.778 39.4748C102.778 39.7953 102.778 40.0952 102.778 40.4157C102.778 41.0258 102.716 41.6462 102.664 42.2666C102.612 42.8871 102.519 43.7453 102.426 44.4795C102.426 44.6759 102.426 44.8724 102.343 45.069C102.25 45.6996 102.157 46.3201 102.044 46.9405L101.982 47.292C101.847 48.0159 101.692 48.7397 101.527 49.4532C101.527 49.6393 101.444 49.8151 101.392 49.9909C101.247 50.5803 101.103 51.1593 100.937 51.7487C100.937 51.9142 100.844 52.0693 100.803 52.2347C100.596 52.9482 100.369 53.6513 100.141 54.3028L99.9859 54.7371C99.7998 55.2851 99.593 55.7711 99.3862 56.3709C99.2828 56.6397 99.1794 56.9189 99.0656 57.1878C98.8795 57.6634 98.683 58.1494 98.4762 58.6147C98.3625 58.8732 98.2591 59.1214 98.1454 59.3696C97.8972 59.9383 97.6387 60.4967 97.3595 61.0448C97.2871 61.1999 97.2251 61.3549 97.1424 61.51C96.8011 62.2028 96.4392 62.8956 96.1083 63.5781C95.7774 64.2605 95.1984 65.1912 94.7227 65.977L94.4332 66.4423C94.0402 67.0731 93.637 67.704 93.2234 68.3244C92.9649 68.7277 92.696 69.1102 92.4168 69.5031L91.8067 70.382C91.5069 70.7853 91.1967 71.1886 90.8968 71.6022C90.5969 72.0158 90.4935 72.1399 90.2764 72.4087C89.78 73.0395 89.2423 73.6807 88.746 74.3011L88.4875 74.6009C88.0532 75.0972 87.6189 75.6349 87.1743 76.0795C86.3367 77.0102 85.4681 77.9098 84.5788 78.7887C84.3927 78.9852 84.1962 79.1714 83.9998 79.3575C83.1208 80.2054 82.2212 81.0429 81.2906 81.8494L81.0735 82.0356C80.2049 82.7801 79.3156 83.504 78.4056 84.2072L77.7749 84.7034C76.8132 85.4375 75.8309 86.151 74.8279 86.8335L73.2045 87.8676L72.8943 88.0744C72.2118 88.4984 71.519 88.9119 70.8262 89.3255L70.092 89.7289C69.606 90.008 69.1304 90.2769 68.6444 90.5354L67.7861 90.9697L66.4626 91.6418L65.3251 92.1794L64.0946 92.7276L62.9365 93.2238L61.7784 93.6891C61.1683 93.927 60.5582 94.1441 59.9378 94.3613L59.0175 94.6922C58.211 94.961 57.3941 95.2196 56.5772 95.4574L56.2256 95.5607L56.0085 95.6228C55.3157 95.8089 54.6229 95.9951 53.9404 96.1606L53.227 96.3259C52.6686 96.45 52.0998 96.5742 51.5311 96.6776L50.8383 96.8223C50.0628 96.9567 49.2769 97.0912 48.5014 97.205C44.6695 97.7526 40.7881 97.867 36.9306 97.5461C35.1313 97.3838 33.3429 97.118 31.5743 96.75C26.5787 95.7238 21.8326 93.7284 17.6045 90.8766C14.9218 89.0528 12.5034 86.8676 10.418 84.3828L22.5058 98.8593C30.7781 108.755 44.5204 113.935 60.5893 111.681C61.3648 111.567 62.1507 111.433 62.9262 111.299L63.619 111.164L65.3251 110.802L66.0283 110.637C66.7211 110.471 67.4139 110.296 68.0964 110.099L68.3238 110.037L68.6134 109.944C69.4406 109.706 70.2575 109.448 71.0743 109.179L71.9947 108.858C72.6047 108.631 73.2252 108.414 73.8352 108.176L74.2799 108.01L74.9933 107.711L76.1515 107.214L77.382 106.666L78.5194 106.128L78.9847 105.901C79.2743 105.767 79.5534 105.611 79.843 105.467L80.7012 105.012C81.1872 104.753 81.6629 104.495 82.1489 104.215L82.8727 103.812L83.0485 103.709C83.6896 103.337 84.3203 102.954 84.9511 102.561L85.2613 102.354C85.7473 102.044 86.2333 101.734 86.709 101.413L86.8744 101.289C87.9084 100.607 88.8701 99.8934 89.8317 99.1593C89.9248 99.0869 90.0179 99.0352 90.1006 98.9628L90.4625 98.6732C91.3724 97.9597 92.2617 97.2463 93.1303 96.4915L93.3061 96.3466C94.2367 95.54 95.1363 94.7128 96.0153 93.8546L96.3255 93.565L96.5943 93.2859C97.4836 92.407 98.3522 91.5074 99.1897 90.5871C99.225 90.5467 99.263 90.5086 99.3035 90.4733C99.7068 90.0183 100.11 89.5531 100.503 89.0878C100.586 88.9844 100.679 88.8912 100.762 88.7981C101.258 88.2087 101.744 87.6091 102.219 87.0094L102.302 86.9059L102.902 86.0993C103.212 85.6961 103.522 85.2928 103.822 84.8792L104.432 84.0002C104.66 83.6693 104.897 83.3489 105.115 83.0284L105.239 82.8214C105.652 82.201 106.056 81.5703 106.449 80.9395L106.738 80.4742C107.214 79.6883 107.679 78.8819 108.113 78.0753L108.175 77.9719C108.537 77.3204 108.868 76.6586 109.209 75.9968C109.292 75.8417 109.354 75.6867 109.427 75.5316C109.706 74.9836 109.964 74.4251 110.212 73.8564C110.326 73.6082 110.43 73.3601 110.543 73.1016C110.75 72.6362 110.947 72.1502 111.133 71.6746C111.246 71.4057 111.35 71.1265 111.453 70.8577C111.557 70.5888 111.619 70.4544 111.691 70.2476L112.053 69.2136C112.053 69.0689 112.156 68.924 112.198 68.7793C112.436 68.0761 112.663 67.3731 112.87 66.6595C112.87 66.4941 112.953 66.3391 113.004 66.1735C113.17 65.5841 113.315 65.0052 113.459 64.4158C113.511 64.24 113.552 64.0641 113.594 63.8779C113.759 63.1645 113.914 62.4407 114.049 61.7169L114.111 61.3652C114.224 60.7449 114.318 60.1244 114.411 59.4936C114.411 59.2972 114.462 59.1007 114.493 58.9044C114.586 58.1702 114.669 57.4359 114.731 56.6914C114.731 56.1434 114.814 55.5953 114.835 55.0576C114.83 54.9819 114.83 54.9059 114.835 54.8302C114.938 54.6751 114.938 54.3752 115 54.065Z" fill="url(#paint1_linear_44_52)"/>
<path d="M56.3703 1.52562C84.1444 -2.38303 104.898 15.9297 102.726 42.4113C100.555 68.8929 76.2755 93.5339 48.5117 97.4322C20.7479 101.331 -0.0155406 83.0282 2.15593 56.5362C4.3274 30.0443 28.5962 5.40324 56.3703 1.52562ZM50.7348 70.2785C62.7606 68.593 73.3078 57.8701 74.2487 46.413C75.1897 34.9559 66.1626 26.9939 54.1471 28.6897C42.1317 30.3855 31.5742 41.0981 30.6332 52.5448C29.6923 63.9916 38.709 71.964 50.7348 70.2785Z" fill="url(#paint2_linear_44_52)"/>
</g>
</g>
<defs>
<filter id="filter0_f_44_52" x="1" y="0" width="115" height="113.203" filterUnits="userSpaceOnUse" color-interpolation-filters="sRGB">
<feFlood flood-opacity="0" result="BackgroundImageFix"/>
<feBlend mode="normal" in="SourceGraphic" in2="BackgroundImageFix" result="shape"/>
<feGaussianBlur stdDeviation="0.5" result="effect1_foregroundBlur_44_52"/>
</filter>
<linearGradient id="paint0_linear_44_52" x1="18547.8" y1="9219.36" x2="16343.4" y2="12030.2" gradientUnits="userSpaceOnUse">
<stop stop-color="#FF8F0A"/>
<stop offset="1" stop-color="#FFC12B"/>
</linearGradient>
<linearGradient id="paint1_linear_44_52" x1="40579.9" y1="16478.2" x2="35221.2" y2="24727.4" gradientUnits="userSpaceOnUse">
<stop stop-color="#FFE9B5"/>
<stop offset="1" stop-color="#FFCB4E"/>
</linearGradient>
<linearGradient id="paint2_linear_44_52" x1="-83" y1="76.5" x2="148" y2="0.999995" gradientUnits="userSpaceOnUse">
<stop stop-color="#FFBE21"/>
<stop offset="1" stop-color="#FF7A00"/>
</linearGradient>
<clipPath id="clip0_44_52">
<rect width="115" height="114" fill="white"/>
</clipPath>
</defs>
</svg>
