<svg width="509" height="311" viewBox="0 0 509 311" fill="none" xmlns="http://www.w3.org/2000/svg">
<g clip-path="url(#clip0_50_1214)">
<path d="M389.702 307.483C383.185 301.855 379.227 292.966 380.265 284.311C381.303 275.657 387.733 267.701 396.072 265.864C404.412 264.026 413.919 269.113 416.452 277.439C417.846 261.387 419.453 244.662 427.803 230.993C435.365 218.615 448.461 209.759 462.655 208.174C476.848 206.59 491.792 212.574 500.644 224.023C509.496 235.472 511.663 252.116 505.464 265.261C500.896 274.944 492.482 282.15 483.666 288.013C455.179 306.797 421.012 314.436 387.451 309.524L389.702 307.483Z" fill="#F2F2F2"/>
<path d="M390.206 308.039L390.834 307.469L390.192 306.915C383.841 301.431 380.005 292.779 381.01 284.401C382.015 276.017 388.248 268.356 396.234 266.596C404.219 264.836 413.324 269.732 415.735 277.657L417.199 277.504C418.596 261.421 420.2 244.878 428.443 231.384C435.894 219.188 448.793 210.476 462.738 208.919C476.682 207.363 491.365 213.248 500.051 224.482C508.738 235.718 510.859 252.063 504.785 264.941C500.306 274.438 492.03 281.55 483.252 287.388C455.365 305.776 422.008 313.425 389.141 309.004L390.206 308.039Z" stroke="black" stroke-opacity="0.2" stroke-width="1.5"/>
<path d="M486.608 212.906C474.896 222.655 464.152 233.558 454.531 245.458C439.474 264.018 427.29 284.827 418.403 307.16C417.752 308.789 420.341 309.498 420.984 307.887C435.525 271.591 458.738 239.6 488.501 214.841C489.837 213.728 487.933 211.803 486.608 212.906Z" fill="white"/>
<path d="M454.92 245.772L454.92 245.773C439.895 264.293 427.736 285.058 418.867 307.344L418.867 307.345C418.756 307.623 418.797 307.808 418.871 307.931C418.953 308.069 419.116 308.194 419.342 308.257C419.801 308.384 420.314 308.218 420.52 307.701L420.52 307.701C435.092 271.329 458.354 239.27 488.181 214.456M454.92 245.772L488.501 214.841M454.92 245.772C464.521 233.898 475.242 223.018 486.928 213.29M454.92 245.772L486.608 212.906M488.181 214.456L488.501 214.841M488.181 214.456C488.181 214.456 488.181 214.456 488.181 214.456L488.501 214.841M488.181 214.456C488.405 214.269 488.461 214.085 488.456 213.932C488.45 213.76 488.364 213.563 488.196 213.393C487.855 213.047 487.341 212.946 486.928 213.29M488.501 214.841C489.837 213.728 487.933 211.803 486.608 212.906M486.928 213.29L486.608 212.906M486.928 213.29C486.928 213.29 486.928 213.29 486.928 213.29L486.608 212.906" stroke="black" stroke-opacity="0.2"/>
<mask id="path-5-inside-1_50_1214" fill="white">
<path d="M163.855 305.955C172.806 298.225 178.242 286.015 176.817 274.129C175.391 262.242 166.56 251.315 155.105 248.791C143.651 246.266 130.593 253.254 127.114 264.689C125.199 242.642 122.993 219.671 111.523 200.895C101.138 183.895 83.1497 171.73 63.6549 169.554C44.1602 167.378 23.6347 175.597 11.4765 191.322C-0.681648 207.048 -3.65852 229.909 4.85674 247.963C11.1296 261.262 22.6865 271.16 34.7953 279.212C73.4264 304.902 121.348 315.616 166.946 308.758"/>
</mask>
<path d="M163.855 305.955C172.806 298.225 178.242 286.015 176.817 274.129C175.391 262.242 166.56 251.315 155.105 248.791C143.651 246.266 130.593 253.254 127.114 264.689C125.199 242.642 122.993 219.671 111.523 200.895C101.138 183.895 83.1497 171.73 63.6549 169.554C44.1602 167.378 23.6347 175.597 11.4765 191.322C-0.681648 207.048 -3.65852 229.909 4.85674 247.963C11.1296 261.262 22.6865 271.16 34.7953 279.212C73.4264 304.902 121.348 315.616 166.946 308.758" fill="#F2F2F2"/>
<path d="M127.114 264.689L125.619 264.819L128.549 265.126L127.114 264.689ZM111.523 200.895L112.803 200.114H112.803L111.523 200.895ZM4.85674 247.963L6.21341 247.323L4.85674 247.963ZM34.7953 279.212L33.9647 280.461H33.9647L34.7953 279.212ZM164.836 307.09C174.118 299.074 179.798 286.39 178.306 273.95L175.327 274.307C176.687 285.641 171.494 297.377 162.875 304.82L164.836 307.09ZM178.306 273.95C176.815 261.522 167.591 250.006 155.428 247.326L154.783 250.255C165.529 252.623 173.967 262.962 175.327 274.307L178.306 273.95ZM155.428 247.326C143.265 244.645 129.402 252.015 125.679 264.253L128.549 265.126C131.784 254.492 144.037 247.887 154.783 250.255L155.428 247.326ZM128.608 264.559C126.699 242.574 124.487 219.239 112.803 200.114L110.243 201.677C121.499 220.103 123.699 242.71 125.619 264.819L128.608 264.559ZM112.803 200.114C102.196 182.75 83.8139 170.295 63.8214 168.063L63.4885 171.045C82.4855 173.165 100.079 185.04 110.243 201.677L112.803 200.114ZM63.8214 168.063C43.8284 165.831 22.7814 174.249 10.2898 190.405L12.6632 192.24C24.488 176.946 44.492 168.924 63.4885 171.045L63.8214 168.063ZM10.2898 190.405C-2.1966 206.555 -5.26697 230.015 3.50007 248.602L6.21341 247.323C-2.05008 229.803 0.833302 207.541 12.6632 192.24L10.2898 190.405ZM3.50007 248.602C9.94844 262.274 21.7803 272.359 33.9647 280.461L35.6259 277.963C23.5927 269.961 12.3108 260.25 6.21341 247.323L3.50007 248.602ZM33.9647 280.461C72.9036 306.356 121.201 317.155 167.17 310.241L166.723 307.275C121.496 314.077 73.9491 303.448 35.6259 277.963L33.9647 280.461Z" fill="black" fill-opacity="0.2" mask="url(#path-5-inside-1_50_1214)"/>
<path d="M30.7544 176.053C46.84 189.443 61.5968 204.418 74.8115 220.763C88.0282 237.091 99.6641 254.69 109.556 273.314C115.085 283.761 120.052 294.509 124.434 305.51C125.328 307.748 121.772 308.722 120.888 306.509C113.126 287.115 103.522 268.545 92.2153 251.066C80.9631 233.65 68.0845 217.39 53.7602 202.516C45.6583 194.107 37.1101 186.16 28.1544 178.71C26.3187 177.182 28.9339 174.538 30.7544 176.053Z" fill="white"/>
<path d="M74.2285 221.235L74.2282 221.234C61.0444 204.928 46.3222 189.987 30.2746 176.629M74.2285 221.235L30.2746 176.629M74.2285 221.235C87.4146 237.525 99.0238 255.084 108.893 273.665C114.409 284.088 119.365 294.812 123.737 305.787L123.737 305.788M74.2285 221.235L123.737 305.788M30.2746 176.629C29.7382 176.183 29.0696 176.307 28.618 176.766M30.2746 176.629L28.618 176.766M123.737 305.788C123.884 306.154 123.827 306.387 123.737 306.537C123.634 306.711 123.425 306.873 123.127 306.956C122.521 307.124 121.854 306.904 121.585 306.231L121.585 306.23M123.737 305.788L121.585 306.23M121.585 306.23C113.804 286.792 104.179 268.179 92.8452 250.659C81.567 233.202 68.6583 216.905 54.3004 201.996L54.3003 201.995M121.585 306.23L54.3003 201.995M54.3003 201.995C46.1793 193.567 37.611 185.601 28.6341 178.133M54.3003 201.995L28.6341 178.133M28.6341 178.133C28.3397 177.888 28.2731 177.653 28.2797 177.463M28.6341 178.133L28.2797 177.463M28.2797 177.463C28.2874 177.247 28.3969 176.991 28.618 176.766M28.2797 177.463L28.618 176.766" stroke="black" stroke-opacity="0.2" stroke-width="1.5"/>
<path d="M365.369 310.319H151.823V86.3991C151.823 38.7584 189.748 0 236.364 0H280.829C327.444 0 365.369 38.7584 365.369 86.3991V310.319Z" fill="#F2F2F2"/>
<path d="M364.869 309.819H152.323V86.3991C152.323 39.0242 190.034 0.5 236.364 0.5H280.829C327.158 0.5 364.869 39.0242 364.869 86.3991V309.819Z" stroke="black" stroke-opacity="0.5"/>
<path d="M320.904 310.32H151.823V86.3997C151.776 68.1449 157.432 50.3514 167.968 35.61C168.356 35.069 168.743 34.535 169.143 34.0069C174.239 27.1763 180.303 21.1607 187.136 16.1587C187.522 15.8717 187.909 15.5897 188.303 15.3076C194.02 11.2642 200.204 7.95872 206.716 5.46652C207.102 5.31675 207.496 5.16668 207.89 5.02274C213.778 2.87507 219.883 1.40392 226.09 0.636466C226.475 0.582743 226.87 0.540704 227.265 0.498665C233.314 -0.162315 239.414 -0.162315 245.463 0.498665C245.857 0.540704 246.252 0.582738 246.642 0.637041C252.847 1.40455 258.95 2.87551 264.837 5.02277C265.231 5.16671 265.625 5.31676 266.012 5.46683C272.443 7.9276 278.555 11.1837 284.211 15.1626C284.604 15.4385 284.998 15.7205 285.385 16.0025C289.215 18.7964 292.812 21.909 296.141 25.3085C298.81 28.0352 301.297 30.9418 303.585 34.0087C303.983 34.535 304.371 35.069 304.758 35.6091C315.294 50.3507 320.951 68.1445 320.904 86.3997V310.32Z" fill="#CCCCCC"/>
<path d="M307.155 210.168C312.325 210.168 316.516 205.884 316.516 200.601C316.516 195.317 312.325 191.034 307.155 191.034C301.985 191.034 297.794 195.317 297.794 200.601C297.794 205.884 301.985 210.168 307.155 210.168Z" fill="#554DDE"/>
<path d="M347.875 303.612H340.702L337.289 275.338L347.876 275.338L347.875 303.612Z" fill="#FFB8B8"/>
<path d="M335.578 301.519H349.411V310.42H326.868C326.868 309.251 327.093 308.093 327.531 307.013C327.969 305.933 328.61 304.952 329.419 304.126C330.228 303.299 331.188 302.643 332.245 302.196C333.302 301.749 334.434 301.519 335.578 301.519Z" fill="#2F2E41"/>
<path d="M383.563 303.612H376.39L372.978 275.338L383.564 275.338L383.563 303.612Z" fill="#FFB8B8"/>
<path d="M371.266 301.519H385.099V310.42H362.557C362.557 309.251 362.782 308.093 363.22 307.013C363.657 305.933 364.299 304.952 365.108 304.126C365.916 303.299 366.877 302.643 367.933 302.196C368.99 301.749 370.123 301.519 371.266 301.519Z" fill="#2F2E41"/>
<path d="M311.892 202.496C311.376 201.719 311.033 200.836 310.887 199.909C310.741 198.982 310.796 198.034 311.048 197.13C311.299 196.227 311.742 195.391 312.344 194.682C312.945 193.972 313.692 193.406 314.531 193.024L338.914 124.343L350.912 131.034L323.072 196.668C323.608 198.151 323.592 199.784 323.029 201.256C322.466 202.729 321.393 203.939 320.015 204.657C318.637 205.375 317.049 205.552 315.552 205.154C314.055 204.756 312.753 203.81 311.892 202.496Z" fill="#FFB8B8"/>
<path d="M379.899 215.402C379.102 214.934 378.415 214.294 377.886 213.527C377.357 212.759 377 211.882 376.838 210.957C376.677 210.033 376.716 209.083 376.952 208.176C377.189 207.269 377.617 206.425 378.207 205.705L370.653 133.053L384.307 133.69L387.446 205.154C388.564 206.247 389.251 207.721 389.376 209.296C389.502 210.872 389.057 212.44 388.127 213.703C387.197 214.967 385.845 215.837 384.329 216.15C382.812 216.463 381.236 216.197 379.899 215.402Z" fill="#FFB8B8"/>
<path d="M358.117 111.622C366.053 111.622 372.486 105.047 372.486 96.9365C372.486 88.8259 366.053 82.251 358.117 82.251C350.181 82.251 343.747 88.8259 343.747 96.9365C343.747 105.047 350.181 111.622 358.117 111.622Z" fill="#FFB8B8"/>
<path d="M379.807 198.878H336.485L336.537 198.533C336.615 198.018 344.258 146.85 338.621 130.11C338.056 128.465 338.105 126.664 338.761 125.054C339.417 123.444 340.632 122.139 342.172 121.39C350.229 117.512 365.696 112.738 378.75 124.325C380.671 126.059 382.171 128.225 383.132 130.653C384.092 133.081 384.487 135.704 384.285 138.314L379.807 198.878Z" fill="#554DDE"/>
<path d="M344.807 154.413L325.303 150.369L334.445 128.228C334.992 126.084 336.349 124.249 338.218 123.125C340.088 122.002 342.317 121.682 344.416 122.236C346.516 122.79 348.315 124.173 349.418 126.08C350.522 127.988 350.84 130.265 350.303 132.412L344.807 154.413Z" fill="#554DDE"/>
<path d="M369.786 161.921L368.614 134.452C367.725 129.288 370.617 124.406 375.065 123.609C379.515 122.814 383.86 126.395 384.753 131.597L389.16 157.264L369.786 161.921Z" fill="#554DDE"/>
<path d="M378.366 195.59C385.337 222.721 386.098 257.217 384.217 294.844L374.856 293.648L357.889 221.898L348.529 294.844L337.997 294.246C334.851 254.766 331.788 220.873 336.827 198.579L378.366 195.59Z" fill="#2F2E41"/>
<path d="M367.586 108.286C364.905 111.205 359.926 109.638 359.577 105.651C359.55 105.342 359.552 105.03 359.583 104.721C359.763 102.955 360.762 101.352 360.523 99.487C360.468 99.0229 360.299 98.5807 360.031 98.2021C357.895 95.2787 352.88 99.5097 350.864 96.8632C349.628 95.2405 351.081 92.6855 350.133 90.8718C348.881 88.478 345.172 89.6588 342.846 88.3479C340.259 86.8893 340.414 82.832 342.117 80.3641C344.194 77.3544 347.836 75.7484 351.433 75.517C355.03 75.2855 358.602 76.2792 361.959 77.6165C365.775 79.136 369.558 81.236 371.906 84.6645C374.761 88.8339 375.036 94.4392 373.608 99.3145C372.739 102.28 369.775 105.903 367.586 108.286Z" fill="#2F2E41"/>
<path d="M491.438 310.704H59.4934C59.309 310.704 59.1324 310.628 59.0022 310.495C58.872 310.361 58.7988 310.181 58.7988 309.992C58.7988 309.804 58.872 309.623 59.0022 309.49C59.1324 309.356 59.309 309.281 59.4934 309.28H491.438C491.622 309.281 491.799 309.356 491.929 309.49C492.059 309.623 492.132 309.804 492.132 309.992C492.132 310.181 492.059 310.361 491.929 310.495C491.799 310.628 491.622 310.704 491.438 310.704Z" fill="#3F3D56" fill-opacity="0.2"/>
<path d="M274.392 245.445H198.334C197.332 245.45 196.37 245.049 195.657 244.33C194.944 243.611 194.539 242.632 194.531 241.609V68.1113C194.539 67.0876 194.944 66.1089 195.657 65.3898C196.37 64.6707 197.332 64.2699 198.334 64.2754H274.392C275.393 64.2699 276.356 64.6707 277.069 65.3898C277.782 66.1089 278.187 67.0876 278.194 68.1113V241.609C278.187 242.632 277.782 243.611 277.069 244.33C276.356 245.049 275.393 245.45 274.392 245.445Z" fill="white"/>
<path d="M278.194 120.414H194.531V121.61H278.194V120.414Z" fill="#CCCCCC"/>
<path d="M278.487 188.644H194.824V189.839H278.487V188.644Z" fill="#CCCCCC"/>
<path d="M222.029 64.2754H220.859V246.042H222.029V64.2754Z" fill="#CCCCCC"/>
<path d="M251.281 64.2754H250.111V246.042H251.281V64.2754Z" fill="#CCCCCC"/>
</g>
<defs>
<clipPath id="clip0_50_1214">
<rect width="509" height="311" fill="white"/>
</clipPath>
</defs>
</svg>
