<svg width="48" height="48" viewBox="0 0 48 48" fill="none" xmlns="http://www.w3.org/2000/svg">
<g clip-path="url(#clip0_50_1258)">
<path fill-rule="evenodd" clip-rule="evenodd" d="M6.00183 7.40034C6.00183 6.54701 6.16991 5.70204 6.49646 4.91367C6.82302 4.12529 7.30166 3.40896 7.90505 2.80556C8.50845 2.20217 9.22478 1.72353 10.0132 1.39697C10.8015 1.07042 11.6465 0.902344 12.4998 0.902344C13.3532 0.902344 14.1981 1.07042 14.9865 1.39697C15.7749 1.72353 16.4912 2.20217 17.0946 2.80556C17.698 3.40896 18.1766 4.12529 18.5032 4.91367C18.8298 5.70204 18.9978 6.54701 18.9978 7.40034C18.9978 9.12372 18.3132 10.7765 17.0946 11.9951C15.876 13.2137 14.2232 13.8983 12.4998 13.8983C10.7765 13.8983 9.12366 13.2137 7.90505 11.9951C6.68644 10.7765 6.00183 9.12372 6.00183 7.40034ZM34.5398 14.0483C34.5398 13.5179 34.7505 13.0092 35.1256 12.6341C35.5007 12.2591 36.0094 12.0483 36.5398 12.0483H45.9378C46.4683 12.0483 46.977 12.2591 47.352 12.6341C47.7271 13.0092 47.9378 13.5179 47.9378 14.0483C47.9378 14.5788 47.7271 15.0875 47.352 15.4626C46.977 15.8376 46.4683 16.0483 45.9378 16.0483H36.5398C36.0094 16.0483 35.5007 15.8376 35.1256 15.4626C34.7505 15.0875 34.5398 14.5788 34.5398 14.0483ZM34.5398 24.0003C34.5398 23.4699 34.7505 22.9612 35.1256 22.5861C35.5007 22.2111 36.0094 22.0003 36.5398 22.0003H43.1198C43.6503 22.0003 44.159 22.2111 44.534 22.5861C44.9091 22.9612 45.1198 23.4699 45.1198 24.0003C45.1198 24.5308 44.9091 25.0395 44.534 25.4146C44.159 25.7896 43.6503 26.0003 43.1198 26.0003H36.5398C36.0094 26.0003 35.5007 25.7896 35.1256 25.4146C34.7505 25.0395 34.5398 24.5308 34.5398 24.0003ZM36.5398 31.9523C36.0094 31.9523 35.5007 32.1631 35.1256 32.5381C34.7505 32.9132 34.5398 33.4219 34.5398 33.9523C34.5398 34.4828 34.7505 34.9915 35.1256 35.3666C35.5007 35.7416 36.0094 35.9523 36.5398 35.9523H39.3598C39.8903 35.9523 40.399 35.7416 40.774 35.3666C41.1491 34.9915 41.3598 34.4828 41.3598 33.9523C41.3598 33.4219 41.1491 32.9132 40.774 32.5381C40.399 32.1631 39.8903 31.9523 39.3598 31.9523H36.5398ZM21.9858 22.1483L24.7558 22.7883C25.1818 22.7883 25.6078 23.2143 25.6078 23.6403L26.2478 27.0483C26.4598 28.7523 28.1638 30.0323 29.8678 29.6043C31.5738 29.3923 32.8518 27.6883 32.4258 25.9843L31.7858 22.5743C31.3598 19.5943 29.0178 17.0343 25.8218 16.3963C24.0618 16.0563 22.6498 15.7563 21.4978 15.5143C18.5458 14.8863 17.3058 14.6243 16.2778 14.9763C15.5378 15.2323 14.9038 15.8083 13.8138 16.8043C12.9458 17.5943 11.7898 18.6503 10.0578 20.0183C9.62983 20.2323 9.20383 20.4443 8.99183 20.2323L5.15783 18.3143C3.66583 17.4623 1.74783 18.1003 0.897834 19.8063C0.0438336 21.2963 0.683834 23.2143 2.38783 24.0663L6.22183 25.9843C7.28783 26.4103 8.35183 26.8363 9.62983 26.8363C11.3358 26.8363 13.0398 26.1963 14.5298 25.1323L15.8098 24.0663L17.2998 29.3923L13.4658 30.6703C11.5478 31.5223 10.0578 33.0143 9.41783 34.9303C8.77783 36.8483 8.77783 38.9783 9.62983 40.6823L10.6958 43.4523C11.1218 44.7323 12.3998 45.3703 13.6778 45.3703C14.1038 45.3703 14.5298 45.3703 14.9578 45.1563C16.6618 44.5163 17.2998 42.6003 16.6618 40.8963L15.3818 37.9143C15.1018 37.2643 15.1858 36.8323 15.8098 36.2103L19.8558 34.7183L26.4598 46.0083C27.0998 47.0743 28.1658 47.5003 29.2298 47.5003C29.7358 47.5003 30.1098 47.3663 30.5578 47.2063C30.6778 47.1623 30.8018 47.1183 30.9338 47.0743C32.4258 46.2223 33.0638 44.3043 31.9998 42.6003C26.8078 36.1263 24.5798 31.6963 21.9858 22.1483Z" fill="black"/>
</g>
<defs>
<clipPath id="clip0_50_1258">
<rect width="48" height="48" fill="white"/>
</clipPath>
</defs>
</svg>
