<svg width="49" height="49" viewBox="0 0 49 49" fill="none" xmlns="http://www.w3.org/2000/svg">
<path d="M19.627 31.001H3.37695V40.751C3.37695 41.6129 3.71936 42.4397 4.32886 43.0491C4.93835 43.6584 5.76499 44.001 6.62695 44.001H16.377C17.2389 44.001 18.0656 43.6584 18.6751 43.0491C19.2845 42.4397 19.627 41.6129 19.627 40.751V31.001Z" stroke="#554DDE" stroke-width="3.5" stroke-linecap="round" stroke-linejoin="round"/>
<path d="M45.625 31.002H29.375V40.752C29.375 41.6139 29.7174 42.4407 30.3269 43.05C30.9364 43.6594 31.763 44.002 32.625 44.002H42.375C43.2369 44.002 44.0637 43.6594 44.6731 43.05C45.2825 42.4407 45.625 41.6139 45.625 40.752V31.002Z" stroke="#554DDE" stroke-width="3.5" stroke-linecap="round" stroke-linejoin="round"/>
<path d="M19.625 31.002H29.375" stroke="#554DDE" stroke-width="3.5" stroke-linecap="round" stroke-linejoin="round"/>
<path d="M45.625 31.001V11.501C45.625 9.77708 44.9402 8.12377 43.7212 6.90479C42.5021 5.68578 40.8488 5.00098 39.125 5.00098H35.875" stroke="#554DDE" stroke-width="3.5" stroke-linecap="round" stroke-linejoin="round"/>
<path d="M3.37695 31.001V11.501C3.37695 9.77708 4.06177 8.12377 5.28077 6.90479C6.49975 5.68578 8.15306 5.00098 9.87695 5.00098H13.127" stroke="#554DDE" stroke-width="3.5" stroke-linecap="round" stroke-linejoin="round"/>
</svg>
