<svg width="42" height="42" viewBox="0 0 42 42" fill="none" xmlns="http://www.w3.org/2000/svg">
<path d="M25.1777 30.7513C25.1777 31.1207 25.3245 31.4749 25.5857 31.7362C25.8469 31.9974 26.2012 32.1441 26.5706 32.1441C26.94 32.1441 27.2943 31.9974 27.5555 31.7362C27.8167 31.4749 27.9634 31.1207 27.9634 30.7513C27.9634 30.3818 27.8167 30.0276 27.5555 29.7664C27.2943 29.5051 26.94 29.3584 26.5706 29.3584C26.2012 29.3584 25.8469 29.5051 25.5857 29.7664C25.3245 30.0276 25.1777 30.3818 25.1777 30.7513Z" stroke="black" stroke-width="3" stroke-linecap="round" stroke-linejoin="round"/>
<path d="M34.754 35.5382C34.754 37.0768 33.5069 38.3242 31.9683 38.3242H10.0308C8.49234 38.3242 7.24512 37.0768 7.24512 35.5385V6.46247C7.24512 4.92398 8.49234 3.67676 10.0308 3.67676H31.9683C33.5069 3.67676 34.754 4.92398 34.754 6.46247V35.5382Z" stroke="black" stroke-width="3" stroke-linecap="round" stroke-linejoin="round"/>
<path d="M29.4437 22.5056H12.5566V8.44336H29.4437V22.5056Z" stroke="black" stroke-width="3" stroke-linecap="round" stroke-linejoin="round"/>
<path d="M15.8013 33.1243V28.374" stroke="black" stroke-width="3" stroke-linecap="round" stroke-linejoin="round"/>
<path d="M13.4253 30.75H18.1757" stroke="black" stroke-width="3" stroke-linecap="round" stroke-linejoin="round"/>
</svg>
