<svg width="34" height="34" viewBox="0 0 34 34" fill="none" xmlns="http://www.w3.org/2000/svg">
<path d="M17.696 1.52875C16.0625 1.3283 14.728 2.47084 14.2974 3.91017C13.674 5.99763 12.63 9.28146 11.5611 11.7174C11.0079 11.7571 10.432 11.7181 9.83063 11.6735L9.73288 11.6664C9.05997 11.6154 8.31126 11.5588 7.65959 11.682C7.49741 11.7127 7.35105 11.7991 7.24578 11.9262C7.1405 12.0533 7.08293 12.2132 7.08301 12.3783V30.1879C7.08297 30.3506 7.13893 30.5083 7.24147 30.6346C7.34402 30.7609 7.48691 30.848 7.64613 30.8814H7.64826L7.65392 30.8828L7.67447 30.887L7.75238 30.9033L8.05626 30.9628C8.32117 31.0145 8.70792 31.0875 9.20022 31.1739C10.1848 31.3475 11.5923 31.5763 13.2859 31.7987C16.671 32.2435 21.2164 32.6664 25.834 32.5686C27.925 32.5247 29.9253 31.3517 30.6833 29.2983C32.5703 24.1855 32.6878 17.6603 32.5363 13.654C32.4392 11.0969 30.2894 9.183 27.7479 9.33742C26.2038 9.43092 24.525 9.57117 22.655 9.74259C22.6851 8.52182 22.6591 7.30031 22.5771 6.08192C22.4531 4.34792 21.5479 2.49846 19.6538 1.92826C18.9809 1.72496 18.2995 1.60242 17.696 1.52875Z" fill="#C9C9C9"/>
<path fill-rule="evenodd" clip-rule="evenodd" d="M3.47083 32.6823C4.06938 32.826 4.80958 32.9365 5.66667 32.9365C6.52375 32.9365 7.26396 32.826 7.8625 32.6823C9.4095 32.3118 10.1462 30.8831 10.1759 29.584C10.2156 27.8309 10.2708 24.7652 10.2708 21.2491C10.2708 17.7329 10.2156 14.6672 10.1759 12.9141C10.1462 11.615 9.4095 10.1863 7.86321 9.81584C7.14354 9.64518 6.40629 9.55983 5.66667 9.56155C4.80958 9.56155 4.06938 9.67205 3.47083 9.81584C1.92383 10.1863 1.18717 11.615 1.15742 12.9141C1.09499 15.692 1.06335 18.4705 1.0625 21.2491C1.0625 24.7652 1.11775 27.8309 1.15742 29.584C1.18717 30.8831 1.92454 32.3118 3.47083 32.6823Z" fill="#16194F"/>
<path fill-rule="evenodd" clip-rule="evenodd" d="M7.08333 26.2077C7.08333 25.832 6.93408 25.4716 6.6684 25.2059C6.40272 24.9403 6.04239 24.791 5.66667 24.791C5.29094 24.791 4.93061 24.9403 4.66493 25.2059C4.39926 25.4716 4.25 25.832 4.25 26.2077V27.6243C4.25 28.0001 4.39926 28.3604 4.66493 28.6261C4.93061 28.8918 5.29094 29.041 5.66667 29.041C6.04239 29.041 6.40272 28.8918 6.6684 28.6261C6.93408 28.3604 7.08333 28.0001 7.08333 27.6243V26.2077Z" fill="#C9C9C9"/>
</svg>
