<svg width="49" height="49" viewBox="0 0 49 49" fill="none" xmlns="http://www.w3.org/2000/svg">
<path d="M24.5 17.5928V24.499L28.5625 28.5615" stroke="#554DDE" stroke-width="3.5" stroke-linecap="round" stroke-linejoin="round"/>
<path d="M24.502 39.125C32.5791 39.125 39.127 32.5772 39.127 24.5C39.127 16.4228 32.5791 9.875 24.502 9.875C16.4248 9.875 9.87695 16.4228 9.87695 24.5C9.87695 32.5772 16.4248 39.125 24.502 39.125Z" stroke="#554DDE" stroke-width="3.5" stroke-linecap="round" stroke-linejoin="round"/>
<path d="M32.6289 12.3115V6.62402C32.6289 5.76206 32.2865 4.93542 31.677 4.32593C31.0675 3.71643 30.2409 3.37402 29.3789 3.37402H19.6289C18.7669 3.37402 17.9403 3.71643 17.3308 4.32593C16.7213 4.93542 16.3789 5.76206 16.3789 6.62402V12.3115" stroke="#554DDE" stroke-width="3.5" stroke-linecap="round" stroke-linejoin="round"/>
<path d="M32.6289 36.6348V42.373C32.6289 43.2349 32.2865 44.0617 31.677 44.671C31.0675 45.2804 30.2409 45.623 29.3789 45.623H19.6289C18.7669 45.623 17.9403 45.2804 17.3308 44.671C16.7213 44.0617 16.3789 43.2349 16.3789 42.373V36.6348" stroke="#554DDE" stroke-width="3.5" stroke-linecap="round" stroke-linejoin="round"/>
</svg>
